%TF.GenerationSoftware,KiCad,Pcbnew,9.0.4*%
%TF.CreationDate,2025-09-17T18:39:36-04:00*%
%TF.ProjectId,C1581,43313538-312e-46b6-9963-61645f706362,V2*%
%TF.SameCoordinates,Original*%
%TF.FileFunction,Copper,L2,Bot*%
%TF.FilePolarity,Positive*%
%FSLAX46Y46*%
G04 Gerber Fmt 4.6, Leading zero omitted, Abs format (unit mm)*
G04 Created by KiCad (PCBNEW 9.0.4) date 2025-09-17 18:39:36*
%MOMM*%
%LPD*%
G01*
G04 APERTURE LIST*
G04 Aperture macros list*
%AMRoundRect*
0 Rectangle with rounded corners*
0 $1 Rounding radius*
0 $2 $3 $4 $5 $6 $7 $8 $9 X,Y pos of 4 corners*
0 Add a 4 corners polygon primitive as box body*
4,1,4,$2,$3,$4,$5,$6,$7,$8,$9,$2,$3,0*
0 Add four circle primitives for the rounded corners*
1,1,$1+$1,$2,$3*
1,1,$1+$1,$4,$5*
1,1,$1+$1,$6,$7*
1,1,$1+$1,$8,$9*
0 Add four rect primitives between the rounded corners*
20,1,$1+$1,$2,$3,$4,$5,0*
20,1,$1+$1,$4,$5,$6,$7,0*
20,1,$1+$1,$6,$7,$8,$9,0*
20,1,$1+$1,$8,$9,$2,$3,0*%
G04 Aperture macros list end*
%TA.AperFunction,ComponentPad*%
%ADD10R,2.400000X1.600000*%
%TD*%
%TA.AperFunction,ComponentPad*%
%ADD11O,2.400000X1.600000*%
%TD*%
%TA.AperFunction,ComponentPad*%
%ADD12C,1.600000*%
%TD*%
%TA.AperFunction,ComponentPad*%
%ADD13O,1.600000X1.600000*%
%TD*%
%TA.AperFunction,ComponentPad*%
%ADD14R,1.600000X1.600000*%
%TD*%
%TA.AperFunction,ComponentPad*%
%ADD15R,2.300000X2.300000*%
%TD*%
%TA.AperFunction,ComponentPad*%
%ADD16C,2.300000*%
%TD*%
%TA.AperFunction,ComponentPad*%
%ADD17R,1.700000X1.700000*%
%TD*%
%TA.AperFunction,ComponentPad*%
%ADD18O,1.700000X1.700000*%
%TD*%
%TA.AperFunction,ComponentPad*%
%ADD19C,2.500000*%
%TD*%
%TA.AperFunction,ComponentPad*%
%ADD20R,2.000000X1.905000*%
%TD*%
%TA.AperFunction,ComponentPad*%
%ADD21O,2.000000X1.905000*%
%TD*%
%TA.AperFunction,ComponentPad*%
%ADD22C,3.000000*%
%TD*%
%TA.AperFunction,ComponentPad*%
%ADD23R,1.600000X2.400000*%
%TD*%
%TA.AperFunction,ComponentPad*%
%ADD24O,1.600000X2.400000*%
%TD*%
%TA.AperFunction,ComponentPad*%
%ADD25R,1.800000X1.800000*%
%TD*%
%TA.AperFunction,ComponentPad*%
%ADD26C,1.800000*%
%TD*%
%TA.AperFunction,ComponentPad*%
%ADD27R,3.500000X3.500000*%
%TD*%
%TA.AperFunction,ComponentPad*%
%ADD28RoundRect,0.750000X-0.750000X-1.000000X0.750000X-1.000000X0.750000X1.000000X-0.750000X1.000000X0*%
%TD*%
%TA.AperFunction,ComponentPad*%
%ADD29RoundRect,0.875000X-0.875000X-0.875000X0.875000X-0.875000X0.875000X0.875000X-0.875000X0.875000X0*%
%TD*%
%TA.AperFunction,ViaPad*%
%ADD30C,0.800000*%
%TD*%
%TA.AperFunction,Conductor*%
%ADD31C,1.000000*%
%TD*%
%TA.AperFunction,Conductor*%
%ADD32C,0.250000*%
%TD*%
G04 APERTURE END LIST*
D10*
%TO.P,U12,1*%
%TO.N,ACTLED*%
X150700000Y-57520000D03*
D11*
%TO.P,U12,2*%
%TO.N,Net-(R13-Pad1)*%
X150700000Y-54980000D03*
%TO.P,U12,3*%
%TO.N,DATA_OUT*%
X150700000Y-52440000D03*
%TO.P,U12,4*%
%TO.N,DATA*%
X150700000Y-49900000D03*
%TO.P,U12,5*%
%TO.N,CLK_OUT*%
X150700000Y-47360000D03*
%TO.P,U12,6*%
%TO.N,SLOW_CLK*%
X150700000Y-44820000D03*
%TO.P,U12,7,GND*%
%TO.N,GND*%
X150700000Y-42280000D03*
%TO.P,U12,8*%
%TO.N,Net-(R12-Pad2)*%
X143080000Y-42280000D03*
%TO.P,U12,9*%
%TO.N,POWERLED*%
X143080000Y-44820000D03*
%TO.P,U12,10*%
%TO.N,Net-(D1-A)*%
X143080000Y-47360000D03*
%TO.P,U12,11*%
%TO.N,Net-(U12-Pad11)*%
X143080000Y-49900000D03*
%TO.P,U12,12*%
%TO.N,~{RESET}*%
X143080000Y-52440000D03*
%TO.P,U12,13*%
%TO.N,Net-(U12-Pad13)*%
X143080000Y-54980000D03*
%TO.P,U12,14,VCC*%
%TO.N,5V*%
X143080000Y-57520000D03*
%TD*%
D12*
%TO.P,FB4,1*%
%TO.N,Net-(X1-OUT)*%
X222140000Y-49610000D03*
D13*
%TO.P,FB4,2*%
%TO.N,Net-(FB4-Pad2)*%
X222140000Y-62310000D03*
%TD*%
D12*
%TO.P,C14,1*%
%TO.N,Net-(X1-Vcc)*%
X217700000Y-45260000D03*
%TO.P,C14,2*%
%TO.N,GND*%
X217700000Y-40260000D03*
%TD*%
%TO.P,C5,1*%
%TO.N,5V*%
X198620000Y-95290000D03*
%TO.P,C5,2*%
%TO.N,GND*%
X203620000Y-95290000D03*
%TD*%
%TO.P,FB3,1*%
%TO.N,Net-(U10-Q1)*%
X217810000Y-62460000D03*
D13*
%TO.P,FB3,2*%
%TO.N,Net-(FB3-Pad2)*%
X217810000Y-49760000D03*
%TD*%
D14*
%TO.P,RP1,1,R1*%
%TO.N,5V*%
X107490000Y-74870000D03*
D13*
%TO.P,RP1,2,R1.2*%
%TO.N,~{RDY}*%
X107490000Y-77410000D03*
%TO.P,RP1,3,R2.2*%
%TO.N,READDATA*%
X107490000Y-79950000D03*
%TO.P,RP1,4,R3.2*%
%TO.N,WRITEPROTECT*%
X107490000Y-82490000D03*
%TO.P,RP1,5,R4.2*%
%TO.N,TRACK00*%
X107490000Y-85030000D03*
%TO.P,RP1,6,R5.2*%
%TO.N,CNT*%
X107490000Y-87570000D03*
%TO.P,RP1,7,R6.2*%
%TO.N,SP*%
X107490000Y-90110000D03*
%TO.P,RP1,8,R7.2*%
%TO.N,SLOW_CLK*%
X107490000Y-92650000D03*
%TO.P,RP1,9,R8.2*%
%TO.N,~{DRV_RESET}*%
X107490000Y-95190000D03*
%TD*%
D15*
%TO.P,C91,1*%
%TO.N,5V*%
X82580000Y-128570000D03*
D16*
%TO.P,C91,2*%
%TO.N,GND*%
X82580000Y-123490000D03*
%TD*%
D17*
%TO.P,J2,1,Pin_1*%
%TO.N,~{DISKCHANGE}*%
X92450000Y-106660000D03*
D18*
%TO.P,J2,2,Pin_2*%
%TO.N,FD_PIN2*%
X92450000Y-109200000D03*
%TO.P,J2,3,Pin_3*%
%TO.N,unconnected-(J2-Pin_3-Pad3)*%
X92450000Y-111740000D03*
%TD*%
D14*
%TO.P,D1,1,K*%
%TO.N,5V*%
X117190000Y-96460000D03*
D13*
%TO.P,D1,2,A*%
%TO.N,Net-(D1-A)*%
X117190000Y-88840000D03*
%TD*%
D19*
%TO.P,CN6,0*%
%TO.N,N/C*%
X57340000Y-122040000D03*
X57340000Y-112040000D03*
%TO.P,CN6,1*%
%TO.N,5VIN*%
X67340000Y-124540000D03*
%TO.P,CN6,2*%
%TO.N,GND*%
X69840000Y-122040000D03*
%TO.P,CN6,3*%
%TO.N,unconnected-(CN6-Pad3)*%
X69840000Y-112040000D03*
%TO.P,CN6,4*%
%TO.N,12VIN*%
X67340000Y-109540000D03*
%TD*%
D12*
%TO.P,EM3,1,1*%
%TO.N,DATA*%
X93675200Y-58826400D03*
%TO.P,EM3,2,2*%
%TO.N,GND*%
X91135200Y-59334400D03*
%TO.P,EM3,3,3*%
%TO.N,Net-(CN3-Pin_5)*%
X88595200Y-58826400D03*
%TD*%
%TO.P,C10,1*%
%TO.N,5V*%
X214480000Y-68660000D03*
%TO.P,C10,2*%
%TO.N,GND*%
X214480000Y-73660000D03*
%TD*%
%TO.P,C1,1*%
%TO.N,5V*%
X212850000Y-84190000D03*
%TO.P,C1,2*%
%TO.N,GND*%
X207850000Y-84190000D03*
%TD*%
%TO.P,R2,1*%
%TO.N,5V*%
X113320000Y-96570000D03*
D13*
%TO.P,R2,2*%
%TO.N,~{DISKCHANGE}*%
X113320000Y-109270000D03*
%TD*%
D12*
%TO.P,R5,1*%
%TO.N,Net-(JP1-A)*%
X183790000Y-41610000D03*
D13*
%TO.P,R5,2*%
%TO.N,5V*%
X171090000Y-41610000D03*
%TD*%
D12*
%TO.P,EM4,1,1*%
%TO.N,SLOW_CLK*%
X93675199Y-54364400D03*
%TO.P,EM4,2,2*%
%TO.N,GND*%
X91135199Y-54872400D03*
%TO.P,EM4,3,3*%
%TO.N,Net-(CN3-Pin_4)*%
X88595199Y-54364400D03*
%TD*%
%TO.P,R1,1*%
%TO.N,Net-(FB1-Pad1)*%
X233500000Y-117260000D03*
D13*
%TO.P,R1,2*%
%TO.N,R{slash}~{W}*%
X233500000Y-104560000D03*
%TD*%
D17*
%TO.P,J3,1,Pin_1*%
%TO.N,GND*%
X92040000Y-99530000D03*
D18*
%TO.P,J3,2,Pin_2*%
%TO.N,SELECT0*%
X89500000Y-99530000D03*
%TO.P,J3,3,Pin_3*%
%TO.N,GND*%
X92040000Y-96990000D03*
%TO.P,J3,4,Pin_4*%
%TO.N,SELECT1*%
X89500000Y-96990000D03*
%TD*%
D12*
%TO.P,C3,1*%
%TO.N,5V*%
X195330000Y-136410000D03*
%TO.P,C3,2*%
%TO.N,GND*%
X200330000Y-136410000D03*
%TD*%
D17*
%TO.P,J1,1,Pin_1*%
%TO.N,~{RDY}*%
X92510000Y-65560000D03*
D18*
%TO.P,J1,2,Pin_2*%
%TO.N,FD_PIN34*%
X92510000Y-68100000D03*
%TO.P,J1,3,Pin_3*%
%TO.N,~{DISKCHANGE}*%
X92510000Y-70640000D03*
%TD*%
D17*
%TO.P,J5,1,Pin_1*%
%TO.N,Net-(J5-Pin_1)*%
X156290000Y-139380000D03*
D18*
%TO.P,J5,2,Pin_2*%
%TO.N,GND*%
X153750000Y-139380000D03*
%TD*%
D12*
%TO.P,R10,1*%
%TO.N,PHI0*%
X229410000Y-83720000D03*
D13*
%TO.P,R10,2*%
%TO.N,Net-(FB5-Pad1)*%
X216710000Y-83720000D03*
%TD*%
D15*
%TO.P,C20,1*%
%TO.N,Net-(D1-A)*%
X117190000Y-77690000D03*
D16*
%TO.P,C20,2*%
%TO.N,GND*%
X112110000Y-77690000D03*
%TD*%
D12*
%TO.P,C15,1*%
%TO.N,Net-(X1-Vcc)*%
X222080000Y-45330000D03*
%TO.P,C15,2*%
%TO.N,GND*%
X222080000Y-40330000D03*
%TD*%
D15*
%TO.P,C90,1*%
%TO.N,12VIN*%
X82640000Y-119350000D03*
D16*
%TO.P,C90,2*%
%TO.N,GND*%
X82640000Y-114270000D03*
%TD*%
D12*
%TO.P,EM2,1,1*%
%TO.N,~{ATN}*%
X93645200Y-45504400D03*
%TO.P,EM2,2,2*%
%TO.N,GND*%
X91105200Y-46012400D03*
%TO.P,EM2,3,3*%
%TO.N,Net-(CN3-Pin_3)*%
X88565200Y-45504400D03*
%TD*%
%TO.P,FB1,1*%
%TO.N,Net-(FB1-Pad1)*%
X229760000Y-117240000D03*
D13*
%TO.P,FB1,2*%
%TO.N,Net-(U1-R{slash}~{W})*%
X229760000Y-104540000D03*
%TD*%
D10*
%TO.P,U3,1,A14*%
%TO.N,A14*%
X202950000Y-132530000D03*
D11*
%TO.P,U3,2,A12*%
%TO.N,A12*%
X202950000Y-129990000D03*
%TO.P,U3,3,A7*%
%TO.N,A7*%
X202950000Y-127450000D03*
%TO.P,U3,4,A6*%
%TO.N,A6*%
X202950000Y-124910000D03*
%TO.P,U3,5,A5*%
%TO.N,A5*%
X202950000Y-122370000D03*
%TO.P,U3,6,A4*%
%TO.N,A4*%
X202950000Y-119830000D03*
%TO.P,U3,7,A3*%
%TO.N,A3*%
X202950000Y-117290000D03*
%TO.P,U3,8,A2*%
%TO.N,A2*%
X202950000Y-114750000D03*
%TO.P,U3,9,A1*%
%TO.N,A1*%
X202950000Y-112210000D03*
%TO.P,U3,10,A0*%
%TO.N,A0*%
X202950000Y-109670000D03*
%TO.P,U3,11,D0*%
%TO.N,D0*%
X202950000Y-107130000D03*
%TO.P,U3,12,D1*%
%TO.N,D1*%
X202950000Y-104590000D03*
%TO.P,U3,13,D2*%
%TO.N,D2*%
X202950000Y-102050000D03*
%TO.P,U3,14,GND*%
%TO.N,GND*%
X202950000Y-99510000D03*
%TO.P,U3,15,D3*%
%TO.N,D3*%
X195330000Y-99510000D03*
%TO.P,U3,16,D4*%
%TO.N,D4*%
X195330000Y-102050000D03*
%TO.P,U3,17,D5*%
%TO.N,D5*%
X195330000Y-104590000D03*
%TO.P,U3,18,D6*%
%TO.N,D6*%
X195330000Y-107130000D03*
%TO.P,U3,19,D7*%
%TO.N,D7*%
X195330000Y-109670000D03*
%TO.P,U3,20,~{CE}*%
%TO.N,~{RAM_OE}*%
X195330000Y-112210000D03*
%TO.P,U3,21,A10*%
%TO.N,A10*%
X195330000Y-114750000D03*
%TO.P,U3,22,~{OE}*%
%TO.N,~{RAM_OE}*%
X195330000Y-117290000D03*
%TO.P,U3,23,A11*%
%TO.N,A11*%
X195330000Y-119830000D03*
%TO.P,U3,24,A9*%
%TO.N,A9*%
X195330000Y-122370000D03*
%TO.P,U3,25,A8*%
%TO.N,A8*%
X195330000Y-124910000D03*
%TO.P,U3,26,A13*%
%TO.N,A13*%
X195330000Y-127450000D03*
%TO.P,U3,27,~{WE}*%
%TO.N,~{RAMWE}*%
X195330000Y-129990000D03*
%TO.P,U3,28,VCC*%
%TO.N,5V*%
X195330000Y-132530000D03*
%TD*%
D12*
%TO.P,R14,1*%
%TO.N,RED_LED*%
X157280000Y-134920000D03*
D13*
%TO.P,R14,2*%
%TO.N,GND*%
X157280000Y-122220000D03*
%TD*%
D14*
%TO.P,SW1,1*%
%TO.N,GND*%
X56510000Y-99560000D03*
D13*
%TO.P,SW1,2*%
X56510000Y-102100000D03*
%TO.P,SW1,3*%
%TO.N,Net-(U5-PA4)*%
X64130000Y-102100000D03*
%TO.P,SW1,4*%
%TO.N,Net-(U5-PA3)*%
X64130000Y-99560000D03*
%TD*%
D12*
%TO.P,FB2,1*%
%TO.N,Net-(FB2-Pad1)*%
X210550000Y-64790000D03*
D13*
%TO.P,FB2,2*%
%TO.N,Net-(U1-02)*%
X210550000Y-77490000D03*
%TD*%
D12*
%TO.P,C11,1*%
%TO.N,5V*%
X142980000Y-117900000D03*
%TO.P,C11,2*%
%TO.N,GND*%
X147980000Y-117900000D03*
%TD*%
%TO.P,R12,1*%
%TO.N,RED_LED*%
X153520000Y-134920000D03*
D13*
%TO.P,R12,2*%
%TO.N,Net-(R12-Pad2)*%
X153520000Y-122220000D03*
%TD*%
D10*
%TO.P,U13,1,OEa*%
%TO.N,FAST_SER_DIR*%
X111790000Y-65300000D03*
D11*
%TO.P,U13,2,I0a*%
%TO.N,GND*%
X111790000Y-62760000D03*
%TO.P,U13,3,O3b*%
%TO.N,Net-(RP11F-R6.2)*%
X111790000Y-60220000D03*
%TO.P,U13,4,I1a*%
%TO.N,GND*%
X111790000Y-57680000D03*
%TO.P,U13,5,O2b*%
%TO.N,unconnected-(U13-O2b-Pad5)*%
X111790000Y-55140000D03*
%TO.P,U13,6,I2a*%
%TO.N,DATA*%
X111790000Y-52600000D03*
%TO.P,U13,7,O1b*%
%TO.N,unconnected-(U13-O1b-Pad7)*%
X111790000Y-50060000D03*
%TO.P,U13,8,I3a*%
%TO.N,FAST_CLK*%
X111790000Y-47520000D03*
%TO.P,U13,9,O0b*%
%TO.N,Net-(RP11C-R3.2)*%
X111790000Y-44980000D03*
%TO.P,U13,10,GND*%
%TO.N,GND*%
X111790000Y-42440000D03*
%TO.P,U13,11,I0b*%
%TO.N,CNT*%
X104170000Y-42440000D03*
%TO.P,U13,12,O3a*%
X104170000Y-44980000D03*
%TO.P,U13,13,I1b*%
%TO.N,GND*%
X104170000Y-47520000D03*
%TO.P,U13,14,O2a*%
%TO.N,SP*%
X104170000Y-50060000D03*
%TO.P,U13,15,I2b*%
%TO.N,GND*%
X104170000Y-52600000D03*
%TO.P,U13,16,O1a*%
%TO.N,unconnected-(U13-O1a-Pad16)*%
X104170000Y-55140000D03*
%TO.P,U13,17,I3b*%
%TO.N,SP*%
X104170000Y-57680000D03*
%TO.P,U13,18,O0a*%
%TO.N,unconnected-(U13-O0a-Pad18)*%
X104170000Y-60220000D03*
%TO.P,U13,19,OEb*%
%TO.N,FAST_SER_DIR*%
X104170000Y-62760000D03*
%TO.P,U13,20,VCC*%
%TO.N,5V*%
X104170000Y-65300000D03*
%TD*%
D20*
%TO.P,U90,1,IN*%
%TO.N,12VIN*%
X75915000Y-117180000D03*
D21*
%TO.P,U90,2,GND*%
%TO.N,GND*%
X75915000Y-119720000D03*
%TO.P,U90,3,OUT*%
%TO.N,5V*%
X75915000Y-122260000D03*
%TD*%
D22*
%TO.P,SW2,0*%
%TO.N,N/C*%
X61430000Y-133740000D03*
X61430000Y-138570000D03*
D19*
%TO.P,SW2,1*%
%TO.N,5VIN*%
X74130000Y-133740000D03*
%TO.P,SW2,2*%
%TO.N,5V*%
X77940000Y-133740000D03*
%TO.P,SW2,3*%
X81750000Y-133740000D03*
%TO.P,SW2,4*%
%TO.N,12VIN*%
X74130000Y-138570000D03*
%TO.P,SW2,5*%
%TO.N,12V*%
X77940000Y-138570000D03*
%TO.P,SW2,6*%
X81750000Y-138570000D03*
%TD*%
D12*
%TO.P,C8,1*%
%TO.N,5V*%
X143120000Y-89940000D03*
%TO.P,C8,2*%
%TO.N,GND*%
X148120000Y-89940000D03*
%TD*%
D17*
%TO.P,CN2,1,Pin_1*%
%TO.N,GND*%
X83720000Y-109740000D03*
D18*
%TO.P,CN2,2,Pin_2*%
%TO.N,FD_PIN2*%
X81180000Y-109740000D03*
%TO.P,CN2,3,Pin_3*%
%TO.N,GND*%
X83720000Y-107200000D03*
%TO.P,CN2,4,Pin_4*%
%TO.N,unconnected-(CN2-Pin_4-Pad4)*%
X81180000Y-107200000D03*
%TO.P,CN2,5,Pin_5*%
%TO.N,GND*%
X83720000Y-104660000D03*
%TO.P,CN2,6,Pin_6*%
%TO.N,unconnected-(CN2-Pin_6-Pad6)*%
X81180000Y-104660000D03*
%TO.P,CN2,7,Pin_7*%
%TO.N,GND*%
X83720000Y-102120000D03*
%TO.P,CN2,8,Pin_8*%
%TO.N,INDEX*%
X81180000Y-102120000D03*
%TO.P,CN2,9,Pin_9*%
%TO.N,GND*%
X83720000Y-99580000D03*
%TO.P,CN2,10,Pin_10*%
%TO.N,SELECT0*%
X81180000Y-99580000D03*
%TO.P,CN2,11,Pin_11*%
%TO.N,GND*%
X83720000Y-97040000D03*
%TO.P,CN2,12,Pin_12*%
%TO.N,SELECT1*%
X81180000Y-97040000D03*
%TO.P,CN2,13,Pin_13*%
%TO.N,GND*%
X83720000Y-94500000D03*
%TO.P,CN2,14,Pin_14*%
%TO.N,unconnected-(CN2-Pin_14-Pad14)*%
X81180000Y-94500000D03*
%TO.P,CN2,15,Pin_15*%
%TO.N,GND*%
X83720000Y-91960000D03*
%TO.P,CN2,16,Pin_16*%
%TO.N,MOTOREN*%
X81180000Y-91960000D03*
%TO.P,CN2,17,Pin_17*%
%TO.N,GND*%
X83720000Y-89420000D03*
%TO.P,CN2,18,Pin_18*%
%TO.N,DIRECTION*%
X81180000Y-89420000D03*
%TO.P,CN2,19,Pin_19*%
%TO.N,GND*%
X83720000Y-86880000D03*
%TO.P,CN2,20,Pin_20*%
%TO.N,STEP*%
X81180000Y-86880000D03*
%TO.P,CN2,21,Pin_21*%
%TO.N,GND*%
X83720000Y-84340000D03*
%TO.P,CN2,22,Pin_22*%
%TO.N,WRITEDATA*%
X81180000Y-84340000D03*
%TO.P,CN2,23,Pin_23*%
%TO.N,GND*%
X83720000Y-81800000D03*
%TO.P,CN2,24,Pin_24*%
%TO.N,WRITEGATE*%
X81180000Y-81800000D03*
%TO.P,CN2,25,Pin_25*%
%TO.N,GND*%
X83720000Y-79260000D03*
%TO.P,CN2,26,Pin_26*%
%TO.N,TRACK00*%
X81180000Y-79260000D03*
%TO.P,CN2,27,Pin_27*%
%TO.N,GND*%
X83720000Y-76720000D03*
%TO.P,CN2,28,Pin_28*%
%TO.N,WRITEPROTECT*%
X81180000Y-76720000D03*
%TO.P,CN2,29,Pin_29*%
%TO.N,GND*%
X83720000Y-74180000D03*
%TO.P,CN2,30,Pin_30*%
%TO.N,READDATA*%
X81180000Y-74180000D03*
%TO.P,CN2,31,Pin_31*%
%TO.N,GND*%
X83720000Y-71640000D03*
%TO.P,CN2,32,Pin_32*%
%TO.N,SIDESELECT*%
X81180000Y-71640000D03*
%TO.P,CN2,33,Pin_33*%
%TO.N,GND*%
X83720000Y-69100000D03*
%TO.P,CN2,34,Pin_34*%
%TO.N,FD_PIN34*%
X81180000Y-69100000D03*
%TD*%
D23*
%TO.P,U10,1,CP1..3*%
%TO.N,Net-(U10-CP1..3)*%
X234390000Y-68400000D03*
D24*
%TO.P,U10,2,R0(1)*%
%TO.N,GND*%
X231850000Y-68400000D03*
%TO.P,U10,3,R0(2)*%
X229310000Y-68400000D03*
%TO.P,U10,4*%
%TO.N,N/C*%
X226770000Y-68400000D03*
%TO.P,U10,5,VCC*%
%TO.N,5V*%
X224230000Y-68400000D03*
%TO.P,U10,6*%
%TO.N,N/C*%
X221690000Y-68400000D03*
%TO.P,U10,7*%
X219150000Y-68400000D03*
%TO.P,U10,8,Q2*%
%TO.N,unconnected-(U10-Q2-Pad8)*%
X219150000Y-76020000D03*
%TO.P,U10,9,Q1*%
%TO.N,Net-(U10-Q1)*%
X221690000Y-76020000D03*
%TO.P,U10,10,GND*%
%TO.N,GND*%
X224230000Y-76020000D03*
%TO.P,U10,11,Q3*%
%TO.N,Net-(U10-Q3)*%
X226770000Y-76020000D03*
%TO.P,U10,12,Q0*%
%TO.N,unconnected-(U10-Q0-Pad12)*%
X229310000Y-76020000D03*
%TO.P,U10,13*%
%TO.N,N/C*%
X231850000Y-76020000D03*
%TO.P,U10,14,CP0*%
%TO.N,GND*%
X234390000Y-76020000D03*
%TD*%
D17*
%TO.P,CN1,1,Pin_1*%
%TO.N,12V*%
X94410000Y-124293662D03*
D18*
%TO.P,CN1,2,Pin_2*%
%TO.N,GND*%
X94410000Y-121753662D03*
%TO.P,CN1,3,Pin_3*%
X94410000Y-119213662D03*
%TO.P,CN1,4,Pin_4*%
%TO.N,5V*%
X94410000Y-116673662D03*
%TD*%
D17*
%TO.P,JP1,1,A*%
%TO.N,Net-(JP1-A)*%
X183620000Y-44920000D03*
D18*
%TO.P,JP1,2,B*%
%TO.N,PHI2*%
X181080000Y-44920000D03*
%TD*%
D12*
%TO.P,FB5,1*%
%TO.N,Net-(FB5-Pad1)*%
X216690000Y-79750000D03*
D13*
%TO.P,FB5,2*%
%TO.N,Net-(U10-Q3)*%
X229390000Y-79750000D03*
%TD*%
D25*
%TO.P,D3,1,K*%
%TO.N,Net-(CN9-Pin_3)*%
X123040000Y-140145000D03*
D26*
%TO.P,D3,2,A*%
%TO.N,Net-(CN9-Pin_2)*%
X123040000Y-142685000D03*
%TD*%
D12*
%TO.P,R4,1*%
%TO.N,Net-(U6B-E)*%
X159450000Y-82680000D03*
D13*
%TO.P,R4,2*%
%TO.N,5V*%
X159450000Y-95380000D03*
%TD*%
D12*
%TO.P,R13,1*%
%TO.N,Net-(R13-Pad1)*%
X149820000Y-122230000D03*
D13*
%TO.P,R13,2*%
%TO.N,GREEN_LED*%
X149820000Y-134930000D03*
%TD*%
D12*
%TO.P,C4,1*%
%TO.N,5V*%
X164050000Y-45540000D03*
%TO.P,C4,2*%
%TO.N,GND*%
X169050000Y-45540000D03*
%TD*%
%TO.P,FB6,1*%
%TO.N,5V*%
X208890000Y-40350000D03*
D13*
%TO.P,FB6,2*%
%TO.N,Net-(X1-Vcc)*%
X208890000Y-53050000D03*
%TD*%
D17*
%TO.P,CN9,1,Pin_1*%
%TO.N,Net-(CN9-Pin_1)*%
X118090000Y-143860000D03*
D18*
%TO.P,CN9,2,Pin_2*%
%TO.N,Net-(CN9-Pin_2)*%
X118090000Y-141320000D03*
%TO.P,CN9,3,Pin_3*%
%TO.N,Net-(CN9-Pin_3)*%
X118090000Y-138780000D03*
%TD*%
D12*
%TO.P,C9,1*%
%TO.N,5V*%
X122990000Y-62600000D03*
%TO.P,C9,2*%
%TO.N,GND*%
X127990000Y-62600000D03*
%TD*%
D10*
%TO.P,U4,1,~{CS}*%
%TO.N,~{WD_CS}*%
X178750000Y-82640000D03*
D11*
%TO.P,U4,2,R/~{W}*%
%TO.N,R{slash}~{W}*%
X178750000Y-80100000D03*
%TO.P,U4,3,A0*%
%TO.N,A0*%
X178750000Y-77560000D03*
%TO.P,U4,4,A1*%
%TO.N,A1*%
X178750000Y-75020000D03*
%TO.P,U4,5,D0*%
%TO.N,D0*%
X178750000Y-72480000D03*
%TO.P,U4,6,D1*%
%TO.N,D1*%
X178750000Y-69940000D03*
%TO.P,U4,7,D2*%
%TO.N,D2*%
X178750000Y-67400000D03*
%TO.P,U4,8,D3*%
%TO.N,D3*%
X178750000Y-64860000D03*
%TO.P,U4,9,D4*%
%TO.N,D4*%
X178750000Y-62320000D03*
%TO.P,U4,10,D5*%
%TO.N,D5*%
X178750000Y-59780000D03*
%TO.P,U4,11,D6*%
%TO.N,D6*%
X178750000Y-57240000D03*
%TO.P,U4,12,D7*%
%TO.N,D7*%
X178750000Y-54700000D03*
%TO.P,U4,13,~{RES}*%
%TO.N,~{RESET}*%
X178750000Y-52160000D03*
%TO.P,U4,14,GND*%
%TO.N,GND*%
X178750000Y-49620000D03*
%TO.P,U4,15,VCC*%
%TO.N,5V*%
X163510000Y-49620000D03*
%TO.P,U4,16,STEP*%
%TO.N,Net-(U4-STEP)*%
X163510000Y-52160000D03*
%TO.P,U4,17,DIRC*%
%TO.N,Net-(U4-DIRC)*%
X163510000Y-54700000D03*
%TO.P,U4,18,CLK*%
%TO.N,FDC_CLOCK*%
X163510000Y-57240000D03*
%TO.P,U4,19,~{RD}*%
%TO.N,READDATA*%
X163510000Y-59780000D03*
%TO.P,U4,20,MO*%
%TO.N,unconnected-(U4-MO-Pad20)*%
X163510000Y-62320000D03*
%TO.P,U4,21,WG*%
%TO.N,Net-(U4-WG)*%
X163510000Y-64860000D03*
%TO.P,U4,22,WD*%
%TO.N,Net-(U4-WD)*%
X163510000Y-67400000D03*
%TO.P,U4,23,~{TR00}*%
%TO.N,TRACK00*%
X163510000Y-69940000D03*
%TO.P,U4,24,~{IP}*%
%TO.N,INDEX*%
X163510000Y-72480000D03*
%TO.P,U4,25,~{WPRT}*%
%TO.N,WRITEPROTECT*%
X163510000Y-75020000D03*
%TO.P,U4,26,~{DDEN}*%
%TO.N,unconnected-(U4-~{DDEN}-Pad26)*%
X163510000Y-77560000D03*
%TO.P,U4,27,DRQ*%
%TO.N,unconnected-(U4-DRQ-Pad27)*%
X163510000Y-80100000D03*
%TO.P,U4,28,INTRQ*%
%TO.N,unconnected-(U4-INTRQ-Pad28)*%
X163510000Y-82640000D03*
%TD*%
D12*
%TO.P,EM1,1,1*%
%TO.N,FAST_CLK*%
X93665200Y-49864400D03*
%TO.P,EM1,2,2*%
%TO.N,GND*%
X91125200Y-50372400D03*
%TO.P,EM1,3,3*%
%TO.N,Net-(CN3-Pin_1)*%
X88585200Y-49864400D03*
%TD*%
%TO.P,C12,1*%
%TO.N,5V*%
X143310000Y-62490000D03*
%TO.P,C12,2*%
%TO.N,GND*%
X148310000Y-62490000D03*
%TD*%
%TO.P,C13,1*%
%TO.N,5V*%
X106470000Y-69990000D03*
%TO.P,C13,2*%
%TO.N,GND*%
X111470000Y-69990000D03*
%TD*%
%TO.P,C7,1*%
%TO.N,5V*%
X123050000Y-89970000D03*
%TO.P,C7,2*%
%TO.N,GND*%
X128050000Y-89970000D03*
%TD*%
%TO.P,C2,1*%
%TO.N,5V*%
X163780000Y-136680000D03*
%TO.P,C2,2*%
%TO.N,GND*%
X168780000Y-136680000D03*
%TD*%
%TO.P,R3,1*%
%TO.N,Net-(FB2-Pad1)*%
X206910000Y-64820000D03*
D13*
%TO.P,R3,2*%
%TO.N,PHI2*%
X206910000Y-77520000D03*
%TD*%
D17*
%TO.P,CN8,1,Pin_1*%
%TO.N,12V*%
X88680000Y-124293662D03*
D18*
%TO.P,CN8,2,Pin_2*%
%TO.N,GND*%
X88680000Y-121753662D03*
%TO.P,CN8,3,Pin_3*%
X88680000Y-119213662D03*
%TO.P,CN8,4,Pin_4*%
%TO.N,5V*%
X88680000Y-116673662D03*
%TD*%
D10*
%TO.P,U1,1,VSS*%
%TO.N,GND*%
X210340000Y-89330000D03*
D11*
%TO.P,U1,2,RDY*%
%TO.N,RDY*%
X210340000Y-91870000D03*
%TO.P,U1,3,01*%
%TO.N,unconnected-(U1-01-Pad3)*%
X210340000Y-94410000D03*
%TO.P,U1,4,~{IRQ}*%
%TO.N,~{IRQ}*%
X210340000Y-96950000D03*
%TO.P,U1,5,NC*%
%TO.N,unconnected-(U1-NC-Pad5)*%
X210340000Y-99490000D03*
%TO.P,U1,6,~{NMI}*%
%TO.N,~{NMI}*%
X210340000Y-102030000D03*
%TO.P,U1,7,SYNC*%
%TO.N,unconnected-(U1-SYNC-Pad7)*%
X210340000Y-104570000D03*
%TO.P,U1,8,Vcc*%
%TO.N,5V*%
X210340000Y-107110000D03*
%TO.P,U1,9,A0*%
%TO.N,A0*%
X210340000Y-109650000D03*
%TO.P,U1,10,A1*%
%TO.N,A1*%
X210340000Y-112190000D03*
%TO.P,U1,11,A2*%
%TO.N,A2*%
X210340000Y-114730000D03*
%TO.P,U1,12,A3*%
%TO.N,A3*%
X210340000Y-117270000D03*
%TO.P,U1,13,A4*%
%TO.N,A4*%
X210340000Y-119810000D03*
%TO.P,U1,14,A5*%
%TO.N,A5*%
X210340000Y-122350000D03*
%TO.P,U1,15,A6*%
%TO.N,A6*%
X210340000Y-124890000D03*
%TO.P,U1,16,A7*%
%TO.N,A7*%
X210340000Y-127430000D03*
%TO.P,U1,17,A8*%
%TO.N,A8*%
X210340000Y-129970000D03*
%TO.P,U1,18,A9*%
%TO.N,A9*%
X210340000Y-132510000D03*
%TO.P,U1,19,A10*%
%TO.N,A10*%
X210340000Y-135050000D03*
%TO.P,U1,20,A11*%
%TO.N,A11*%
X210340000Y-137590000D03*
%TO.P,U1,21,GND*%
%TO.N,GND*%
X225580000Y-137590000D03*
%TO.P,U1,22,A12*%
%TO.N,A12*%
X225580000Y-135050000D03*
%TO.P,U1,23,A13*%
%TO.N,A13*%
X225580000Y-132510000D03*
%TO.P,U1,24,A14*%
%TO.N,A14*%
X225580000Y-129970000D03*
%TO.P,U1,25,A15*%
%TO.N,A15*%
X225580000Y-127430000D03*
%TO.P,U1,26,D7*%
%TO.N,D7*%
X225580000Y-124890000D03*
%TO.P,U1,27,D6*%
%TO.N,D6*%
X225580000Y-122350000D03*
%TO.P,U1,28,D5*%
%TO.N,D5*%
X225580000Y-119810000D03*
%TO.P,U1,29,D4*%
%TO.N,D4*%
X225580000Y-117270000D03*
%TO.P,U1,30,D3*%
%TO.N,D3*%
X225580000Y-114730000D03*
%TO.P,U1,31,D2*%
%TO.N,D2*%
X225580000Y-112190000D03*
%TO.P,U1,32,D1*%
%TO.N,D1*%
X225580000Y-109650000D03*
%TO.P,U1,33,D0*%
%TO.N,D0*%
X225580000Y-107110000D03*
%TO.P,U1,34,R/~{W}*%
%TO.N,Net-(U1-R{slash}~{W})*%
X225580000Y-104570000D03*
%TO.P,U1,35,NC*%
%TO.N,unconnected-(U1-NC-Pad35)*%
X225580000Y-102030000D03*
%TO.P,U1,36,NC*%
%TO.N,unconnected-(U1-NC-Pad36)*%
X225580000Y-99490000D03*
%TO.P,U1,37,00*%
%TO.N,PHI0*%
X225580000Y-96950000D03*
%TO.P,U1,38,SO*%
%TO.N,S0*%
X225580000Y-94410000D03*
%TO.P,U1,39,02*%
%TO.N,Net-(U1-02)*%
X225580000Y-91870000D03*
%TO.P,U1,40,~{RESET}*%
%TO.N,~{RESET}*%
X225580000Y-89330000D03*
%TD*%
D10*
%TO.P,U7,1*%
%TO.N,R{slash}~{W}*%
X130560000Y-85350000D03*
D11*
%TO.P,U7,2*%
%TO.N,A15*%
X130560000Y-82810000D03*
%TO.P,U7,3*%
%TO.N,~{ROM_OE}*%
X130560000Y-80270000D03*
%TO.P,U7,4*%
%TO.N,Net-(U7-Pad4)*%
X130560000Y-77730000D03*
%TO.P,U7,5*%
%TO.N,PHI2*%
X130560000Y-75190000D03*
%TO.P,U7,6*%
%TO.N,~{WD_CS}*%
X130560000Y-72650000D03*
%TO.P,U7,7,GND*%
%TO.N,GND*%
X130560000Y-70110000D03*
%TO.P,U7,8*%
%TO.N,Net-(U11-Pad13)*%
X122940000Y-70110000D03*
%TO.P,U7,9*%
%TO.N,ATN_IN*%
X122940000Y-72650000D03*
%TO.P,U7,10*%
%TO.N,ATN_ACK*%
X122940000Y-75190000D03*
%TO.P,U7,11*%
%TO.N,~{FLAG}*%
X122940000Y-77730000D03*
%TO.P,U7,12*%
%TO.N,ATN_IN*%
X122940000Y-80270000D03*
%TO.P,U7,13*%
X122940000Y-82810000D03*
%TO.P,U7,14,VCC*%
%TO.N,5V*%
X122940000Y-85350000D03*
%TD*%
D12*
%TO.P,R11,1*%
%TO.N,Net-(FB3-Pad2)*%
X213920000Y-49760000D03*
D13*
%TO.P,R11,2*%
%TO.N,FDC_CLOCK*%
X213920000Y-62460000D03*
%TD*%
D17*
%TO.P,CN5,1,Pin_1*%
%TO.N,GREEN_LED*%
X174460000Y-140470000D03*
D18*
%TO.P,CN5,2,Pin_2*%
%TO.N,5V*%
X177000000Y-140470000D03*
%TO.P,CN5,3,Pin_3*%
%TO.N,RED_LED*%
X179540000Y-140470000D03*
%TD*%
D14*
%TO.P,X1,1,EN*%
%TO.N,5V*%
X227120000Y-53620000D03*
D12*
%TO.P,X1,4,GND*%
%TO.N,GND*%
X234740000Y-53620000D03*
%TO.P,X1,5,OUT*%
%TO.N,Net-(X1-OUT)*%
X234740000Y-46000000D03*
%TO.P,X1,8,Vcc*%
%TO.N,Net-(X1-Vcc)*%
X227120000Y-46000000D03*
%TD*%
D10*
%TO.P,U5,1,VSS*%
%TO.N,GND*%
X203630000Y-90290000D03*
D11*
%TO.P,U5,2,PA0*%
%TO.N,SIDE0*%
X203630000Y-87750000D03*
%TO.P,U5,3,PA1*%
%TO.N,~{RDY}*%
X203630000Y-85210000D03*
%TO.P,U5,4,PA2*%
%TO.N,~{MOTOR}*%
X203630000Y-82670000D03*
%TO.P,U5,5,PA3*%
%TO.N,Net-(U5-PA3)*%
X203630000Y-80130000D03*
%TO.P,U5,6,PA4*%
%TO.N,Net-(U5-PA4)*%
X203630000Y-77590000D03*
%TO.P,U5,7,PA5*%
%TO.N,POWERLED*%
X203630000Y-75050000D03*
%TO.P,U5,8,PA6*%
%TO.N,ACTLED*%
X203630000Y-72510000D03*
%TO.P,U5,9,PA7*%
%TO.N,~{DISKCHANGE}*%
X203630000Y-69970000D03*
%TO.P,U5,10,PB0*%
%TO.N,DATA_IN*%
X203630000Y-67430000D03*
%TO.P,U5,11,PB1*%
%TO.N,DATA_OUT*%
X203630000Y-64890000D03*
%TO.P,U5,12,PB2*%
%TO.N,CLK_IN*%
X203630000Y-62350000D03*
%TO.P,U5,13,PB3*%
%TO.N,CLK_OUT*%
X203630000Y-59810000D03*
%TO.P,U5,14,PB4*%
%TO.N,ATN_ACK*%
X203630000Y-57270000D03*
%TO.P,U5,15,PB5*%
%TO.N,FAST_SER_DIR*%
X203630000Y-54730000D03*
%TO.P,U5,16,PB6*%
%TO.N,WRITEPROTECT*%
X203630000Y-52190000D03*
%TO.P,U5,17,PB7*%
%TO.N,ATN_IN*%
X203630000Y-49650000D03*
%TO.P,U5,18,~{PC}*%
%TO.N,unconnected-(U5-~{PC}-Pad18)*%
X203630000Y-47110000D03*
%TO.P,U5,19,TOD*%
%TO.N,Net-(JP1-A)*%
X203630000Y-44570000D03*
%TO.P,U5,20,VCC*%
%TO.N,5V*%
X203630000Y-42030000D03*
%TO.P,U5,21,~{IRQ}*%
%TO.N,~{IRQ}*%
X188390000Y-42030000D03*
%TO.P,U5,22,R/~{W}*%
%TO.N,R{slash}~{W}*%
X188390000Y-44570000D03*
%TO.P,U5,23,~{CS}*%
%TO.N,~{CIA_SEL}*%
X188390000Y-47110000D03*
%TO.P,U5,24,~{FLAG}*%
%TO.N,~{FLAG}*%
X188390000Y-49650000D03*
%TO.P,U5,25,\u03D52*%
%TO.N,PHI2*%
X188390000Y-52190000D03*
%TO.P,U5,26,D7*%
%TO.N,D7*%
X188390000Y-54730000D03*
%TO.P,U5,27,D6*%
%TO.N,D6*%
X188390000Y-57270000D03*
%TO.P,U5,28,D5*%
%TO.N,D5*%
X188390000Y-59810000D03*
%TO.P,U5,29,D4*%
%TO.N,D4*%
X188390000Y-62350000D03*
%TO.P,U5,30,D3*%
%TO.N,D3*%
X188390000Y-64890000D03*
%TO.P,U5,31,D2*%
%TO.N,D2*%
X188390000Y-67430000D03*
%TO.P,U5,32,D1*%
%TO.N,D1*%
X188390000Y-69970000D03*
%TO.P,U5,33,D0*%
%TO.N,D0*%
X188390000Y-72510000D03*
%TO.P,U5,34,~{RES}*%
%TO.N,~{RESET}*%
X188390000Y-75050000D03*
%TO.P,U5,35,RS3*%
%TO.N,A3*%
X188390000Y-77590000D03*
%TO.P,U5,36,RS2*%
%TO.N,A2*%
X188390000Y-80130000D03*
%TO.P,U5,37,RS1*%
%TO.N,A1*%
X188390000Y-82670000D03*
%TO.P,U5,38,RS0*%
%TO.N,A0*%
X188390000Y-85210000D03*
%TO.P,U5,39,SP*%
%TO.N,SP*%
X188390000Y-87750000D03*
%TO.P,U5,40,CNT*%
%TO.N,CNT*%
X188390000Y-90290000D03*
%TD*%
D12*
%TO.P,C6,1*%
%TO.N,5V*%
X122500000Y-117740000D03*
%TO.P,C6,2*%
%TO.N,GND*%
X127500000Y-117740000D03*
%TD*%
D14*
%TO.P,RP2,1,R1*%
%TO.N,5V*%
X232770000Y-83660000D03*
D13*
%TO.P,RP2,2,R1.2*%
%TO.N,Net-(D1-A)*%
X232770000Y-86200000D03*
%TO.P,RP2,3,R2.2*%
%TO.N,~{RESET}*%
X232770000Y-88740000D03*
%TO.P,RP2,4,R3.2*%
%TO.N,RDY*%
X232770000Y-91280000D03*
%TO.P,RP2,5,R4.2*%
%TO.N,S0*%
X232770000Y-93820000D03*
%TO.P,RP2,6,R5.2*%
%TO.N,~{IRQ}*%
X232770000Y-96360000D03*
%TO.P,RP2,7,R6.2*%
%TO.N,~{NMI}*%
X232770000Y-98900000D03*
%TO.P,RP2,8*%
%TO.N,N/C*%
X232770000Y-101440000D03*
%TD*%
D19*
%TO.P,CN3,1,Pin_1*%
%TO.N,Net-(CN3-Pin_1)*%
X67140000Y-52920000D03*
%TO.P,CN3,2,Pin_2*%
%TO.N,GND*%
X57140000Y-50420000D03*
X69640000Y-50420000D03*
D22*
X59520000Y-45420000D03*
D19*
X57140000Y-40420000D03*
%TO.P,CN3,3,Pin_3*%
%TO.N,Net-(CN3-Pin_3)*%
X67140000Y-45420000D03*
%TO.P,CN3,4,Pin_4*%
%TO.N,Net-(CN3-Pin_4)*%
X69680000Y-40420000D03*
%TO.P,CN3,5,Pin_5*%
%TO.N,Net-(CN3-Pin_5)*%
X67140000Y-37920000D03*
%TO.P,CN3,6,Pin_6*%
%TO.N,~{DRV_RESET}*%
X72140000Y-45420000D03*
%TD*%
D17*
%TO.P,CN7,1,Pin_1*%
%TO.N,Net-(CN3-Pin_1)*%
X79950000Y-52110000D03*
D18*
%TO.P,CN7,2,Pin_2*%
%TO.N,GND*%
X79950000Y-49570000D03*
%TO.P,CN7,3,Pin_3*%
%TO.N,Net-(CN3-Pin_3)*%
X79950000Y-47030000D03*
%TO.P,CN7,4,Pin_4*%
%TO.N,Net-(CN3-Pin_4)*%
X79950000Y-44490000D03*
%TO.P,CN7,5,Pin_5*%
%TO.N,Net-(CN3-Pin_5)*%
X79950000Y-41950000D03*
%TO.P,CN7,6,Pin_6*%
%TO.N,~{DRV_RESET}*%
X79950000Y-39410000D03*
%TD*%
D15*
%TO.P,C18,1*%
%TO.N,12V*%
X90800000Y-135170000D03*
D16*
%TO.P,C18,2*%
%TO.N,GND*%
X90800000Y-130090000D03*
%TD*%
D10*
%TO.P,U6,1,E*%
%TO.N,A15*%
X129910000Y-114270000D03*
D11*
%TO.P,U6,2,A0*%
%TO.N,A13*%
X129910000Y-111730000D03*
%TO.P,U6,3,A1*%
%TO.N,A14*%
X129910000Y-109190000D03*
%TO.P,U6,4,O0*%
%TO.N,~{RAM_OE}*%
X129910000Y-106650000D03*
%TO.P,U6,5,O1*%
%TO.N,unconnected-(U6A-O1-Pad5)*%
X129910000Y-104110000D03*
%TO.P,U6,6,O2*%
%TO.N,~{CIA_SEL}*%
X129910000Y-101570000D03*
%TO.P,U6,7,O3*%
%TO.N,~{WDSEL}*%
X129910000Y-99030000D03*
%TO.P,U6,8,GND*%
%TO.N,GND*%
X129910000Y-96490000D03*
%TO.P,U6,9,O3*%
%TO.N,unconnected-(U6B-O3-Pad9)*%
X122290000Y-96490000D03*
%TO.P,U6,10,O2*%
%TO.N,unconnected-(U6B-O2-Pad10)*%
X122290000Y-99030000D03*
%TO.P,U6,11,O1*%
%TO.N,unconnected-(U6B-O1-Pad11)*%
X122290000Y-101570000D03*
%TO.P,U6,12,O0*%
%TO.N,~{RAMWE}*%
X122290000Y-104110000D03*
%TO.P,U6,13,A1*%
%TO.N,GND*%
X122290000Y-106650000D03*
%TO.P,U6,14,A0*%
%TO.N,R{slash}~{W}*%
X122290000Y-109190000D03*
%TO.P,U6,15,E*%
%TO.N,Net-(U6B-E)*%
X122290000Y-111730000D03*
%TO.P,U6,16,VCC*%
%TO.N,5V*%
X122290000Y-114270000D03*
%TD*%
D10*
%TO.P,U8,1*%
%TO.N,PHI0*%
X150640000Y-85180000D03*
D11*
%TO.P,U8,2*%
%TO.N,Net-(U6B-E)*%
X150640000Y-82640000D03*
%TO.P,U8,3*%
%TO.N,Net-(U4-WD)*%
X150640000Y-80100000D03*
%TO.P,U8,4*%
%TO.N,WRITEDATA*%
X150640000Y-77560000D03*
%TO.P,U8,5*%
%TO.N,Net-(U4-WG)*%
X150640000Y-75020000D03*
%TO.P,U8,6*%
%TO.N,WRITEGATE*%
X150640000Y-72480000D03*
%TO.P,U8,7,GND*%
%TO.N,GND*%
X150640000Y-69940000D03*
%TO.P,U8,8*%
%TO.N,DIRECTION*%
X143020000Y-69940000D03*
%TO.P,U8,9*%
%TO.N,Net-(U4-DIRC)*%
X143020000Y-72480000D03*
%TO.P,U8,10*%
%TO.N,STEP*%
X143020000Y-75020000D03*
%TO.P,U8,11*%
%TO.N,Net-(U4-STEP)*%
X143020000Y-77560000D03*
%TO.P,U8,12*%
%TO.N,unconnected-(U8-Pad12)*%
X143020000Y-80100000D03*
%TO.P,U8,13*%
%TO.N,unconnected-(U8-Pad13)*%
X143020000Y-82640000D03*
%TO.P,U8,14,VCC*%
%TO.N,5V*%
X143020000Y-85180000D03*
%TD*%
D14*
%TO.P,U2,1,A15*%
%TO.N,Net-(J5-Pin_1)*%
X179070000Y-132500000D03*
D13*
%TO.P,U2,2,A12*%
%TO.N,A12*%
X179070000Y-129960000D03*
%TO.P,U2,3,A7*%
%TO.N,A7*%
X179070000Y-127420000D03*
%TO.P,U2,4,A6*%
%TO.N,A6*%
X179070000Y-124880000D03*
%TO.P,U2,5,A5*%
%TO.N,A5*%
X179070000Y-122340000D03*
%TO.P,U2,6,A4*%
%TO.N,A4*%
X179070000Y-119800000D03*
%TO.P,U2,7,A3*%
%TO.N,A3*%
X179070000Y-117260000D03*
%TO.P,U2,8,A2*%
%TO.N,A2*%
X179070000Y-114720000D03*
%TO.P,U2,9,A1*%
%TO.N,A1*%
X179070000Y-112180000D03*
%TO.P,U2,10,A0*%
%TO.N,A0*%
X179070000Y-109640000D03*
%TO.P,U2,11,D0*%
%TO.N,D0*%
X179070000Y-107100000D03*
%TO.P,U2,12,D1*%
%TO.N,D1*%
X179070000Y-104560000D03*
%TO.P,U2,13,D2*%
%TO.N,D2*%
X179070000Y-102020000D03*
%TO.P,U2,14,GND*%
%TO.N,GND*%
X179070000Y-99480000D03*
%TO.P,U2,15,D3*%
%TO.N,D3*%
X163830000Y-99480000D03*
%TO.P,U2,16,D4*%
%TO.N,D4*%
X163830000Y-102020000D03*
%TO.P,U2,17,D5*%
%TO.N,D5*%
X163830000Y-104560000D03*
%TO.P,U2,18,D6*%
%TO.N,D6*%
X163830000Y-107100000D03*
%TO.P,U2,19,D7*%
%TO.N,D7*%
X163830000Y-109640000D03*
%TO.P,U2,20,~{CE}*%
%TO.N,GND*%
X163830000Y-112180000D03*
%TO.P,U2,21,A10*%
%TO.N,A10*%
X163830000Y-114720000D03*
%TO.P,U2,22,~{OE}*%
%TO.N,~{ROM_OE}*%
X163830000Y-117260000D03*
%TO.P,U2,23,A11*%
%TO.N,A11*%
X163830000Y-119800000D03*
%TO.P,U2,24,A9*%
%TO.N,A9*%
X163830000Y-122340000D03*
%TO.P,U2,25,A8*%
%TO.N,A8*%
X163830000Y-124880000D03*
%TO.P,U2,26,A13*%
%TO.N,A13*%
X163830000Y-127420000D03*
%TO.P,U2,27,A14*%
%TO.N,A14*%
X163830000Y-129960000D03*
%TO.P,U2,28,VCC*%
%TO.N,5V*%
X163830000Y-132500000D03*
%TD*%
D27*
%TO.P,J90,1*%
%TO.N,12VIN*%
X66310000Y-117040000D03*
D28*
%TO.P,J90,2*%
%TO.N,GND*%
X60310000Y-117040000D03*
D29*
%TO.P,J90,3*%
%TO.N,N/C*%
X63310000Y-121740000D03*
%TD*%
D14*
%TO.P,RP11,1,R1*%
%TO.N,5V*%
X107500000Y-118070000D03*
D13*
%TO.P,RP11,2,R1.2*%
%TO.N,unconnected-(RP11A-R1.2-Pad2)*%
X107500000Y-115530000D03*
%TO.P,RP11,3,R2.2*%
%TO.N,unconnected-(RP11B-R2.2-Pad3)*%
X107500000Y-112990000D03*
%TO.P,RP11,4,R3.2*%
%TO.N,Net-(RP11C-R3.2)*%
X107500000Y-110450000D03*
%TO.P,RP11,5,R4.2*%
%TO.N,~{ATN}*%
X107500000Y-107910000D03*
%TO.P,RP11,6,R5.2*%
%TO.N,FAST_CLK*%
X107500000Y-105370000D03*
%TO.P,RP11,7,R6.2*%
%TO.N,Net-(RP11F-R6.2)*%
X107500000Y-102830000D03*
%TO.P,RP11,8,R7.2*%
%TO.N,DATA*%
X107500000Y-100290000D03*
%TO.P,RP11,9,R8.2*%
%TO.N,INDEX*%
X107500000Y-97750000D03*
%TD*%
D12*
%TO.P,R6,1*%
%TO.N,5V*%
X145940000Y-134960000D03*
D13*
%TO.P,R6,2*%
%TO.N,Net-(J5-Pin_1)*%
X145940000Y-122260000D03*
%TD*%
D19*
%TO.P,CN4,1,Pin_1*%
%TO.N,Net-(CN3-Pin_1)*%
X66970000Y-74810000D03*
%TO.P,CN4,2,Pin_2*%
%TO.N,GND*%
X56970000Y-72310000D03*
X69470000Y-72310000D03*
D22*
X59350000Y-67310000D03*
D19*
X56970000Y-62310000D03*
%TO.P,CN4,3,Pin_3*%
%TO.N,Net-(CN3-Pin_3)*%
X66970000Y-67310000D03*
%TO.P,CN4,4,Pin_4*%
%TO.N,Net-(CN3-Pin_4)*%
X69510000Y-62310000D03*
%TO.P,CN4,5,Pin_5*%
%TO.N,Net-(CN3-Pin_5)*%
X66970000Y-59810000D03*
%TO.P,CN4,6,Pin_6*%
%TO.N,~{DRV_RESET}*%
X71970000Y-67310000D03*
%TD*%
D10*
%TO.P,U11,1*%
%TO.N,~{MOTOR}*%
X150510000Y-112800000D03*
D11*
%TO.P,U11,2*%
%TO.N,MOTOREN*%
X150510000Y-110260000D03*
%TO.P,U11,3*%
%TO.N,SIDE0*%
X150510000Y-107720000D03*
%TO.P,U11,4*%
%TO.N,SIDESELECT*%
X150510000Y-105180000D03*
%TO.P,U11,5*%
%TO.N,Net-(RP11C-R3.2)*%
X150510000Y-102640000D03*
%TO.P,U11,6*%
%TO.N,FAST_CLK*%
X150510000Y-100100000D03*
%TO.P,U11,7,GND*%
%TO.N,GND*%
X150510000Y-97560000D03*
%TO.P,U11,8*%
%TO.N,DATA*%
X142890000Y-97560000D03*
%TO.P,U11,9*%
%TO.N,Net-(RP11F-R6.2)*%
X142890000Y-100100000D03*
%TO.P,U11,10*%
%TO.N,unconnected-(U11-Pad10)*%
X142890000Y-102640000D03*
%TO.P,U11,11*%
%TO.N,5V*%
X142890000Y-105180000D03*
%TO.P,U11,12*%
%TO.N,DATA*%
X142890000Y-107720000D03*
%TO.P,U11,13*%
%TO.N,Net-(U11-Pad13)*%
X142890000Y-110260000D03*
%TO.P,U11,14,VCC*%
%TO.N,5V*%
X142890000Y-112800000D03*
%TD*%
D10*
%TO.P,U9,1*%
%TO.N,~{WDSEL}*%
X130830000Y-57630000D03*
D11*
%TO.P,U9,2*%
%TO.N,Net-(U7-Pad4)*%
X130830000Y-55090000D03*
%TO.P,U9,3*%
%TO.N,DATA*%
X130830000Y-52550000D03*
%TO.P,U9,4*%
%TO.N,DATA_IN*%
X130830000Y-50010000D03*
%TO.P,U9,5*%
%TO.N,SLOW_CLK*%
X130830000Y-47470000D03*
%TO.P,U9,6*%
%TO.N,CLK_IN*%
X130830000Y-44930000D03*
%TO.P,U9,7,GND*%
%TO.N,GND*%
X130830000Y-42390000D03*
%TO.P,U9,8*%
%TO.N,ATN_IN*%
X123210000Y-42390000D03*
%TO.P,U9,9*%
%TO.N,~{ATN}*%
X123210000Y-44930000D03*
%TO.P,U9,10*%
%TO.N,Net-(U12-Pad11)*%
X123210000Y-47470000D03*
%TO.P,U9,11*%
%TO.N,~{DRV_RESET}*%
X123210000Y-50010000D03*
%TO.P,U9,12*%
%TO.N,Net-(U12-Pad13)*%
X123210000Y-52550000D03*
%TO.P,U9,13*%
%TO.N,Net-(D1-A)*%
X123210000Y-55090000D03*
%TO.P,U9,14,VCC*%
%TO.N,5V*%
X123210000Y-57630000D03*
%TD*%
D25*
%TO.P,D2,1,K*%
%TO.N,Net-(CN9-Pin_1)*%
X126590000Y-140130000D03*
D26*
%TO.P,D2,2,A*%
%TO.N,Net-(CN9-Pin_2)*%
X126590000Y-142670000D03*
%TD*%
D12*
%TO.P,R9,1*%
%TO.N,Net-(U10-CP1..3)*%
X234660000Y-65300000D03*
D13*
%TO.P,R9,2*%
%TO.N,Net-(FB4-Pad2)*%
X221960000Y-65300000D03*
%TD*%
D15*
%TO.P,C22,1*%
%TO.N,5V*%
X97800000Y-135180000D03*
D16*
%TO.P,C22,2*%
%TO.N,GND*%
X97800000Y-130100000D03*
%TD*%
D30*
%TO.N,~{RAMWE}*%
X140200000Y-118900000D03*
X135350000Y-103250000D03*
%TO.N,5V*%
X95080000Y-61580000D03*
X94970000Y-65100000D03*
X126010000Y-62600000D03*
X198710000Y-92110000D03*
X205410000Y-92110000D03*
X167270000Y-41660000D03*
X126120000Y-44310000D03*
X125570000Y-112166400D03*
X166850000Y-95380000D03*
X125770000Y-90000000D03*
X146460000Y-40240000D03*
%TO.N,GND*%
X127130000Y-96880000D03*
X109140000Y-46090000D03*
X127850000Y-70090000D03*
X147070000Y-97590000D03*
X169130000Y-49680000D03*
X169080000Y-112180000D03*
X109140000Y-52590000D03*
X126940000Y-106800000D03*
X196360000Y-90290000D03*
X168910000Y-99530000D03*
%TO.N,Net-(D1-A)*%
X228560000Y-86010000D03*
X139150000Y-56160000D03*
X118310000Y-55090000D03*
X212250000Y-58330000D03*
%TO.N,INDEX*%
X111000000Y-96550000D03*
X157100000Y-94000000D03*
%TO.N,MOTOREN*%
X153100000Y-94700000D03*
%TO.N,STEP*%
X79330000Y-72980000D03*
%TO.N,WRITEDATA*%
X151930000Y-86805500D03*
%TO.N,WRITEGATE*%
X153250000Y-83830000D03*
%TO.N,TRACK00*%
X160310000Y-87530000D03*
%TO.N,WRITEPROTECT*%
X136500000Y-82800000D03*
X137950000Y-78400000D03*
X200020000Y-73200000D03*
X103682800Y-79959200D03*
X200545500Y-55210000D03*
%TO.N,READDATA*%
X134530000Y-63290000D03*
X130050000Y-67590000D03*
X114000000Y-80080000D03*
X116570000Y-70670000D03*
%TO.N,SIDESELECT*%
X150590000Y-94600000D03*
X78880000Y-94830000D03*
%TO.N,Net-(CN3-Pin_1)*%
X64150000Y-53740000D03*
%TO.N,~{RESET}*%
X171688400Y-52160000D03*
X192260000Y-88730000D03*
X173880000Y-75200000D03*
%TO.N,~{RDY}*%
X193485500Y-85190000D03*
X191130000Y-51030000D03*
X106200000Y-56420000D03*
X119950000Y-66050000D03*
X137700500Y-57410000D03*
X137740000Y-49070000D03*
X120990000Y-59670000D03*
%TO.N,~{DISKCHANGE}*%
X153390000Y-110190000D03*
X160270000Y-43450000D03*
X119280000Y-110400000D03*
X200101200Y-43845000D03*
%TO.N,PHI2*%
X181080000Y-53480000D03*
X192820000Y-74690000D03*
X136105500Y-54020000D03*
X136020000Y-75060000D03*
%TO.N,R{slash}~{W}*%
X140060000Y-107190000D03*
X139870000Y-78870000D03*
X225290000Y-78380000D03*
X139890000Y-85180000D03*
%TO.N,Net-(R12-Pad2)*%
X159690000Y-41650000D03*
%TO.N,Net-(R13-Pad1)*%
X141240000Y-56180000D03*
%TO.N,SP*%
X160000000Y-85905000D03*
X158350000Y-60350000D03*
%TO.N,SLOW_CLK*%
X101770000Y-53130000D03*
%TO.N,~{IRQ}*%
X195820000Y-97455500D03*
%TO.N,DATA*%
X142820000Y-94630000D03*
X99314000Y-61468000D03*
%TO.N,FAST_CLK*%
X102260000Y-48645000D03*
X119200000Y-101400000D03*
%TO.N,~{ATN}*%
X120300000Y-102830000D03*
X101940000Y-41470000D03*
%TO.N,Net-(U5-PA3)*%
X201120000Y-94610000D03*
%TO.N,Net-(U5-PA4)*%
X199950000Y-96620000D03*
%TO.N,A0*%
X174050000Y-79040000D03*
X174761157Y-85131643D03*
%TO.N,A1*%
X176549200Y-81400800D03*
%TO.N,A2*%
X183055000Y-81945000D03*
%TO.N,A3*%
X183780000Y-78850000D03*
%TO.N,A9*%
X208030000Y-123730000D03*
%TO.N,A10*%
X192480000Y-114750000D03*
X193920000Y-135050000D03*
%TO.N,A11*%
X206620000Y-121190000D03*
%TO.N,A12*%
X190790000Y-133655000D03*
%TO.N,A13*%
X198870000Y-127340000D03*
X198615600Y-139915600D03*
X158400000Y-117200000D03*
%TO.N,A14*%
X206955500Y-128920000D03*
X157042000Y-109912000D03*
%TO.N,A15*%
X215290400Y-95605600D03*
X129800000Y-89900000D03*
%TO.N,D7*%
X192310000Y-109670000D03*
%TO.N,D6*%
X192310000Y-107130000D03*
%TO.N,D5*%
X192270000Y-104590000D03*
%TO.N,D4*%
X220800000Y-117297200D03*
X207570000Y-104960000D03*
%TO.N,D3*%
X192770000Y-99510000D03*
%TO.N,D2*%
X215188800Y-93190000D03*
X207390000Y-94570000D03*
X192025500Y-100830000D03*
%TO.N,D1*%
X175800000Y-104160000D03*
X207370000Y-98400000D03*
%TO.N,D0*%
X208670000Y-100770000D03*
%TO.N,~{ROM_OE}*%
X133700000Y-91915000D03*
X155100000Y-94500000D03*
%TO.N,~{WD_CS}*%
X133800000Y-76650000D03*
%TO.N,~{DRV_RESET}*%
X92913200Y-94996000D03*
X111200000Y-38500000D03*
X117957600Y-50139600D03*
%TO.N,Net-(U4-STEP)*%
X145050000Y-65975000D03*
X159890000Y-52310000D03*
X151850000Y-62750000D03*
%TO.N,Net-(U4-DIRC)*%
X143305000Y-66765000D03*
X159000000Y-54700000D03*
X152600000Y-63700000D03*
%TO.N,Net-(U4-WG)*%
X159300000Y-72400000D03*
%TO.N,Net-(U4-WD)*%
X160765500Y-79410000D03*
%TO.N,SIDE0*%
X153450000Y-89640000D03*
%TO.N,~{MOTOR}*%
X154110000Y-125540000D03*
X155084500Y-109930000D03*
X200240000Y-98160000D03*
X156144200Y-104175800D03*
X198710000Y-136702800D03*
%TO.N,POWERLED*%
X140095000Y-72700000D03*
%TO.N,ACTLED*%
X156425500Y-83910000D03*
X200430000Y-79680000D03*
%TO.N,DATA_IN*%
X139300000Y-66850000D03*
%TO.N,DATA_OUT*%
X153750000Y-54800000D03*
%TO.N,CLK_IN*%
X200295000Y-47635000D03*
%TO.N,CLK_OUT*%
X201340000Y-51630000D03*
%TO.N,ATN_ACK*%
X121430000Y-68810000D03*
%TO.N,FAST_SER_DIR*%
X205670000Y-61120000D03*
%TO.N,ATN_IN*%
X120130000Y-72650000D03*
%TO.N,~{CIA_SEL}*%
X170140000Y-117490000D03*
X139590000Y-114760000D03*
X174290000Y-46635500D03*
%TO.N,~{FLAG}*%
X124170000Y-64575000D03*
X183785500Y-61220000D03*
%TO.N,Net-(U11-Pad13)*%
X140060000Y-110260000D03*
X138400000Y-72950000D03*
%TO.N,Net-(RP11C-R3.2)*%
X98180000Y-63110000D03*
%TD*%
D31*
%TO.N,GND*%
X153750000Y-142952800D02*
X153650000Y-143052800D01*
X153750000Y-140550000D02*
X153750000Y-142952800D01*
X156900000Y-143052800D02*
X153650000Y-143052800D01*
X153750000Y-140550000D02*
X153750000Y-141270000D01*
X134250000Y-130100000D02*
X97800000Y-130100000D01*
X147202800Y-143052800D02*
X134250000Y-130100000D01*
X153650000Y-143052800D02*
X147202800Y-143052800D01*
D32*
%TO.N,~{RAMWE}*%
X137600000Y-116300000D02*
X140200000Y-118900000D01*
X137600000Y-113350000D02*
X137600000Y-116300000D01*
X137600000Y-105500000D02*
X137600000Y-113350000D01*
X135350000Y-103250000D02*
X137600000Y-105500000D01*
D31*
%TO.N,GND*%
X156900000Y-143052800D02*
X200968400Y-143052800D01*
X224790000Y-143052800D02*
X227496400Y-140346400D01*
X200400000Y-143052800D02*
X224790000Y-143052800D01*
X227496400Y-140346400D02*
X229660800Y-138182000D01*
X200406000Y-139747200D02*
X200400000Y-139753200D01*
X200406000Y-136486000D02*
X200406000Y-139747200D01*
X200400000Y-139753200D02*
X200400000Y-143052800D01*
X200330000Y-136410000D02*
X200406000Y-136486000D01*
%TO.N,5V*%
X163830000Y-132500000D02*
X148400000Y-132500000D01*
X167270000Y-45400000D02*
X167130000Y-45540000D01*
X126010000Y-62600000D02*
X126010000Y-83670000D01*
X145680000Y-112780000D02*
X145680000Y-105180000D01*
X94970000Y-65100000D02*
X94970000Y-61690000D01*
X106470000Y-68720000D02*
X106470000Y-69990000D01*
X198710000Y-92110000D02*
X198620000Y-92200000D01*
X94410000Y-115020000D02*
X94970000Y-114460000D01*
X144440000Y-117900000D02*
X145680000Y-116660000D01*
X177000000Y-138510000D02*
X179100000Y-136410000D01*
X198710000Y-92110000D02*
X198640000Y-92040000D01*
X177000000Y-140470000D02*
X177000000Y-138510000D01*
X213680000Y-105080000D02*
X213680000Y-85020000D01*
X211020000Y-82360000D02*
X206860000Y-82360000D01*
X145680000Y-105180000D02*
X142890000Y-105180000D01*
X197550000Y-130900000D02*
X197560000Y-130910000D01*
X119320000Y-89970000D02*
X117190000Y-92100000D01*
X123050000Y-89970000D02*
X119320000Y-89970000D01*
X125570000Y-91060000D02*
X125770000Y-90860000D01*
X223520000Y-70815200D02*
X224230000Y-70105200D01*
X165010000Y-132500000D02*
X163830000Y-132500000D01*
X146500000Y-62450000D02*
X146500000Y-61350000D01*
X167260000Y-95790000D02*
X167260000Y-130250000D01*
X117190000Y-92100000D02*
X117190000Y-96460000D01*
X198620000Y-95290000D02*
X197550000Y-96360000D01*
X146500000Y-64550000D02*
X146500000Y-62450000D01*
X145680000Y-116660000D02*
X145680000Y-112780000D01*
X167130000Y-45540000D02*
X164050000Y-45540000D01*
X145680000Y-90080000D02*
X145680000Y-85090000D01*
X224230000Y-70105200D02*
X224230000Y-68400000D01*
X145660000Y-112800000D02*
X145680000Y-112780000D01*
X197550000Y-96360000D02*
X197550000Y-130900000D01*
X145680000Y-85090000D02*
X146500000Y-84270000D01*
X146500000Y-84270000D02*
X146500000Y-64550000D01*
X166850000Y-95380000D02*
X167260000Y-95790000D01*
X126010000Y-83670000D02*
X126010000Y-89760000D01*
X206030000Y-91490000D02*
X205410000Y-92110000D01*
X195330000Y-132530000D02*
X195940000Y-132530000D01*
X94970000Y-61690000D02*
X95080000Y-61580000D01*
X142890000Y-112800000D02*
X145660000Y-112800000D01*
X167260000Y-130250000D02*
X165010000Y-132500000D01*
X212230000Y-107110000D02*
X210340000Y-107110000D01*
X167270000Y-41660000D02*
X167270000Y-45400000D01*
X148400000Y-132500000D02*
X145940000Y-134960000D01*
X126010000Y-44420000D02*
X126120000Y-44310000D01*
X216635200Y-70815200D02*
X223520000Y-70815200D01*
X146500000Y-61350000D02*
X146460000Y-61310000D01*
X213680000Y-105080000D02*
X213680000Y-105660000D01*
X122990000Y-62600000D02*
X122990000Y-57850000D01*
X122940000Y-85350000D02*
X122940000Y-89860000D01*
X146460000Y-40240000D02*
X146460000Y-57302400D01*
X167270000Y-94960000D02*
X166850000Y-95380000D01*
X179100000Y-136410000D02*
X195330000Y-136410000D01*
X163830000Y-132500000D02*
X163830000Y-136630000D01*
X200250000Y-42030000D02*
X203630000Y-42030000D01*
X163450000Y-49560000D02*
X163510000Y-49620000D01*
X206030000Y-83190000D02*
X206030000Y-91490000D01*
X163450000Y-46140000D02*
X163450000Y-49560000D01*
X206860000Y-82360000D02*
X206030000Y-83190000D01*
X144983200Y-85090000D02*
X144893200Y-85180000D01*
X198640000Y-43640000D02*
X200250000Y-42030000D01*
X104170000Y-65300000D02*
X104170000Y-66420000D01*
X144893200Y-85180000D02*
X143020000Y-85180000D01*
X195940000Y-132530000D02*
X197560000Y-130910000D01*
X164050000Y-45540000D02*
X163450000Y-46140000D01*
X143120000Y-89940000D02*
X145540000Y-89940000D01*
X213680000Y-105660000D02*
X212230000Y-107110000D01*
X195330000Y-132530000D02*
X195330000Y-136410000D01*
X146460000Y-57302400D02*
X146460000Y-61310000D01*
X142980000Y-117900000D02*
X144440000Y-117900000D01*
X198620000Y-92200000D02*
X198620000Y-95290000D01*
X125570000Y-112166400D02*
X125570000Y-91060000D01*
X126010000Y-89760000D02*
X125770000Y-90000000D01*
X94970000Y-65100000D02*
X94970000Y-114460000D01*
X145540000Y-89940000D02*
X145680000Y-90080000D01*
X122940000Y-89860000D02*
X123050000Y-89970000D01*
X145680000Y-85090000D02*
X144983200Y-85090000D01*
X126010000Y-62600000D02*
X126010000Y-44420000D01*
X212850000Y-84190000D02*
X211020000Y-82360000D01*
X145680000Y-105180000D02*
X145680000Y-90080000D01*
X167270000Y-45400000D02*
X167270000Y-94960000D01*
X122990000Y-57850000D02*
X123210000Y-57630000D01*
X125770000Y-90860000D02*
X125770000Y-90000000D01*
X213680000Y-85020000D02*
X212850000Y-84190000D01*
X104170000Y-66420000D02*
X106470000Y-68720000D01*
X94410000Y-116673662D02*
X94410000Y-115020000D01*
X143310000Y-62490000D02*
X146460000Y-62490000D01*
X146460000Y-62490000D02*
X146500000Y-62450000D01*
X214480000Y-68660000D02*
X216635200Y-70815200D01*
X198640000Y-92040000D02*
X198640000Y-43640000D01*
X163830000Y-136630000D02*
X163780000Y-136680000D01*
X146242400Y-57520000D02*
X143080000Y-57520000D01*
X146460000Y-57302400D02*
X146242400Y-57520000D01*
%TO.N,GND*%
X233527600Y-73680000D02*
X234390000Y-74542400D01*
X59120000Y-104270000D02*
X59120000Y-104180000D01*
X82640000Y-112110000D02*
X82410000Y-111880000D01*
X127850000Y-70090000D02*
X127850000Y-62740000D01*
X87920000Y-111900000D02*
X83290000Y-111900000D01*
X231850000Y-68400000D02*
X231902000Y-68348000D01*
X148300000Y-42265600D02*
X148314400Y-42280000D01*
X203620000Y-95290000D02*
X203620000Y-98840000D01*
X222080000Y-40330000D02*
X217770000Y-40330000D01*
X126940000Y-106800000D02*
X126950000Y-106790000D01*
X109150000Y-42440000D02*
X111790000Y-42440000D01*
X148300000Y-43620000D02*
X148300000Y-42265600D01*
X83720000Y-89420000D02*
X83720000Y-86880000D01*
X56970000Y-69690000D02*
X59350000Y-67310000D01*
X111510000Y-69990000D02*
X111470000Y-69990000D01*
X220820000Y-73660000D02*
X214480000Y-73660000D01*
X83720000Y-86880000D02*
X83720000Y-84340000D01*
X148130000Y-36340000D02*
X148300000Y-36340000D01*
X229660800Y-125213600D02*
X236067600Y-118806800D01*
X82580000Y-123490000D02*
X84280000Y-123490000D01*
X148310000Y-43630000D02*
X148300000Y-43620000D01*
X56970000Y-72310000D02*
X56970000Y-69690000D01*
X224230000Y-73660000D02*
X224230000Y-76020000D01*
X91125200Y-54862401D02*
X91135199Y-54872400D01*
X57840000Y-48330000D02*
X57840000Y-48630000D01*
X91125200Y-50372400D02*
X91125200Y-54862401D01*
X83720000Y-102120000D02*
X83720000Y-99580000D01*
X82640000Y-114270000D02*
X82640000Y-112110000D01*
X126950000Y-97060000D02*
X127130000Y-96880000D01*
X84280000Y-123490000D02*
X86016338Y-121753662D01*
X73340000Y-119760000D02*
X73380000Y-119720000D01*
X169130000Y-49680000D02*
X169130000Y-99310000D01*
X203630000Y-95280000D02*
X203620000Y-95290000D01*
X228510000Y-137590000D02*
X225580000Y-137590000D01*
X109140000Y-39550000D02*
X109140000Y-42430000D01*
X126940000Y-106800000D02*
X126940000Y-117180000D01*
X56970000Y-62310000D02*
X56970000Y-64930000D01*
X57840000Y-48630000D02*
X57850000Y-48640000D01*
X196360000Y-90290000D02*
X196360000Y-86782944D01*
X83720000Y-84340000D02*
X83720000Y-81800000D01*
X111790000Y-62760000D02*
X113050000Y-62760000D01*
X231902000Y-58013600D02*
X234740000Y-55175600D01*
X113050000Y-62760000D02*
X113700000Y-63410000D01*
X127990000Y-62600000D02*
X127990000Y-42970000D01*
X112270000Y-75370000D02*
X112270000Y-77530000D01*
X111470000Y-69990000D02*
X111500000Y-70020000D01*
X83720000Y-109740000D02*
X83720000Y-107200000D01*
X91135199Y-54872400D02*
X91135200Y-59334400D01*
X91920000Y-119213662D02*
X91920000Y-115900000D01*
X231902000Y-68348000D02*
X231902000Y-58013600D01*
X196360000Y-86782944D02*
X196400000Y-86742944D01*
X60230000Y-45940000D02*
X57840000Y-48330000D01*
X148159200Y-69940000D02*
X150640000Y-69940000D01*
X169080000Y-112180000D02*
X168780000Y-112480000D01*
X57850000Y-50940000D02*
X74690000Y-50940000D01*
X196400000Y-37260000D02*
X195480000Y-36340000D01*
X168910000Y-112010000D02*
X168910000Y-99530000D01*
X56970000Y-64930000D02*
X59350000Y-67310000D01*
X83720000Y-71640000D02*
X83720000Y-69100000D01*
X92040000Y-96561200D02*
X92040000Y-96990000D01*
X127990000Y-42970000D02*
X128570000Y-42390000D01*
X58940000Y-72310000D02*
X69470000Y-72310000D01*
X112270000Y-77530000D02*
X112110000Y-77690000D01*
X148314400Y-42280000D02*
X150700000Y-42280000D01*
X60040000Y-43130000D02*
X60040000Y-45750000D01*
X128570000Y-42390000D02*
X130830000Y-42390000D01*
X128050000Y-88750000D02*
X128050000Y-89970000D01*
X109140000Y-52590000D02*
X109140000Y-56960000D01*
X91920000Y-115900000D02*
X87920000Y-111900000D01*
X73380000Y-119720000D02*
X75915000Y-119720000D01*
X148120000Y-62680000D02*
X148310000Y-62490000D01*
X73650000Y-105440000D02*
X80090000Y-111880000D01*
X109730000Y-62760000D02*
X111790000Y-62760000D01*
X229660800Y-134620000D02*
X229660800Y-125213600D01*
X91105200Y-44175200D02*
X93820000Y-41460400D01*
X155532800Y-143052800D02*
X156900000Y-143052800D01*
X236067600Y-76777600D02*
X235310000Y-76020000D01*
X69840000Y-122040000D02*
X72120000Y-119760000D01*
X68320000Y-105440000D02*
X73650000Y-105440000D01*
X209771200Y-36340000D02*
X195480000Y-36340000D01*
X153750000Y-139380000D02*
X153750000Y-140550000D01*
X109170000Y-62200000D02*
X109730000Y-62760000D01*
X195480000Y-36340000D02*
X190680000Y-36340000D01*
X130830000Y-36340000D02*
X94040000Y-36340000D01*
X83720000Y-94500000D02*
X83720000Y-93200000D01*
X231850000Y-68400000D02*
X231850000Y-73628000D01*
X94410000Y-119213662D02*
X94410000Y-121753662D01*
X229660800Y-138182000D02*
X229660800Y-134620000D01*
X109140000Y-39550000D02*
X109140000Y-36360000D01*
X169080000Y-112180000D02*
X168910000Y-112010000D01*
X128050000Y-90450000D02*
X128050000Y-89970000D01*
X169130000Y-49680000D02*
X169130000Y-45620000D01*
X90800000Y-130090000D02*
X95790000Y-130090000D01*
X97790000Y-130090000D02*
X97800000Y-130100000D01*
X56970000Y-55430000D02*
X56970000Y-62310000D01*
X231850000Y-68400000D02*
X229310000Y-68400000D01*
X111500000Y-74600000D02*
X112270000Y-75370000D01*
X130830000Y-40190000D02*
X130830000Y-36340000D01*
X166350000Y-36340000D02*
X148130000Y-36340000D01*
X81180000Y-123490000D02*
X77410000Y-119720000D01*
X127850000Y-70090000D02*
X127850000Y-88550000D01*
X127130000Y-91370000D02*
X128050000Y-90450000D01*
X58350000Y-38930000D02*
X58350000Y-40440000D01*
X113700000Y-67800000D02*
X111510000Y-69990000D01*
X217770000Y-40330000D02*
X217700000Y-40260000D01*
X196400000Y-86742944D02*
X196400000Y-37260000D01*
X127850000Y-62740000D02*
X127990000Y-62600000D01*
X57850000Y-48640000D02*
X57850000Y-50940000D01*
X224230000Y-73660000D02*
X228210000Y-73660000D01*
X56970000Y-55430000D02*
X57140000Y-55260000D01*
X109140000Y-56960000D02*
X109860000Y-57680000D01*
X148100000Y-62700000D02*
X148310000Y-62490000D01*
X74690000Y-50940000D02*
X76060000Y-49570000D01*
X60290000Y-105440000D02*
X60290000Y-116600000D01*
X236067600Y-118806800D02*
X236067600Y-76777600D01*
X83720000Y-93200000D02*
X88678800Y-93200000D01*
X148120000Y-69900800D02*
X148159200Y-69940000D01*
X148310000Y-62490000D02*
X148310000Y-43630000D01*
X58940000Y-72310000D02*
X56970000Y-72310000D01*
X57140000Y-55260000D02*
X57140000Y-50420000D01*
X68320000Y-105440000D02*
X61550000Y-105440000D01*
X228210000Y-73660000D02*
X228230000Y-73680000D01*
X169050000Y-45540000D02*
X169050000Y-36360000D01*
X86016338Y-121753662D02*
X88680000Y-121753662D01*
X229102000Y-138182000D02*
X228510000Y-137590000D01*
X109140000Y-42430000D02*
X109150000Y-42440000D01*
X83720000Y-79260000D02*
X83720000Y-76720000D01*
X234390000Y-74542400D02*
X234390000Y-76020000D01*
X109170000Y-56990000D02*
X109170000Y-62200000D01*
X213691200Y-40260000D02*
X209771200Y-36340000D01*
X83270000Y-111880000D02*
X83720000Y-111430000D01*
X74140000Y-99620000D02*
X68320000Y-105440000D01*
X91150000Y-36250000D02*
X90800000Y-35900000D01*
X94410000Y-121753662D02*
X88680000Y-121753662D01*
X229660800Y-138182000D02*
X229102000Y-138182000D01*
X217700000Y-40260000D02*
X213691200Y-40260000D01*
X95790000Y-130090000D02*
X97790000Y-130090000D01*
X148130000Y-36340000D02*
X130830000Y-36340000D01*
X58350000Y-40440000D02*
X57850000Y-40940000D01*
X61550000Y-105440000D02*
X60290000Y-105440000D01*
X93820000Y-41460400D02*
X93820000Y-36380000D01*
X83720000Y-93200000D02*
X83720000Y-91960000D01*
X168780000Y-112480000D02*
X168780000Y-136680000D01*
X169130000Y-99310000D02*
X168910000Y-99530000D01*
X91105200Y-46012400D02*
X91105200Y-50352400D01*
X83720000Y-97040000D02*
X83720000Y-94500000D01*
X126950000Y-106790000D02*
X126950000Y-97060000D01*
X60040000Y-45750000D02*
X60230000Y-45940000D01*
X59120000Y-104180000D02*
X57330000Y-102390000D01*
X83720000Y-76720000D02*
X83720000Y-74180000D01*
X80090000Y-111880000D02*
X82410000Y-111880000D01*
X113700000Y-63410000D02*
X113700000Y-67800000D01*
X203620000Y-98840000D02*
X202950000Y-99510000D01*
X83720000Y-81800000D02*
X83720000Y-79260000D01*
X147980000Y-117900000D02*
X147070000Y-116990000D01*
X96990000Y-126300000D02*
X95790000Y-127500000D01*
X60290000Y-116600000D02*
X60560000Y-116870000D01*
X91920000Y-119213662D02*
X88680000Y-119213662D01*
X169050000Y-36360000D02*
X169030000Y-36340000D01*
X77410000Y-119720000D02*
X75915000Y-119720000D01*
X95900000Y-121753662D02*
X94410000Y-121753662D01*
X169030000Y-36340000D02*
X166350000Y-36340000D01*
X70430000Y-72700000D02*
X74140000Y-76410000D01*
X91105200Y-50352400D02*
X91125200Y-50372400D01*
X94410000Y-119213662D02*
X91920000Y-119213662D01*
X109860000Y-57680000D02*
X111790000Y-57680000D01*
X61380000Y-35900000D02*
X58350000Y-38930000D01*
X83290000Y-111900000D02*
X83270000Y-111880000D01*
X111500000Y-70020000D02*
X111500000Y-74600000D01*
X91105200Y-46012400D02*
X91105200Y-44175200D01*
X235310000Y-76020000D02*
X234390000Y-76020000D01*
X56510000Y-102100000D02*
X56510000Y-99560000D01*
X96990000Y-126300000D02*
X96990000Y-122843662D01*
X130830000Y-42390000D02*
X130830000Y-40190000D01*
X148120000Y-69900800D02*
X148120000Y-62680000D01*
X83720000Y-104660000D02*
X83720000Y-102120000D01*
X231850000Y-73628000D02*
X231902000Y-73680000D01*
X82410000Y-111880000D02*
X83270000Y-111880000D01*
X203630000Y-90290000D02*
X203630000Y-95280000D01*
X83720000Y-107200000D02*
X83720000Y-104660000D01*
X83720000Y-99580000D02*
X83720000Y-97040000D01*
X190680000Y-36340000D02*
X169030000Y-36340000D01*
X60290000Y-105440000D02*
X59120000Y-104270000D01*
X234740000Y-55175600D02*
X234740000Y-53620000D01*
X83720000Y-74180000D02*
X83720000Y-71640000D01*
X127850000Y-88550000D02*
X128050000Y-88750000D01*
X76060000Y-49570000D02*
X79950000Y-49570000D01*
X96990000Y-122843662D02*
X95900000Y-121753662D01*
X88678800Y-93200000D02*
X92040000Y-96561200D01*
X93950000Y-36250000D02*
X91150000Y-36250000D01*
X148120000Y-89940000D02*
X148120000Y-69900800D01*
X95790000Y-127500000D02*
X95790000Y-130090000D01*
X127130000Y-96880000D02*
X127130000Y-91370000D01*
X74140000Y-76410000D02*
X74140000Y-99620000D01*
X93820000Y-36380000D02*
X93950000Y-36250000D01*
X226974400Y-140868400D02*
X227496400Y-140346400D01*
X83720000Y-111430000D02*
X83720000Y-109740000D01*
X109140000Y-42430000D02*
X109140000Y-52590000D01*
X90800000Y-35900000D02*
X61380000Y-35900000D01*
X220820000Y-73660000D02*
X224230000Y-73660000D01*
X148300000Y-42265600D02*
X148300000Y-36340000D01*
X92040000Y-96990000D02*
X92040000Y-99530000D01*
X83720000Y-91960000D02*
X83720000Y-89420000D01*
X147070000Y-116990000D02*
X147070000Y-90990000D01*
X72120000Y-119760000D02*
X73340000Y-119760000D01*
X228230000Y-73680000D02*
X231902000Y-73680000D01*
X210340000Y-89330000D02*
X210340000Y-86680000D01*
X109140000Y-56960000D02*
X109170000Y-56990000D01*
X82580000Y-123490000D02*
X81180000Y-123490000D01*
X210340000Y-86680000D02*
X207850000Y-84190000D01*
X169130000Y-45620000D02*
X169050000Y-45540000D01*
X231902000Y-73680000D02*
X233527600Y-73680000D01*
X147070000Y-90990000D02*
X148120000Y-89940000D01*
X126940000Y-117180000D02*
X127500000Y-117740000D01*
X57850000Y-40940000D02*
X60040000Y-43130000D01*
%TO.N,Net-(X1-Vcc)*%
X217700000Y-45260000D02*
X214150000Y-45260000D01*
X214150000Y-45260000D02*
X208890000Y-50520000D01*
X222080000Y-45330000D02*
X217770000Y-45330000D01*
X208890000Y-50520000D02*
X208890000Y-53050000D01*
X226450000Y-45330000D02*
X227120000Y-46000000D01*
X217770000Y-45330000D02*
X217700000Y-45260000D01*
X222080000Y-45330000D02*
X226450000Y-45330000D01*
D32*
%TO.N,Net-(D1-A)*%
X217880000Y-78380000D02*
X216070000Y-76570000D01*
X118310000Y-55090000D02*
X118310000Y-71240000D01*
X139760000Y-49080000D02*
X139760000Y-55550000D01*
X143080000Y-47360000D02*
X141480000Y-47360000D01*
X118310000Y-71240000D02*
X117730000Y-71820000D01*
X117730000Y-71820000D02*
X117730000Y-77150000D01*
X117190000Y-88840000D02*
X117190000Y-77690000D01*
X220930000Y-78380000D02*
X217880000Y-78380000D01*
X212250000Y-75580000D02*
X212250000Y-58330000D01*
X228560000Y-86010000D02*
X220930000Y-78380000D01*
X216070000Y-76570000D02*
X213240000Y-76570000D01*
X213240000Y-76570000D02*
X212250000Y-75580000D01*
X139760000Y-55550000D02*
X139150000Y-56160000D01*
X117730000Y-77150000D02*
X117190000Y-77690000D01*
X141480000Y-47360000D02*
X139760000Y-49080000D01*
%TO.N,INDEX*%
X109800000Y-97750000D02*
X107500000Y-97750000D01*
X166060000Y-73790000D02*
X164750000Y-72480000D01*
X166060000Y-84840000D02*
X166060000Y-73790000D01*
X157100000Y-93800000D02*
X166060000Y-84840000D01*
X164750000Y-72480000D02*
X163510000Y-72480000D01*
X157100000Y-94000000D02*
X157100000Y-93800000D01*
X111000000Y-96550000D02*
X109800000Y-97750000D01*
%TO.N,MOTOREN*%
X153350000Y-94950000D02*
X153350000Y-107480000D01*
X150570000Y-110260000D02*
X150510000Y-110260000D01*
X153100000Y-94700000D02*
X153350000Y-94950000D01*
X153350000Y-107480000D02*
X150570000Y-110260000D01*
%TO.N,STEP*%
X79930000Y-86880000D02*
X81180000Y-86880000D01*
X79330000Y-72980000D02*
X78640000Y-73670000D01*
X78640000Y-73670000D02*
X78640000Y-85590000D01*
X78640000Y-85590000D02*
X79930000Y-86880000D01*
%TO.N,WRITEDATA*%
X152200000Y-86535500D02*
X152200000Y-83160000D01*
X152165000Y-78385000D02*
X151340000Y-77560000D01*
X151340000Y-77560000D02*
X150640000Y-77560000D01*
X151930000Y-86805500D02*
X152200000Y-86535500D01*
X152165000Y-83125000D02*
X152165000Y-78385000D01*
X152200000Y-83160000D02*
X152165000Y-83125000D01*
%TO.N,WRITEGATE*%
X151870000Y-72480000D02*
X152610000Y-73220000D01*
X152610000Y-73220000D02*
X153250000Y-73860000D01*
X150640000Y-72480000D02*
X151870000Y-72480000D01*
X153250000Y-73860000D02*
X153250000Y-83830000D01*
%TO.N,TRACK00*%
X161490000Y-70390000D02*
X161940000Y-69940000D01*
X161490000Y-86350000D02*
X161490000Y-70390000D01*
X161940000Y-69940000D02*
X163510000Y-69940000D01*
X160310000Y-87530000D02*
X161490000Y-86350000D01*
%TO.N,WRITEPROTECT*%
X137950000Y-81350000D02*
X137950000Y-78400000D01*
X106250000Y-82490000D02*
X107490000Y-82490000D01*
X200545500Y-55210000D02*
X200580000Y-55244500D01*
X200580000Y-55244500D02*
X200580000Y-72640000D01*
X104801301Y-81077701D02*
X104837701Y-81077701D01*
X104837701Y-81077701D02*
X106250000Y-82490000D01*
X136500000Y-82800000D02*
X137950000Y-81350000D01*
X103682800Y-79959200D02*
X104801301Y-81077701D01*
X200580000Y-72640000D02*
X200020000Y-73200000D01*
%TO.N,READDATA*%
X114438479Y-72801521D02*
X114438479Y-75388479D01*
X114440000Y-75390000D02*
X114440000Y-79640000D01*
X134550000Y-63310000D02*
X134530000Y-63290000D01*
X134550000Y-63350000D02*
X134550000Y-63310000D01*
X130310000Y-67590000D02*
X134550000Y-63350000D01*
X116570000Y-70670000D02*
X114438479Y-72801521D01*
X114438479Y-75388479D02*
X114440000Y-75390000D01*
X130050000Y-67590000D02*
X130310000Y-67590000D01*
X114440000Y-79640000D02*
X114000000Y-80080000D01*
%TO.N,SIDESELECT*%
X77750000Y-93700000D02*
X77750000Y-72750000D01*
X150510000Y-105180000D02*
X151340000Y-105180000D01*
X78860000Y-71640000D02*
X81180000Y-71640000D01*
X152190000Y-96220000D02*
X150590000Y-94620000D01*
X78880000Y-94830000D02*
X77750000Y-93700000D01*
X151340000Y-105180000D02*
X152190000Y-104330000D01*
X150590000Y-94620000D02*
X150590000Y-94600000D01*
X77750000Y-72750000D02*
X78860000Y-71640000D01*
X152190000Y-104330000D02*
X152190000Y-96220000D01*
%TO.N,Net-(CN3-Pin_1)*%
X84402000Y-52110000D02*
X75890000Y-52110000D01*
X75170000Y-52830000D02*
X75080000Y-52920000D01*
X64970000Y-52920000D02*
X64150000Y-53740000D01*
X85528000Y-50984000D02*
X84402000Y-52110000D01*
X75170000Y-52830000D02*
X75590000Y-52410000D01*
X67140000Y-52920000D02*
X64970000Y-52920000D01*
X85996000Y-50516000D02*
X85528000Y-50984000D01*
X75080000Y-52920000D02*
X67140000Y-52920000D01*
X88585200Y-49864400D02*
X86647600Y-49864400D01*
X75890000Y-52110000D02*
X75590000Y-52410000D01*
X84452000Y-52060000D02*
X85996000Y-50516000D01*
X86647600Y-49864400D02*
X85528000Y-50984000D01*
%TO.N,Net-(CN3-Pin_3)*%
X76310000Y-46980000D02*
X75990000Y-46980000D01*
X75940000Y-47030000D02*
X81090000Y-47030000D01*
X75990000Y-46980000D02*
X75390000Y-47580000D01*
X74630000Y-48340000D02*
X71360000Y-48340000D01*
X75390000Y-47580000D02*
X74630000Y-48340000D01*
X85152000Y-46980000D02*
X76310000Y-46980000D01*
X88565200Y-45504400D02*
X86627600Y-45504400D01*
X75390000Y-47580000D02*
X75940000Y-47030000D01*
X76360000Y-47030000D02*
X79950000Y-47030000D01*
X76310000Y-46980000D02*
X76360000Y-47030000D01*
X86627600Y-45504400D02*
X85152000Y-46980000D01*
X68960000Y-45940000D02*
X67850000Y-45940000D01*
X81090000Y-47030000D02*
X85102000Y-47030000D01*
X71360000Y-48340000D02*
X68960000Y-45940000D01*
X79950000Y-47030000D02*
X85102000Y-47030000D01*
%TO.N,Net-(CN3-Pin_4)*%
X79950000Y-44490000D02*
X76670000Y-44490000D01*
X84851999Y-56170000D02*
X84850000Y-56170000D01*
X86657599Y-54364400D02*
X84851999Y-56170000D01*
X78710000Y-62310000D02*
X69510000Y-62310000D01*
X70390000Y-40940000D02*
X73120000Y-40940000D01*
X84850000Y-56170000D02*
X78710000Y-62310000D01*
X88595199Y-54364400D02*
X86657599Y-54364400D01*
X73120000Y-40940000D02*
X76670000Y-44490000D01*
%TO.N,Net-(CN3-Pin_5)*%
X80651200Y-64840000D02*
X86664800Y-58826400D01*
X73210000Y-38440000D02*
X76720000Y-41950000D01*
X66970000Y-59810000D02*
X66970000Y-62720000D01*
X79950000Y-41950000D02*
X76720000Y-41950000D01*
X66970000Y-62720000D02*
X69090000Y-64840000D01*
X69090000Y-64840000D02*
X80651200Y-64840000D01*
X67850000Y-38440000D02*
X73210000Y-38440000D01*
X86664800Y-58826400D02*
X88595200Y-58826400D01*
%TO.N,~{RESET}*%
X189970000Y-76630000D02*
X188390000Y-75050000D01*
X171692400Y-52160000D02*
X173780000Y-54247600D01*
X192260000Y-88730000D02*
X189970000Y-86440000D01*
X173780000Y-75100000D02*
X173880000Y-75200000D01*
X189970000Y-86440000D02*
X189970000Y-76630000D01*
X173780000Y-54247600D02*
X173780000Y-75100000D01*
X171688400Y-52160000D02*
X171692400Y-52160000D01*
%TO.N,Net-(U1-R{slash}~{W})*%
X229730000Y-104570000D02*
X229760000Y-104540000D01*
X225580000Y-104570000D02*
X229730000Y-104570000D01*
%TO.N,Net-(FB2-Pad1)*%
X210520000Y-64820000D02*
X210550000Y-64790000D01*
X206910000Y-64820000D02*
X210520000Y-64820000D01*
%TO.N,Net-(U1-02)*%
X215320000Y-82260000D02*
X210550000Y-77490000D01*
X225580000Y-91870000D02*
X219040000Y-91870000D01*
X219040000Y-91870000D02*
X215320000Y-88150000D01*
X215320000Y-88150000D02*
X215320000Y-82260000D01*
%TO.N,Net-(X1-OUT)*%
X231130000Y-49610000D02*
X234740000Y-46000000D01*
X222140000Y-49610000D02*
X231130000Y-49610000D01*
%TO.N,Net-(FB5-Pad1)*%
X216710000Y-79770000D02*
X216690000Y-79750000D01*
X216710000Y-83720000D02*
X216710000Y-79770000D01*
%TO.N,Net-(U10-Q3)*%
X226770000Y-76880000D02*
X229390000Y-79500000D01*
X229390000Y-79500000D02*
X229390000Y-79750000D01*
X226770000Y-76020000D02*
X226770000Y-76880000D01*
%TO.N,~{RDY}*%
X137670000Y-49140000D02*
X137740000Y-49070000D01*
X109350000Y-76670000D02*
X108610000Y-77410000D01*
X121030000Y-59710000D02*
X120990000Y-59670000D01*
X193485500Y-85190000D02*
X193485500Y-82084500D01*
X137700500Y-57410000D02*
X137670000Y-57379500D01*
X105695000Y-65245000D02*
X108410000Y-67960000D01*
X108410000Y-67960000D02*
X108410000Y-72160000D01*
X109350000Y-73100000D02*
X109350000Y-76670000D01*
X193590000Y-81980000D02*
X193590000Y-53490000D01*
X121030000Y-64970000D02*
X121030000Y-59710000D01*
X193590000Y-53490000D02*
X191130000Y-51030000D01*
X137670000Y-57379500D02*
X137670000Y-49140000D01*
X105695000Y-56925000D02*
X105695000Y-65245000D01*
X119950000Y-66050000D02*
X121030000Y-64970000D01*
X193485500Y-82084500D02*
X193590000Y-81980000D01*
X106200000Y-56420000D02*
X105695000Y-56925000D01*
X108410000Y-72160000D02*
X109350000Y-73100000D01*
X108610000Y-77410000D02*
X107490000Y-77410000D01*
%TO.N,~{DISKCHANGE}*%
X205340000Y-50970000D02*
X206840000Y-52470000D01*
X206840000Y-62500000D02*
X205580000Y-63760000D01*
X160750000Y-43930000D02*
X160750000Y-54400000D01*
X200101200Y-43845000D02*
X201150000Y-44893800D01*
X160270000Y-43450000D02*
X160750000Y-43930000D01*
X93770000Y-71900000D02*
X93770000Y-103540000D01*
X114470000Y-110420000D02*
X113320000Y-109270000D01*
X201150000Y-49780000D02*
X202340000Y-50970000D01*
X153880000Y-109700000D02*
X153390000Y-110190000D01*
X157150000Y-58000000D02*
X157150000Y-87750000D01*
X119260000Y-110420000D02*
X114470000Y-110420000D01*
X157150000Y-87750000D02*
X153880000Y-91020000D01*
X201150000Y-44893800D02*
X201150000Y-49780000D01*
X153880000Y-91020000D02*
X153880000Y-109700000D01*
X205580000Y-68020000D02*
X203630000Y-69970000D01*
X119280000Y-110400000D02*
X119260000Y-110420000D01*
X205580000Y-63760000D02*
X205580000Y-68020000D01*
X92450000Y-104860000D02*
X92450000Y-106660000D01*
X160750000Y-54400000D02*
X157150000Y-58000000D01*
X92510000Y-70640000D02*
X93770000Y-71900000D01*
X202340000Y-50970000D02*
X205340000Y-50970000D01*
X93770000Y-103540000D02*
X92450000Y-104860000D01*
X206840000Y-52470000D02*
X206840000Y-62500000D01*
%TO.N,Net-(JP1-A)*%
X183790000Y-41610000D02*
X183790000Y-44750000D01*
X183790000Y-44750000D02*
X183620000Y-44920000D01*
%TO.N,PHI2*%
X192820000Y-74690000D02*
X192074800Y-73944800D01*
X190120000Y-52190000D02*
X188390000Y-52190000D01*
X181080000Y-44920000D02*
X181080000Y-53480000D01*
X136020000Y-75060000D02*
X136110000Y-74970000D01*
X192074800Y-73944800D02*
X192074800Y-54144800D01*
X192074800Y-54144800D02*
X190120000Y-52190000D01*
X136110000Y-74970000D02*
X136110000Y-54024500D01*
X188390000Y-52190000D02*
X189340000Y-52190000D01*
X136110000Y-54024500D02*
X136105500Y-54020000D01*
%TO.N,R{slash}~{W}*%
X181806000Y-53780720D02*
X181380720Y-54206000D01*
X140060000Y-107190000D02*
X139890000Y-107020000D01*
X226050000Y-78380000D02*
X230960000Y-83290000D01*
X181150000Y-54206000D02*
X181150000Y-79352400D01*
X180402400Y-80100000D02*
X178750000Y-80100000D01*
X181531000Y-52904280D02*
X181806000Y-53179280D01*
X139890000Y-78890000D02*
X139870000Y-78870000D01*
X139890000Y-85180000D02*
X139890000Y-78890000D01*
X188390000Y-44570000D02*
X187560000Y-44570000D01*
X187560000Y-44570000D02*
X181531000Y-50599000D01*
X181380720Y-54206000D02*
X181150000Y-54206000D01*
X139890000Y-107020000D02*
X139890000Y-85180000D01*
X230960000Y-83290000D02*
X230960000Y-102020000D01*
X230960000Y-102020000D02*
X233500000Y-104560000D01*
X181806000Y-53179280D02*
X181806000Y-53780720D01*
X225290000Y-78380000D02*
X226050000Y-78380000D01*
X181531000Y-50599000D02*
X181531000Y-52904280D01*
X181150000Y-79352400D02*
X180402400Y-80100000D01*
%TO.N,Net-(U6B-E)*%
X149600000Y-88000000D02*
X149600000Y-92070000D01*
X148340000Y-123310000D02*
X148340000Y-121130000D01*
X147370000Y-120160000D02*
X125600000Y-120160000D01*
X150640000Y-82640000D02*
X149870000Y-82640000D01*
X149210000Y-124180000D02*
X148340000Y-123310000D01*
X150510000Y-124180000D02*
X149210000Y-124180000D01*
X124480000Y-112650000D02*
X123560000Y-111730000D01*
X148340000Y-121130000D02*
X147370000Y-120160000D01*
X148350000Y-96450000D02*
X148350000Y-114820000D01*
X148900000Y-92770000D02*
X148900000Y-95900000D01*
X151420000Y-123270000D02*
X150510000Y-124180000D01*
X123560000Y-111730000D02*
X122290000Y-111730000D01*
X148960000Y-83550000D02*
X148960000Y-87360000D01*
X149870000Y-82640000D02*
X148960000Y-83550000D01*
X125600000Y-120160000D02*
X124480000Y-119040000D01*
X151420000Y-117890000D02*
X151420000Y-123270000D01*
X124480000Y-119040000D02*
X124480000Y-112650000D01*
X148900000Y-95900000D02*
X148350000Y-96450000D01*
X148350000Y-114820000D02*
X151420000Y-117890000D01*
X149600000Y-92070000D02*
X148900000Y-92770000D01*
X148960000Y-87360000D02*
X149600000Y-88000000D01*
%TO.N,Net-(U10-CP1..3)*%
X234390000Y-65570000D02*
X234660000Y-65300000D01*
X234390000Y-68400000D02*
X234390000Y-65570000D01*
%TO.N,PHI0*%
X227060000Y-96950000D02*
X225580000Y-96950000D01*
X229410000Y-94600000D02*
X227060000Y-96950000D01*
X229410000Y-83720000D02*
X229410000Y-94600000D01*
%TO.N,Net-(R12-Pad2)*%
X157600000Y-88250000D02*
X157600000Y-58700000D01*
X154360000Y-115690000D02*
X154360000Y-91490000D01*
X161200000Y-43160000D02*
X159690000Y-41650000D01*
X154360000Y-91490000D02*
X157600000Y-88250000D01*
X153520000Y-122220000D02*
X153520000Y-116530000D01*
X153520000Y-116530000D02*
X154360000Y-115690000D01*
X161200000Y-55100000D02*
X161200000Y-43160000D01*
X157600000Y-58700000D02*
X161200000Y-55100000D01*
%TO.N,Net-(R13-Pad1)*%
X140840000Y-118150000D02*
X142170000Y-119480000D01*
X149820000Y-120890000D02*
X149820000Y-122230000D01*
X140820000Y-56600000D02*
X140820000Y-78330000D01*
X148410000Y-119480000D02*
X149820000Y-120890000D01*
X142170000Y-119480000D02*
X148410000Y-119480000D01*
X140820000Y-78330000D02*
X140840000Y-78350000D01*
X141240000Y-56180000D02*
X140820000Y-56600000D01*
X140840000Y-78350000D02*
X140840000Y-118150000D01*
%TO.N,CNT*%
X105140000Y-44980000D02*
X104170000Y-44980000D01*
X107060000Y-46900000D02*
X105140000Y-44980000D01*
X110020000Y-72810000D02*
X109080000Y-71870000D01*
X109080000Y-71870000D02*
X109080000Y-67420000D01*
X107490000Y-87570000D02*
X108619600Y-87570000D01*
X104170000Y-42440000D02*
X104170000Y-44980000D01*
X110020000Y-86169600D02*
X110020000Y-72810000D01*
X109080000Y-67420000D02*
X107060000Y-65400000D01*
X107060000Y-65400000D02*
X107060000Y-46900000D01*
X108619600Y-87570000D02*
X110020000Y-86169600D01*
%TO.N,SP*%
X159130000Y-61095500D02*
X158384500Y-60350000D01*
X101447600Y-59592400D02*
X102480000Y-58560000D01*
X105800000Y-90110000D02*
X101447600Y-85757600D01*
X102480000Y-55610000D02*
X102480000Y-54050000D01*
X102530000Y-57680000D02*
X102480000Y-57630000D01*
X158050000Y-83950000D02*
X158050000Y-67908400D01*
X102495000Y-54035000D02*
X102495000Y-50655000D01*
X160000000Y-85905000D02*
X160000000Y-85900000D01*
X107490000Y-90110000D02*
X105800000Y-90110000D01*
X160000000Y-85900000D02*
X158050000Y-83950000D01*
X101447600Y-85757600D02*
X101447600Y-59592400D01*
X159130000Y-66828400D02*
X159130000Y-61095500D01*
X102480000Y-55610000D02*
X102480000Y-57630000D01*
X102495000Y-50655000D02*
X103090000Y-50060000D01*
X102480000Y-58560000D02*
X102480000Y-57630000D01*
X158050000Y-67908400D02*
X159130000Y-66828400D01*
X103090000Y-50060000D02*
X104170000Y-50060000D01*
X104170000Y-57680000D02*
X102530000Y-57680000D01*
X102480000Y-54050000D02*
X102495000Y-54035000D01*
X158384500Y-60350000D02*
X158350000Y-60350000D01*
%TO.N,SLOW_CLK*%
X100380800Y-86850800D02*
X106180000Y-92650000D01*
X100535600Y-54364400D02*
X101770000Y-53130000D01*
X93675199Y-54364400D02*
X100535600Y-54364400D01*
X101770000Y-53130000D02*
X100380800Y-54519200D01*
X106180000Y-92650000D02*
X107490000Y-92650000D01*
X100380800Y-54519200D02*
X100380800Y-86850800D01*
%TO.N,~{IRQ}*%
X195820000Y-97455500D02*
X194210000Y-95845500D01*
X194210000Y-45570000D02*
X190670000Y-42030000D01*
X190670000Y-42030000D02*
X188390000Y-42030000D01*
X194210000Y-95845500D02*
X194210000Y-45570000D01*
%TO.N,DATA*%
X142890000Y-107720000D02*
X142530000Y-107720000D01*
X142380000Y-97560000D02*
X142890000Y-97560000D01*
X141310000Y-106500000D02*
X141310000Y-98670000D01*
X96672400Y-58826400D02*
X97764600Y-59918600D01*
X105880000Y-100290000D02*
X107500000Y-100290000D01*
X99314000Y-61468000D02*
X99314000Y-93724000D01*
X142890000Y-97560000D02*
X142890000Y-94700000D01*
X99314000Y-61468000D02*
X97764600Y-59918600D01*
X141290000Y-98650000D02*
X142380000Y-97560000D01*
X93675200Y-58826400D02*
X96672400Y-58826400D01*
X99314000Y-93724000D02*
X105880000Y-100290000D01*
X142530000Y-107720000D02*
X141310000Y-106500000D01*
X142890000Y-94700000D02*
X142820000Y-94630000D01*
X141310000Y-98670000D02*
X141290000Y-98650000D01*
%TO.N,FAST_CLK*%
X115715000Y-82705000D02*
X115715000Y-75425000D01*
X93665200Y-49864400D02*
X101040600Y-49864400D01*
X114670000Y-56760000D02*
X114670000Y-48920000D01*
X115560000Y-97760000D02*
X115560000Y-82860000D01*
X117160000Y-71560000D02*
X117140000Y-71540000D01*
X119200000Y-101400000D02*
X115560000Y-97760000D01*
X117160000Y-73980000D02*
X117160000Y-71560000D01*
X113270000Y-47520000D02*
X111790000Y-47520000D01*
X117525000Y-71155000D02*
X117525000Y-59615000D01*
X114670000Y-48920000D02*
X113270000Y-47520000D01*
X101040600Y-49864400D02*
X102260000Y-48645000D01*
X115715000Y-75425000D02*
X117160000Y-73980000D01*
X117525000Y-59615000D02*
X114670000Y-56760000D01*
X117140000Y-71540000D02*
X117525000Y-71155000D01*
X115560000Y-82860000D02*
X115715000Y-82705000D01*
%TO.N,~{ATN}*%
X97935600Y-45504400D02*
X101940000Y-41500000D01*
X124930000Y-46650000D02*
X124930000Y-87960000D01*
X124930000Y-87960000D02*
X124510000Y-88380000D01*
X123690000Y-102860000D02*
X122130000Y-102860000D01*
X122130000Y-102860000D02*
X120330000Y-102860000D01*
X124510000Y-90630000D02*
X124510000Y-102040000D01*
X123210000Y-44930000D02*
X124930000Y-46650000D01*
X101940000Y-41500000D02*
X101940000Y-41470000D01*
X124060000Y-102490000D02*
X123690000Y-102860000D01*
X93645200Y-45504400D02*
X97935600Y-45504400D01*
X124510000Y-102040000D02*
X124060000Y-102490000D01*
X120330000Y-102860000D02*
X120300000Y-102830000D01*
X124510000Y-88380000D02*
X124510000Y-90630000D01*
%TO.N,Net-(U5-PA3)*%
X201130000Y-91940000D02*
X201120000Y-91950000D01*
X201130000Y-81730000D02*
X201130000Y-91940000D01*
X202730000Y-80130000D02*
X201130000Y-81730000D01*
X201120000Y-91950000D02*
X201120000Y-94610000D01*
X203630000Y-80130000D02*
X202730000Y-80130000D01*
%TO.N,Net-(U5-PA4)*%
X199950000Y-96620000D02*
X199950000Y-81280000D01*
X199950000Y-81280000D02*
X203630000Y-77600000D01*
X203630000Y-77600000D02*
X203630000Y-77590000D01*
%TO.N,A0*%
X176610000Y-86980000D02*
X176610000Y-107180000D01*
X176610000Y-107180000D02*
X179070000Y-109640000D01*
X175530014Y-85900500D02*
X175530500Y-85900500D01*
X174050000Y-84420487D02*
X174050000Y-79040000D01*
X174761157Y-85131643D02*
X174050000Y-84420487D01*
X175530500Y-85900500D02*
X176610000Y-86980000D01*
X174761157Y-85131643D02*
X175530014Y-85900500D01*
%TO.N,A1*%
X176830000Y-75020000D02*
X178750000Y-75020000D01*
X176549200Y-81400800D02*
X176530000Y-81381600D01*
X176480000Y-81470000D02*
X176480000Y-83922400D01*
X176480000Y-83922400D02*
X181140000Y-88582400D01*
X180280000Y-112180000D02*
X179070000Y-112180000D01*
X176549200Y-81400800D02*
X176480000Y-81470000D01*
X181190000Y-111270000D02*
X180280000Y-112180000D01*
X181140000Y-88582400D02*
X181140000Y-98450000D01*
X176530000Y-81381600D02*
X176530000Y-75320000D01*
X181140000Y-98450000D02*
X181190000Y-98500000D01*
X181190000Y-98500000D02*
X181190000Y-111270000D01*
X176530000Y-75320000D02*
X176830000Y-75020000D01*
%TO.N,A2*%
X183055000Y-81945000D02*
X183120000Y-82010000D01*
X183120000Y-82010000D02*
X183120000Y-112130000D01*
X183120000Y-112130000D02*
X180530000Y-114720000D01*
X180530000Y-114720000D02*
X179070000Y-114720000D01*
%TO.N,A3*%
X183780000Y-115670000D02*
X182190000Y-117260000D01*
X182190000Y-117260000D02*
X179070000Y-117260000D01*
X183780000Y-78850000D02*
X183780000Y-115670000D01*
%TO.N,A9*%
X208230000Y-131350000D02*
X209390000Y-132510000D01*
X209390000Y-132510000D02*
X210340000Y-132510000D01*
X208030000Y-123730000D02*
X208230000Y-123930000D01*
X208230000Y-123930000D02*
X208230000Y-131350000D01*
%TO.N,A10*%
X192540000Y-133670000D02*
X193920000Y-135050000D01*
X192540000Y-114810000D02*
X192540000Y-133670000D01*
X192480000Y-114750000D02*
X192540000Y-114810000D01*
%TO.N,A11*%
X206620000Y-121190000D02*
X207190000Y-121760000D01*
X207190000Y-125460000D02*
X207680000Y-125950000D01*
X207680000Y-125950000D02*
X207680000Y-134930000D01*
X207680000Y-134930000D02*
X210340000Y-137590000D01*
X207190000Y-121760000D02*
X207190000Y-125460000D01*
%TO.N,A12*%
X190790000Y-133650000D02*
X187100000Y-129960000D01*
X190790000Y-133655000D02*
X190790000Y-133650000D01*
X187100000Y-129960000D02*
X179070000Y-129960000D01*
%TO.N,A13*%
X197690000Y-133880000D02*
X198870000Y-132700000D01*
X197690000Y-138990000D02*
X197690000Y-133880000D01*
X158400000Y-117200000D02*
X162140000Y-120940000D01*
X198615600Y-139915600D02*
X197690000Y-138990000D01*
X198870000Y-132700000D02*
X198870000Y-127340000D01*
X162140000Y-120940000D02*
X162140000Y-125730000D01*
X162140000Y-125730000D02*
X163830000Y-127420000D01*
%TO.N,A14*%
X160850000Y-126980000D02*
X163830000Y-129960000D01*
X157042000Y-109912000D02*
X157042000Y-118242000D01*
X206955500Y-130174500D02*
X204600000Y-132530000D01*
X157042000Y-118242000D02*
X160850000Y-122050000D01*
X160850000Y-122050000D02*
X160850000Y-126980000D01*
X204600000Y-132530000D02*
X202950000Y-132530000D01*
X206955500Y-128920000D02*
X206955500Y-130174500D01*
%TO.N,A15*%
X128875000Y-84495000D02*
X128875000Y-88045000D01*
X221840000Y-125360000D02*
X223910000Y-127430000D01*
X130560000Y-82810000D02*
X128875000Y-84495000D01*
X223910000Y-127430000D02*
X225580000Y-127430000D01*
X128325000Y-112685000D02*
X129910000Y-114270000D01*
X215290400Y-95605600D02*
X221840000Y-102155200D01*
X221840000Y-102155200D02*
X221840000Y-125360000D01*
X129800000Y-90930000D02*
X128325000Y-92405000D01*
X128875000Y-88045000D02*
X129800000Y-88970000D01*
X129800000Y-88970000D02*
X129800000Y-89900000D01*
X129800000Y-89900000D02*
X129800000Y-90930000D01*
X128325000Y-92405000D02*
X128325000Y-112685000D01*
%TO.N,D7*%
X184510000Y-101810000D02*
X184510000Y-56860000D01*
X184510000Y-56860000D02*
X186640000Y-54730000D01*
X186640000Y-54730000D02*
X188390000Y-54730000D01*
X192310000Y-109670000D02*
X192310000Y-109610000D01*
X192310000Y-109610000D02*
X184510000Y-101810000D01*
%TO.N,D6*%
X186290000Y-57270000D02*
X188390000Y-57270000D01*
X192300000Y-107130000D02*
X185360000Y-100190000D01*
X185360000Y-100190000D02*
X185360000Y-58200000D01*
X185360000Y-58200000D02*
X186290000Y-57270000D01*
X192310000Y-107130000D02*
X192300000Y-107130000D01*
%TO.N,D5*%
X185990000Y-60470000D02*
X186650000Y-59810000D01*
X186650000Y-59810000D02*
X188390000Y-59810000D01*
X185990000Y-98380000D02*
X185990000Y-60470000D01*
X192270000Y-104590000D02*
X192200000Y-104590000D01*
X192200000Y-104590000D02*
X185990000Y-98380000D01*
%TO.N,D4*%
X215036400Y-117297200D02*
X213766400Y-116027200D01*
X191211200Y-63601200D02*
X191211200Y-84421200D01*
X188390000Y-62350000D02*
X189960000Y-62350000D01*
X189960000Y-62350000D02*
X191211200Y-63601200D01*
X193530000Y-86740000D02*
X193530000Y-100250000D01*
X191211200Y-84421200D02*
X193530000Y-86740000D01*
X207518000Y-114655600D02*
X207518000Y-105012000D01*
X213766400Y-116027200D02*
X208889600Y-116027200D01*
X208889600Y-116027200D02*
X207518000Y-114655600D01*
X207518000Y-105012000D02*
X207570000Y-104960000D01*
X193530000Y-100250000D02*
X195330000Y-102050000D01*
X220800000Y-117297200D02*
X215036400Y-117297200D01*
%TO.N,D3*%
X192770000Y-99510000D02*
X193040000Y-99240000D01*
X190500000Y-67000000D02*
X188390000Y-64890000D01*
X193040000Y-99240000D02*
X193040000Y-87300000D01*
X190500000Y-84760000D02*
X190500000Y-67000000D01*
X193040000Y-87300000D02*
X190500000Y-84760000D01*
%TO.N,D2*%
X204230000Y-102050000D02*
X205220000Y-101060000D01*
X202950000Y-102050000D02*
X204230000Y-102050000D01*
X205720000Y-100560000D02*
X205720000Y-99530000D01*
X192025500Y-100825500D02*
X186640000Y-95440000D01*
X186640000Y-69180000D02*
X188390000Y-67430000D01*
X186640000Y-95440000D02*
X186640000Y-69180000D01*
X222500000Y-100478400D02*
X222500000Y-110841600D01*
X223848400Y-112190000D02*
X225580000Y-112190000D01*
X192025500Y-100830000D02*
X192025500Y-100825500D01*
X205220000Y-101060000D02*
X205720000Y-100560000D01*
X215188800Y-93190000D02*
X215211600Y-93190000D01*
X205720000Y-99530000D02*
X205720000Y-96240000D01*
X205720000Y-96240000D02*
X207390000Y-94570000D01*
X222500000Y-110841600D02*
X223848400Y-112190000D01*
X215211600Y-93190000D02*
X222500000Y-100478400D01*
%TO.N,D1*%
X174890000Y-72060000D02*
X177010000Y-69940000D01*
X173190000Y-91554400D02*
X173190000Y-77570000D01*
X204320000Y-104590000D02*
X206620000Y-102290000D01*
X173190000Y-77570000D02*
X174890000Y-75870000D01*
X206620000Y-102290000D02*
X206620000Y-99150000D01*
X177010000Y-69940000D02*
X178750000Y-69940000D01*
X206620000Y-99150000D02*
X207370000Y-98400000D01*
X175800000Y-104160000D02*
X175800000Y-94164400D01*
X175800000Y-94164400D02*
X173190000Y-91554400D01*
X174890000Y-75870000D02*
X174890000Y-72060000D01*
X202950000Y-104590000D02*
X204320000Y-104590000D01*
%TO.N,D0*%
X204310000Y-107130000D02*
X202950000Y-107130000D01*
X175500000Y-73800000D02*
X176820000Y-72480000D01*
X177780000Y-107100000D02*
X177130000Y-106450000D01*
X208670000Y-100770000D02*
X208350000Y-101090000D01*
X208350000Y-103090000D02*
X204310000Y-107130000D01*
X175500000Y-84364800D02*
X175500000Y-73800000D01*
X208350000Y-101090000D02*
X208350000Y-103090000D01*
X179070000Y-107100000D02*
X177780000Y-107100000D01*
X177130000Y-106450000D02*
X177130000Y-85994800D01*
X177130000Y-85994800D02*
X175500000Y-84364800D01*
X176820000Y-72480000D02*
X178750000Y-72480000D01*
%TO.N,~{ROM_OE}*%
X161540000Y-100940000D02*
X161540000Y-114970000D01*
X131970000Y-80270000D02*
X130560000Y-80270000D01*
X132700000Y-81000000D02*
X131970000Y-80270000D01*
X133700000Y-91850000D02*
X132700000Y-90850000D01*
X155100000Y-94500000D02*
X161540000Y-100940000D01*
X132700000Y-90850000D02*
X132700000Y-81000000D01*
X133700000Y-91915000D02*
X133700000Y-91850000D01*
X161540000Y-114970000D02*
X163830000Y-117260000D01*
%TO.N,~{RAM_OE}*%
X193300000Y-113440000D02*
X193300000Y-116850000D01*
X193300000Y-116850000D02*
X193740000Y-117290000D01*
X194530000Y-112210000D02*
X193300000Y-113440000D01*
X195330000Y-112210000D02*
X194530000Y-112210000D01*
X193740000Y-117290000D02*
X195330000Y-117290000D01*
%TO.N,~{WD_CS}*%
X131920000Y-72650000D02*
X130560000Y-72650000D01*
X132500000Y-75350000D02*
X132500000Y-73230000D01*
X133800000Y-76650000D02*
X132500000Y-75350000D01*
X132500000Y-73230000D02*
X131920000Y-72650000D01*
%TO.N,~{DRV_RESET}*%
X87071200Y-83667600D02*
X87071200Y-70002400D01*
X84378800Y-67310000D02*
X71970000Y-67310000D01*
X111200000Y-38600000D02*
X114757200Y-42157200D01*
X87071200Y-70002400D02*
X84378800Y-67310000D01*
X87071200Y-89154000D02*
X92913200Y-94996000D01*
X114757200Y-46939200D02*
X117957600Y-50139600D01*
X87071200Y-83667600D02*
X87071200Y-89154000D01*
X111200000Y-38500000D02*
X111200000Y-38600000D01*
X114757200Y-42157200D02*
X114757200Y-46939200D01*
%TO.N,Net-(U4-STEP)*%
X144855000Y-66170000D02*
X144855000Y-76055000D01*
X144855000Y-76055000D02*
X143350000Y-77560000D01*
X151850000Y-62750000D02*
X151900000Y-62750000D01*
X145050000Y-65975000D02*
X144855000Y-66170000D01*
X143350000Y-77560000D02*
X143020000Y-77560000D01*
X153500000Y-58700000D02*
X159890000Y-52310000D01*
X151900000Y-62750000D02*
X153500000Y-61150000D01*
X153500000Y-61150000D02*
X153500000Y-58700000D01*
%TO.N,Net-(U4-DIRC)*%
X154300000Y-61850000D02*
X152600000Y-63550000D01*
X142330000Y-72480000D02*
X143020000Y-72480000D01*
X141320000Y-68790000D02*
X141320000Y-71470000D01*
X143305000Y-66805000D02*
X141320000Y-68790000D01*
X159000000Y-54700000D02*
X154300000Y-59400000D01*
X152600000Y-63550000D02*
X152600000Y-63700000D01*
X154300000Y-59400000D02*
X154300000Y-61850000D01*
X143305000Y-66765000D02*
X143305000Y-66805000D01*
X141320000Y-71470000D02*
X142330000Y-72480000D01*
%TO.N,Net-(U4-WG)*%
X159300000Y-72400000D02*
X160210000Y-71490000D01*
X160210000Y-66720000D02*
X162070000Y-64860000D01*
X162070000Y-64860000D02*
X163510000Y-64860000D01*
X160210000Y-71490000D02*
X160210000Y-66720000D01*
%TO.N,Net-(U4-WD)*%
X161610000Y-67400000D02*
X163510000Y-67400000D01*
X160720000Y-79364500D02*
X160720000Y-68290000D01*
X160720000Y-68290000D02*
X161610000Y-67400000D01*
X160765500Y-79410000D02*
X160720000Y-79364500D01*
%TO.N,SIDE0*%
X150570000Y-107720000D02*
X150510000Y-107720000D01*
X152270000Y-95110000D02*
X152640000Y-95480000D01*
X153450000Y-89640000D02*
X153190000Y-89640000D01*
X152270000Y-90560000D02*
X152270000Y-95110000D01*
X152640000Y-105650000D02*
X150570000Y-107720000D01*
X152640000Y-95480000D02*
X152640000Y-105650000D01*
X153190000Y-89640000D02*
X152270000Y-90560000D01*
%TO.N,~{MOTOR}*%
X152200000Y-123640000D02*
X152200000Y-116510000D01*
X200240000Y-98160000D02*
X201980000Y-96420000D01*
X156144200Y-104175800D02*
X155092400Y-105227600D01*
X201980000Y-92510000D02*
X201955000Y-92485000D01*
X201860000Y-82930000D02*
X202120000Y-82670000D01*
X154100000Y-125540000D02*
X152200000Y-123640000D01*
X200170000Y-133480000D02*
X200170000Y-98230000D01*
X201955000Y-92485000D02*
X201955000Y-84835000D01*
X150510000Y-114820000D02*
X150510000Y-112800000D01*
X201980000Y-96420000D02*
X201980000Y-92510000D01*
X202120000Y-82670000D02*
X203630000Y-82670000D01*
X198710000Y-136702800D02*
X198710000Y-134940000D01*
X201955000Y-84835000D02*
X201860000Y-84740000D01*
X201860000Y-84740000D02*
X201860000Y-82930000D01*
X200170000Y-98230000D02*
X200240000Y-98160000D01*
X152200000Y-116510000D02*
X150510000Y-114820000D01*
X155092400Y-105227600D02*
X155092400Y-109922100D01*
X154110000Y-125540000D02*
X154100000Y-125540000D01*
X155092400Y-109922100D02*
X155084500Y-109930000D01*
X198710000Y-134940000D02*
X200170000Y-133480000D01*
%TO.N,POWERLED*%
X138425000Y-49475000D02*
X143080000Y-44820000D01*
X140100000Y-66200000D02*
X138425000Y-64525000D01*
X138425000Y-64525000D02*
X138425000Y-49475000D01*
X140095000Y-72700000D02*
X140100000Y-72695000D01*
X140100000Y-72695000D02*
X140100000Y-66200000D01*
%TO.N,ACTLED*%
X200430000Y-79670000D02*
X201730000Y-78370000D01*
X201730000Y-78370000D02*
X201730000Y-73300000D01*
X156300000Y-83910000D02*
X154330400Y-81940400D01*
X154330400Y-81940400D02*
X154330400Y-70630400D01*
X200430000Y-79680000D02*
X200430000Y-79670000D01*
X156425500Y-83910000D02*
X156300000Y-83910000D01*
X201730000Y-73300000D02*
X202520000Y-72510000D01*
X154330400Y-70630400D02*
X150700000Y-67000000D01*
X202520000Y-72510000D02*
X203630000Y-72510000D01*
X150700000Y-67000000D02*
X150700000Y-57520000D01*
%TO.N,DATA_IN*%
X136830000Y-52970000D02*
X133870000Y-50010000D01*
X133870000Y-50010000D02*
X130830000Y-50010000D01*
X136830000Y-64380000D02*
X136830000Y-52970000D01*
X139300000Y-66850000D02*
X136830000Y-64380000D01*
%TO.N,DATA_OUT*%
X153750000Y-54800000D02*
X151390000Y-52440000D01*
X151390000Y-52440000D02*
X150700000Y-52440000D01*
%TO.N,CLK_IN*%
X202100000Y-62350000D02*
X203630000Y-62350000D01*
X200615000Y-47955000D02*
X200615000Y-51930305D01*
X200615000Y-51930305D02*
X201270000Y-52585305D01*
X200295000Y-47635000D02*
X200615000Y-47955000D01*
X201270000Y-52585305D02*
X201270000Y-61520000D01*
X201270000Y-61520000D02*
X202100000Y-62350000D01*
%TO.N,CLK_OUT*%
X201340000Y-51630000D02*
X201900000Y-52190000D01*
X201900000Y-59130000D02*
X202580000Y-59810000D01*
X202580000Y-59810000D02*
X203630000Y-59810000D01*
X201900000Y-52190000D02*
X201900000Y-59130000D01*
%TO.N,ATN_ACK*%
X121470000Y-75190000D02*
X122940000Y-75190000D01*
X120950000Y-74670000D02*
X121470000Y-75190000D01*
X120950000Y-69290000D02*
X120950000Y-74670000D01*
X121430000Y-68810000D02*
X120950000Y-69290000D01*
%TO.N,FAST_SER_DIR*%
X205670000Y-61120000D02*
X205670000Y-55110000D01*
X205670000Y-55110000D02*
X205290000Y-54730000D01*
X205290000Y-54730000D02*
X203630000Y-54730000D01*
%TO.N,ATN_IN*%
X119035000Y-61559695D02*
X119090000Y-61504695D01*
X121260000Y-80270000D02*
X122940000Y-80270000D01*
X122940000Y-80270000D02*
X122940000Y-82810000D01*
X119090000Y-46510000D02*
X123210000Y-42390000D01*
X120130000Y-72650000D02*
X119035000Y-71555000D01*
X119090000Y-61504695D02*
X119090000Y-46510000D01*
X120070000Y-79080000D02*
X121260000Y-80270000D01*
X120130000Y-72650000D02*
X120070000Y-72710000D01*
X119035000Y-71555000D02*
X119035000Y-61559695D01*
X120070000Y-72710000D02*
X120070000Y-79080000D01*
%TO.N,~{CIA_SEL}*%
X174290000Y-46635500D02*
X174290000Y-46680000D01*
X138560000Y-104920000D02*
X135210000Y-101570000D01*
X139590000Y-114760000D02*
X138560000Y-113730000D01*
X174290000Y-46680000D02*
X170434000Y-50536000D01*
X170434000Y-50536000D02*
X170434000Y-117196000D01*
X170434000Y-117196000D02*
X170140000Y-117490000D01*
X135210000Y-101570000D02*
X129910000Y-101570000D01*
X138560000Y-113730000D02*
X138560000Y-104920000D01*
%TO.N,~{FLAG}*%
X124170000Y-64575000D02*
X124170000Y-68150000D01*
X186860000Y-49650000D02*
X188390000Y-49650000D01*
X183860000Y-52650000D02*
X186860000Y-49650000D01*
X124465000Y-73955000D02*
X124380000Y-74040000D01*
X183785500Y-61220000D02*
X183860000Y-61145500D01*
X124465000Y-76205000D02*
X122940000Y-77730000D01*
X124380000Y-74040000D02*
X124465000Y-74125000D01*
X183860000Y-61145500D02*
X183860000Y-52650000D01*
X124465000Y-68445000D02*
X124465000Y-73955000D01*
X124465000Y-74125000D02*
X124465000Y-76205000D01*
X124170000Y-68150000D02*
X124465000Y-68445000D01*
%TO.N,~{WDSEL}*%
X131770000Y-99030000D02*
X129910000Y-99030000D01*
X135300000Y-62100000D02*
X135300000Y-74754695D01*
X130830000Y-57630000D02*
X135300000Y-62100000D01*
X135295000Y-95505000D02*
X131770000Y-99030000D01*
X135300000Y-74754695D02*
X135295000Y-74759695D01*
X135295000Y-74759695D02*
X135295000Y-95505000D01*
%TO.N,Net-(U7-Pad4)*%
X129220000Y-55650000D02*
X129780000Y-55090000D01*
X130560000Y-77730000D02*
X129360000Y-77730000D01*
X128850000Y-65050000D02*
X129250000Y-64650000D01*
X129780000Y-55090000D02*
X130830000Y-55090000D01*
X129250000Y-55680000D02*
X129220000Y-55650000D01*
X128875000Y-77245000D02*
X128875000Y-65075000D01*
X128875000Y-65075000D02*
X128850000Y-65050000D01*
X129250000Y-64650000D02*
X129250000Y-55680000D01*
X129360000Y-77730000D02*
X128875000Y-77245000D01*
%TO.N,Net-(U11-Pad13)*%
X138650000Y-72950000D02*
X139140000Y-73440000D01*
X139140000Y-109340000D02*
X140060000Y-110260000D01*
X139140000Y-73440000D02*
X139140000Y-109340000D01*
X138400000Y-72950000D02*
X138650000Y-72950000D01*
D31*
%TO.N,12V*%
X94410000Y-124293662D02*
X88680000Y-124293662D01*
X87240000Y-133600000D02*
X88810000Y-135170000D01*
X88266338Y-124293662D02*
X87270000Y-125290000D01*
X87270000Y-125290000D02*
X87270000Y-133570000D01*
X88680000Y-124293662D02*
X88266338Y-124293662D01*
X87270000Y-133570000D02*
X87240000Y-133600000D01*
X88810000Y-135170000D02*
X90800000Y-135170000D01*
D32*
%TO.N,Net-(RP11F-R6.2)*%
X114910000Y-61590000D02*
X113540000Y-60220000D01*
X112840000Y-79630000D02*
X113750000Y-78720000D01*
X109170000Y-102830000D02*
X114950000Y-97050000D01*
X114950000Y-85943200D02*
X112840000Y-83833200D01*
X113540000Y-60220000D02*
X111790000Y-60220000D01*
X114910000Y-70890000D02*
X114910000Y-61590000D01*
X113750000Y-78720000D02*
X113750000Y-72050000D01*
X112840000Y-83833200D02*
X112840000Y-79630000D01*
X114950000Y-97050000D02*
X114950000Y-85943200D01*
X107500000Y-102830000D02*
X109170000Y-102830000D01*
X113750000Y-72050000D02*
X114910000Y-70890000D01*
%TO.N,Net-(RP11C-R3.2)*%
X98180000Y-63110000D02*
X98094800Y-63195200D01*
X98094800Y-102254800D02*
X106290000Y-110450000D01*
X98094800Y-63195200D02*
X98094800Y-102254800D01*
X106290000Y-110450000D02*
X107500000Y-110450000D01*
%TO.N,Net-(J5-Pin_1)*%
X175510000Y-133400000D02*
X176440000Y-132470000D01*
X176470000Y-132500000D02*
X179070000Y-132500000D01*
X169550000Y-139380000D02*
X170715000Y-138215000D01*
X156290000Y-139380000D02*
X169550000Y-139380000D01*
X176440000Y-132470000D02*
X176470000Y-132500000D01*
X175510000Y-133420000D02*
X175510000Y-133400000D01*
X170715000Y-138215000D02*
X175510000Y-133420000D01*
D31*
%TO.N,12VIN*%
X77950000Y-117180000D02*
X80120000Y-119350000D01*
X80120000Y-119350000D02*
X82640000Y-119350000D01*
X66310000Y-117040000D02*
X75775000Y-117040000D01*
X77950000Y-117180000D02*
X75915000Y-117180000D01*
%TO.N,5VIN*%
X67340000Y-124540000D02*
X67340000Y-126950000D01*
X67340000Y-126950000D02*
X74130000Y-133740000D01*
%TD*%
M02*
