M48
; DRILL file {KiCad 9.0.4} date 2025-09-17T18:39:30-0400
; FORMAT={-:-/ absolute / inch / decimal}
; #@! TF.CreationDate,2025-09-17T18:39:30-04:00
; #@! TF.GenerationSoftware,Kicad,Pcbnew,9.0.4
; #@! TF.FileFunction,Plated,1,2,PTH
FMAT,2
INCH
; #@! TA.AperFunction,Plated,PTH,ViaDrill
T1C0.0157
; #@! TA.AperFunction,Plated,PTH,ComponentDrill
T2C0.0315
; #@! TA.AperFunction,Plated,PTH,ComponentDrill
T3C0.0354
; #@! TA.AperFunction,Plated,PTH,ComponentDrill
T4C0.0394
; #@! TA.AperFunction,Plated,PTH,ComponentDrill
T5C0.0433
; #@! TA.AperFunction,Plated,PTH,ComponentDrill
T6C0.0551
; #@! TA.AperFunction,Plated,PTH,ComponentDrill
T7C0.0591
; #@! TA.AperFunction,Plated,PTH,ComponentDrill
T8C0.0630
%
G90
G05
T1
X2.5256Y-2.1157
X3.1055Y-3.7335
X3.1232Y-2.8732
X3.658Y-3.74
X3.739Y-2.563
X3.7433Y-2.4244
X3.8654Y-2.4846
X3.91Y-2.42
X4.0067Y-2.0917
X4.0134Y-1.6327
X4.026Y-1.9152
X4.082Y-3.148
X4.1811Y-2.2213
X4.2969Y-1.8146
X4.2969Y-2.0705
X4.3701Y-3.8012
X4.378Y-1.5157
X4.4882Y-3.1528
X4.5894Y-2.7823
X4.644Y-1.974
X4.6579Y-2.1689
X4.6929Y-3.9921
X4.6961Y-4.3465
X4.7224Y-2.6004
X4.7295Y-2.8602
X4.7362Y-4.0484
X4.7634Y-2.3492
X4.7807Y-2.7091
X4.8886Y-2.5423
X4.9437Y-4.416
X4.9516Y-3.5433
X4.961Y-2.4646
X4.9654Y-1.7445
X4.9976Y-4.2047
X5.0051Y-3.8142
X5.0335Y-2.7594
X5.1102Y-3.5394
X5.1201Y-2.661
X5.2638Y-3.6187
X5.2677Y-3.0177
X5.2965Y-2.4917
X5.3287Y-4.065
X5.3551Y-2.9551
X5.3585Y-2.1268
X5.374Y-3.2598
X5.4213Y-2.2602
X5.4228Y-1.9319
X5.4311Y-3.0866
X5.4488Y-2.872
X5.4783Y-2.211
X5.4843Y-2.6319
X5.4957Y-4.5181
X5.5067Y-3.1051
X5.5075Y-3.3535
X5.5142Y-4.2201
X5.5142Y-4.3409
X5.5156Y-2.8622
X5.5197Y-4.6811
X5.5606Y-2.2118
X5.6228Y-3.7256
X5.6419Y-2.6285
X5.7106Y-2.5974
X5.7661Y-1.5843
X5.7902Y-3.8421
X5.9287Y-3.7244
X5.9783Y-2.4705
X5.9815Y-3.4175
X6.0079Y-2.5079
X6.0276Y-3.7283
X6.0335Y-3.3004
X6.039Y-4.3382
X6.0413Y-3.5291
X6.0531Y-2.1575
X6.0673Y-4.9425
X6.1057Y-4.328
X6.1063Y-3.7205
X6.1474Y-4.1014
X6.1585Y-3.3035
X6.1828Y-4.3272
X6.185Y-3.7008
X6.2343Y-2.376
X6.2362Y-4.6142
X6.2598Y-2.1535
X6.2717Y-2.8504
X6.287Y-1.6398
X6.2949Y-2.0594
X6.2992Y-3.3821
X6.3098Y-1.7106
X6.3114Y-3.4461
X6.3294Y-3.1264
X6.5689Y-3.7551
X6.5854Y-1.6402
X6.65Y-3.9185
X6.6567Y-4.4165
X6.6587Y-1.9559
X6.6984Y-4.6256
X6.7594Y-2.0535
X6.8457Y-2.9606
X6.8524Y-3.1118
X6.8618Y-1.836
X6.8804Y-3.3516
X6.9213Y-4.1008
X6.9508Y-3.2048
X7.1291Y-2.1055
X7.2069Y-3.2262
X7.2354Y-3.1043
X7.2356Y-2.4102
X7.5114Y-5.262
X7.5248Y-2.0091
X7.5601Y-3.9697
X7.5693Y-3.4933
X7.5697Y-4.1177
X7.5713Y-4.2177
X7.5713Y-4.3177
X7.578Y-4.5177
X7.5894Y-3.9177
X7.5913Y-2.9406
X7.6175Y-3.3539
X7.6346Y-5.3169
X7.7094Y-3.8368
X7.7307Y-3.5547
X7.8195Y-5.5085
X7.8232Y-3.6264
X7.8232Y-5.382
X7.8295Y-5.0134
X7.872Y-3.8039
X7.8748Y-2.8819
X7.878Y-1.7262
X7.8835Y-3.8646
X7.8856Y-1.8754
X7.8909Y-3.137
X7.8955Y-2.1736
X7.9181Y-3.7248
X7.9268Y-2.0327
X8.087Y-3.6264
X8.0972Y-2.4063
X8.1346Y-4.7713
X8.1479Y-5.0756
X8.1642Y-3.874
X8.165Y-3.7232
X8.172Y-4.1323
X8.1902Y-4.8713
X8.2154Y-3.9673
X8.3563Y-2.2965
X8.472Y-3.6689
X8.476Y-3.764
X8.6929Y-4.618
X8.8697Y-3.0858
X8.9984Y-3.3862
T2
X2.2248Y-3.9197
X2.2248Y-4.0197
X2.5248Y-3.9197
X2.5248Y-4.0197
X3.4868Y-1.7915
X3.4876Y-1.9632
X3.488Y-2.1403
X3.488Y-2.316
X3.5868Y-1.8115
X3.5876Y-1.9832
X3.588Y-2.1603
X3.588Y-2.336
X3.6868Y-1.7915
X3.6876Y-1.9632
X3.688Y-2.1403
X3.688Y-2.316
X4.1012Y-1.6709
X4.1012Y-1.7709
X4.1012Y-1.8709
X4.1012Y-1.9709
X4.1012Y-2.0709
X4.1012Y-2.1709
X4.1012Y-2.2709
X4.1012Y-2.3709
X4.1012Y-2.4709
X4.1012Y-2.5709
X4.1917Y-2.7555
X4.2319Y-2.9476
X4.2319Y-3.0476
X4.2319Y-3.1476
X4.2319Y-3.2476
X4.2319Y-3.3476
X4.2319Y-3.4476
X4.2319Y-3.5476
X4.2319Y-3.6476
X4.2319Y-3.7476
X4.2323Y-3.8484
X4.2323Y-3.9484
X4.2323Y-4.0484
X4.2323Y-4.1484
X4.2323Y-4.2484
X4.2323Y-4.3484
X4.2323Y-4.4484
X4.2323Y-4.5484
X4.2323Y-4.6484
X4.3886Y-2.7555
X4.4012Y-1.6709
X4.4012Y-1.7709
X4.4012Y-1.8709
X4.4012Y-1.9709
X4.4012Y-2.0709
X4.4012Y-2.1709
X4.4012Y-2.2709
X4.4012Y-2.3709
X4.4012Y-2.4709
X4.4012Y-2.5709
X4.4614Y-3.802
X4.4614Y-4.302
X4.6138Y-3.4976
X4.6138Y-3.7976
X4.8146Y-3.7988
X4.8146Y-3.8988
X4.8146Y-3.9988
X4.8146Y-4.0988
X4.8146Y-4.1988
X4.8146Y-4.2988
X4.8146Y-4.3988
X4.8146Y-4.4988
X4.8228Y-4.6354
X4.8402Y-2.7602
X4.8402Y-2.8602
X4.8402Y-2.9602
X4.8402Y-3.0602
X4.8402Y-3.1602
X4.8402Y-3.2602
X4.8402Y-3.3602
X4.8421Y-2.4646
X4.8445Y-3.5421
X4.8508Y-1.6689
X4.8508Y-1.7689
X4.8508Y-1.8689
X4.8508Y-1.9689
X4.8508Y-2.0689
X4.8508Y-2.1689
X4.8508Y-2.2689
X5.0197Y-4.6354
X5.039Y-2.4646
X5.0413Y-3.5421
X5.1146Y-3.7988
X5.1146Y-3.8988
X5.1146Y-3.9988
X5.1146Y-4.0988
X5.1146Y-4.1988
X5.1146Y-4.2988
X5.1146Y-4.3988
X5.1146Y-4.4988
X5.1402Y-2.7602
X5.1402Y-2.8602
X5.1402Y-2.9602
X5.1402Y-3.0602
X5.1402Y-3.1602
X5.1402Y-3.2602
X5.1402Y-3.3602
X5.1508Y-1.6689
X5.1508Y-1.7689
X5.1508Y-1.8689
X5.1508Y-1.9689
X5.1508Y-2.0689
X5.1508Y-2.1689
X5.1508Y-2.2689
X5.6256Y-3.8409
X5.6256Y-3.9409
X5.6256Y-4.0409
X5.6256Y-4.1409
X5.6256Y-4.2409
X5.6256Y-4.3409
X5.6256Y-4.4409
X5.6291Y-4.6417
X5.6307Y-2.7535
X5.6307Y-2.8535
X5.6307Y-2.9535
X5.6307Y-3.0535
X5.6307Y-3.1535
X5.6307Y-3.2535
X5.6307Y-3.3535
X5.6331Y-1.6646
X5.6331Y-1.7646
X5.6331Y-1.8646
X5.6331Y-1.9646
X5.6331Y-2.0646
X5.6331Y-2.1646
X5.6331Y-2.2646
X5.6346Y-3.5409
X5.6421Y-2.4602
X5.7457Y-4.8134
X5.7457Y-5.3134
X5.826Y-4.6417
X5.8315Y-3.5409
X5.839Y-2.4602
X5.8984Y-4.8122
X5.8984Y-5.3122
X5.9256Y-3.8409
X5.9256Y-3.9409
X5.9256Y-4.0409
X5.9256Y-4.1409
X5.9256Y-4.2409
X5.9256Y-4.3409
X5.9256Y-4.4409
X5.9307Y-2.7535
X5.9307Y-2.8535
X5.9307Y-2.9535
X5.9307Y-3.0535
X5.9307Y-3.1535
X5.9307Y-3.2535
X5.9307Y-3.3535
X5.9331Y-1.6646
X5.9331Y-1.7646
X5.9331Y-1.8646
X5.9331Y-1.9646
X5.9331Y-2.0646
X5.9331Y-2.1646
X5.9331Y-2.2646
X6.0441Y-4.8118
X6.0441Y-5.3118
X6.1921Y-4.8118
X6.1921Y-5.3118
X6.2776Y-3.2551
X6.2776Y-3.7551
X6.4374Y-1.9535
X6.4374Y-2.0535
X6.4374Y-2.1535
X6.4374Y-2.2535
X6.4374Y-2.3535
X6.4374Y-2.4535
X6.4374Y-2.5535
X6.4374Y-2.6535
X6.4374Y-2.7535
X6.4374Y-2.8535
X6.4374Y-2.9535
X6.4374Y-3.0535
X6.4374Y-3.1535
X6.4374Y-3.2535
X6.448Y-5.3811
X6.45Y-3.9165
X6.45Y-4.0165
X6.45Y-4.1165
X6.45Y-4.2165
X6.45Y-4.3165
X6.45Y-4.4165
X6.45Y-4.5165
X6.45Y-4.6165
X6.45Y-4.7165
X6.45Y-4.8165
X6.45Y-4.9165
X6.45Y-5.0165
X6.45Y-5.1165
X6.45Y-5.2165
X6.4587Y-1.7929
X6.6449Y-5.3811
X6.6555Y-1.7929
X6.7358Y-1.6382
X7.0374Y-1.9535
X7.0374Y-2.0535
X7.0374Y-2.1535
X7.0374Y-2.2535
X7.0374Y-2.3535
X7.0374Y-2.4535
X7.0374Y-2.5535
X7.0374Y-2.6535
X7.0374Y-2.7535
X7.0374Y-2.8535
X7.0374Y-2.9535
X7.0374Y-3.0535
X7.0374Y-3.1535
X7.0374Y-3.2535
X7.05Y-3.9165
X7.05Y-4.0165
X7.05Y-4.1165
X7.05Y-4.2165
X7.05Y-4.3165
X7.05Y-4.4165
X7.05Y-4.5165
X7.05Y-4.6165
X7.05Y-4.7165
X7.05Y-4.8165
X7.05Y-4.9165
X7.05Y-5.0165
X7.05Y-5.1165
X7.05Y-5.2165
X7.2358Y-1.6382
X7.4169Y-1.6547
X7.4169Y-1.7547
X7.4169Y-1.8547
X7.4169Y-1.9547
X7.4169Y-2.0547
X7.4169Y-2.1547
X7.4169Y-2.2547
X7.4169Y-2.3547
X7.4169Y-2.4547
X7.4169Y-2.5547
X7.4169Y-2.6547
X7.4169Y-2.7547
X7.4169Y-2.8547
X7.4169Y-2.9547
X7.4169Y-3.0547
X7.4169Y-3.1547
X7.4169Y-3.2547
X7.4169Y-3.3547
X7.4169Y-3.4547
X7.4169Y-3.5547
X7.6902Y-3.9177
X7.6902Y-4.0177
X7.6902Y-4.1177
X7.6902Y-4.2177
X7.6902Y-4.3177
X7.6902Y-4.4177
X7.6902Y-4.5177
X7.6902Y-4.6177
X7.6902Y-4.7177
X7.6902Y-4.8177
X7.6902Y-4.9177
X7.6902Y-5.0177
X7.6902Y-5.1177
X7.6902Y-5.2177
X7.6902Y-5.3705
X7.8197Y-3.7516
X7.887Y-5.3705
X7.9902Y-3.9177
X7.9902Y-4.0177
X7.9902Y-4.1177
X7.9902Y-4.2177
X7.9902Y-4.3177
X7.9902Y-4.4177
X7.9902Y-4.5177
X7.9902Y-4.6177
X7.9902Y-4.7177
X7.9902Y-4.8177
X7.9902Y-4.9177
X7.9902Y-5.0177
X7.9902Y-5.1177
X7.9902Y-5.2177
X8.0165Y-3.7516
X8.0169Y-1.6547
X8.0169Y-1.7547
X8.0169Y-1.8547
X8.0169Y-1.9547
X8.0169Y-2.0547
X8.0169Y-2.1547
X8.0169Y-2.2547
X8.0169Y-2.3547
X8.0169Y-2.4547
X8.0169Y-2.5547
X8.0169Y-2.6547
X8.0169Y-2.7547
X8.0169Y-2.8547
X8.0169Y-2.9547
X8.0169Y-3.0547
X8.0169Y-3.1547
X8.0169Y-3.2547
X8.0169Y-3.3547
X8.0169Y-3.4547
X8.0169Y-3.5547
X8.1461Y-2.552
X8.1461Y-3.052
X8.1831Y-3.3146
X8.224Y-1.5886
X8.224Y-2.0886
X8.2811Y-3.5169
X8.2811Y-3.6169
X8.2811Y-3.7169
X8.2811Y-3.8169
X8.2811Y-3.9169
X8.2811Y-4.0169
X8.2811Y-4.1169
X8.2811Y-4.2169
X8.2811Y-4.3169
X8.2811Y-4.4169
X8.2811Y-4.5169
X8.2811Y-4.6169
X8.2811Y-4.7169
X8.2811Y-4.8169
X8.2811Y-4.9169
X8.2811Y-5.0169
X8.2811Y-5.1169
X8.2811Y-5.2169
X8.2811Y-5.3169
X8.2811Y-5.4169
X8.2894Y-2.5508
X8.2894Y-3.0508
X8.3799Y-3.3146
X8.422Y-1.9591
X8.422Y-2.4591
X8.4441Y-2.7031
X8.4441Y-2.9
X8.5311Y-3.1398
X8.5319Y-3.2961
X8.5709Y-1.585
X8.5709Y-1.7819
X8.5752Y-1.9591
X8.5752Y-2.4591
X8.628Y-2.6929
X8.628Y-2.9929
X8.728Y-2.6929
X8.728Y-2.9929
X8.7386Y-2.5709
X8.7433Y-1.5878
X8.7433Y-1.7846
X8.7457Y-1.9531
X8.7457Y-2.4531
X8.828Y-2.6929
X8.828Y-2.9929
X8.8811Y-3.5169
X8.8811Y-3.6169
X8.8811Y-3.7169
X8.8811Y-3.8169
X8.8811Y-3.9169
X8.8811Y-4.0169
X8.8811Y-4.1169
X8.8811Y-4.2169
X8.8811Y-4.3169
X8.8811Y-4.4169
X8.8811Y-4.5169
X8.8811Y-4.6169
X8.8811Y-4.7169
X8.8811Y-4.8169
X8.8811Y-4.9169
X8.8811Y-5.0169
X8.8811Y-5.1169
X8.8811Y-5.2169
X8.8811Y-5.3169
X8.8811Y-5.4169
X8.928Y-2.6929
X8.928Y-2.9929
X8.9417Y-1.811
X8.9417Y-2.111
X9.028Y-2.6929
X9.028Y-2.9929
X9.0311Y-3.1398
X9.0319Y-3.2961
X9.0457Y-4.1157
X9.0457Y-4.6157
X9.128Y-2.6929
X9.128Y-2.9929
X9.1642Y-3.2937
X9.1642Y-3.3937
X9.1642Y-3.4937
X9.1642Y-3.5937
X9.1642Y-3.6937
X9.1642Y-3.7937
X9.1642Y-3.8937
X9.1642Y-3.9937
X9.1929Y-4.1165
X9.1929Y-4.6165
X9.228Y-2.6929
X9.228Y-2.9929
X9.2386Y-2.5709
X9.2417Y-1.811
X9.2417Y-2.111
T3
X4.8441Y-5.5175
X4.8441Y-5.6175
X4.9839Y-5.5169
X4.9839Y-5.6169
T4
X3.1476Y-1.5516
X3.1476Y-1.6516
X3.1476Y-1.7516
X3.1476Y-1.8516
X3.1476Y-1.9516
X3.1476Y-2.0516
X3.1961Y-2.7205
X3.1961Y-2.8205
X3.1961Y-2.9205
X3.1961Y-3.0205
X3.1961Y-3.1205
X3.1961Y-3.2205
X3.1961Y-3.3205
X3.1961Y-3.4205
X3.1961Y-3.5205
X3.1961Y-3.6205
X3.1961Y-3.7205
X3.1961Y-3.8205
X3.1961Y-3.9205
X3.1961Y-4.0205
X3.1961Y-4.1205
X3.1961Y-4.2205
X3.1961Y-4.3205
X3.2961Y-2.7205
X3.2961Y-2.8205
X3.2961Y-2.9205
X3.2961Y-3.0205
X3.2961Y-3.1205
X3.2961Y-3.2205
X3.2961Y-3.3205
X3.2961Y-3.4205
X3.2961Y-3.5205
X3.2961Y-3.6205
X3.2961Y-3.7205
X3.2961Y-3.8205
X3.2961Y-3.9205
X3.2961Y-4.0205
X3.2961Y-4.1205
X3.2961Y-4.2205
X3.2961Y-4.3205
X3.4913Y-4.5935
X3.4913Y-4.6935
X3.4913Y-4.7935
X3.4913Y-4.8935
X3.5236Y-3.8185
X3.5236Y-3.9185
X3.6236Y-3.8185
X3.6236Y-3.9185
X3.6398Y-4.1992
X3.6398Y-4.2992
X3.6398Y-4.3992
X3.6421Y-2.5811
X3.6421Y-2.6811
X3.6421Y-2.7811
X3.7169Y-4.5935
X3.7169Y-4.6935
X3.7169Y-4.7935
X3.7169Y-4.8935
X4.6492Y-5.4638
X4.6492Y-5.5638
X4.6492Y-5.6638
X6.0531Y-5.4874
X6.1531Y-5.4874
X6.8685Y-5.5303
X6.9685Y-5.5303
X7.0685Y-5.5303
X7.1291Y-1.7685
X7.2291Y-1.7685
T5
X2.9888Y-4.6134
X2.9888Y-4.7134
X2.9888Y-4.8134
X3.2512Y-4.8618
X3.2512Y-5.0618
X3.2535Y-4.4988
X3.2535Y-4.6988
X3.5748Y-5.1217
X3.5748Y-5.3217
X3.8504Y-5.122
X3.8504Y-5.322
X4.4138Y-3.0587
X4.6138Y-3.0587
T6
X2.9185Y-5.2654
X2.9185Y-5.4555
X3.0685Y-5.2654
X3.0685Y-5.4555
X3.2185Y-5.2654
X3.2185Y-5.4555
T7
X2.2575Y-4.411
X2.2575Y-4.8047
X2.6512Y-4.3126
X2.6512Y-4.9031
X2.7496Y-4.411
X2.7496Y-4.8047
T8
X2.2429Y-2.4531
X2.2429Y-2.8469
X2.2496Y-1.5913
X2.2496Y-1.985
X2.3366Y-2.65
X2.3433Y-1.7882
X2.4185Y-5.2654
X2.4185Y-5.4555
X2.6366Y-2.3547
X2.6366Y-2.65
X2.6366Y-2.9453
X2.6433Y-1.4929
X2.6433Y-1.7882
X2.6433Y-2.0835
X2.735Y-2.8469
X2.7366Y-2.4531
X2.7417Y-1.985
X2.7433Y-1.5913
X2.8335Y-2.65
X2.8402Y-1.7882
T4
G00X2.3744Y-4.5685
M15
G01X2.3744Y-4.6472
M16
G05
G00X2.4531Y-4.7929
M15
G01X2.5319Y-4.7929
M16
G05
G00X2.6106Y-4.5685
M15
G01X2.6106Y-4.6472
M16
G05
M30
