M48
; DRILL file {KiCad 9.0.4} date 2025-09-17T13:48:25-0400
; FORMAT={-:-/ absolute / inch / decimal}
; #@! TF.CreationDate,2025-09-17T13:48:25-04:00
; #@! TF.GenerationSoftware,Kicad,Pcbnew,9.0.4
; #@! TF.FileFunction,Plated,1,2,PTH
FMAT,2
INCH
; #@! TA.AperFunction,Plated,PTH,ViaDrill
T1C0.0157
; #@! TA.AperFunction,Plated,PTH,ComponentDrill
T2C0.0315
; #@! TA.AperFunction,Plated,PTH,ComponentDrill
T3C0.0394
; #@! TA.AperFunction,Plated,PTH,ComponentDrill
T4C0.0433
%
G90
G05
T1
X3.9672Y-3.8738
X3.9885Y-3.0856
X3.9885Y-3.1647
X3.9885Y-3.4006
X3.9885Y-3.4793
X3.998Y-3.7549
X4.016Y-3.9866
X4.016Y-4.0874
X4.0669Y-2.7587
X4.0826Y-3.8868
X4.0892Y-2.9194
X4.1046Y-3.0228
X4.312Y-2.818
X4.5261Y-3.7374
X4.558Y-1.8685
X4.566Y-2.4288
X4.598Y-2.058
X4.6429Y-1.7177
X4.8073Y-2.8583
X4.81Y-3.544
X4.822Y-2.254
X4.8461Y-2.9335
X4.874Y-3.8453
X4.906Y-3.4445
X4.9177Y-1.8094
X4.9177Y-2.0654
X5.116Y-4.09
X5.1638Y-2.8571
X5.1675Y-2.2476
X5.2025Y-1.796
X5.215Y-2.7059
X5.35Y-2.6488
X5.378Y-4.4528
X5.3858Y-3.5402
X5.3953Y-2.4614
X5.3996Y-1.5795
X5.4319Y-4.2016
X5.4394Y-3.811
X5.4756Y-2.7642
X5.616Y-3.7225
X5.664Y-4.084
X5.686Y-3.0336
X5.696Y-2.546
X5.7463Y-3.1524
X5.7463Y-3.576
X5.7567Y-2.9622
X5.7679Y-3.8922
X5.768Y-2.124
X5.776Y-2.8059
X5.8125Y-2.638
X5.8214Y-4.3266
X5.826Y-3.158
X5.826Y-3.3504
X5.8327Y-4.2169
X5.8341Y-2.8449
X5.842Y-2.252
X5.8471Y-1.9106
X5.895Y-3.715
X5.9398Y-2.374
X5.962Y-2.634
X6.018Y-2.202
X6.0386Y-2.584
X6.1049Y-1.5982
X6.1087Y-3.839
X6.164Y-4.611
X6.172Y-3.7205
X6.236Y-3.67
X6.2598Y-3.498
X6.286Y-2.362
X6.288Y-2.5325
X6.3Y-5.056
X6.312Y-2.616
X6.314Y-2.564
X6.3252Y-4.3933
X6.3398Y-5.499
X6.3413Y-1.6311
X6.3417Y-1.864
X6.344Y-3.686
X6.3492Y-1.6772
X6.3496Y-3.4332
X6.3547Y-3.5482
X6.365Y-3.25
X6.3724Y-2.0754
X6.3902Y-2.1768
X6.4183Y-2.8929
X6.4183Y-3.1504
X6.4217Y-4.9897
X6.44Y-4.43
X6.5524Y-3.4047
X6.5555Y-1.5797
X6.558Y-4.5
X6.574Y-3.838
X6.629Y-5.271
X6.6817Y-3.1146
X6.701Y-2.877
X6.724Y-3.7075
X6.7693Y-3.6138
X6.7803Y-1.9551
X6.835Y-3.7252
X6.9173Y-2.348
X6.9173Y-5.499
X6.9193Y-3.9189
X6.926Y-4.4169
X6.9559Y-1.8917
X6.9683Y-2.9547
X6.9923Y-3.0594
X7.0024Y-2.022
X7.0457Y-2.2854
X7.0594Y-3.2075
X7.0598Y-3.3547
X7.0748Y-3.4547
X7.1744Y-3.8394
X7.207Y-4.0984
X7.2317Y-3.0634
X7.3034Y-3.2262
X7.3101Y-1.8575
X7.4878Y-4.1612
X7.488Y-4.2669
X7.49Y-4.365
X7.496Y-4.5657
X7.5167Y-3.9685
X7.559Y-5.17
X7.5693Y-3.4933
X7.5709Y-2.0551
X7.5894Y-3.9177
X7.61Y-5.25
X7.633Y-2.945
X7.666Y-3.3614
X7.726Y-3.824
X7.7307Y-3.5547
X7.82Y-5.3085
X7.8256Y-5.4444
X7.8739Y-2.0595
X7.8739Y-2.85
X7.875Y-5.035
X7.884Y-1.866
X7.8909Y-3.137
X7.908Y-1.83
X7.9091Y-3.7955
X7.9268Y-2.0222
X8.0764Y-4.7697
X8.0972Y-2.4894
X8.1028Y-5.0685
X8.1622Y-2.0457
X8.1642Y-3.874
X8.165Y-3.7232
X8.172Y-4.1323
X8.185Y-4.888
X8.2154Y-3.9673
X8.468Y-3.7669
X8.476Y-3.6689
X8.528Y-3.0358
X8.6929Y-4.5012
X8.7283Y-3.1528
X8.9984Y-3.3862
T2
X4.2018Y-1.9043
X4.2026Y-2.076
X4.203Y-2.2531
X4.203Y-2.4288
X4.3018Y-1.9243
X4.3026Y-2.096
X4.303Y-2.2731
X4.303Y-2.4488
X4.4018Y-1.9043
X4.4026Y-2.076
X4.403Y-2.2531
X4.403Y-2.4288
X4.7122Y-2.7583
X4.722Y-1.6657
X4.722Y-1.7657
X4.722Y-1.8657
X4.722Y-1.9657
X4.722Y-2.0657
X4.722Y-2.1657
X4.722Y-2.2657
X4.722Y-2.3657
X4.722Y-2.4657
X4.722Y-2.5657
X4.7248Y-2.9441
X4.7248Y-3.0441
X4.7248Y-3.1441
X4.7248Y-3.2441
X4.7248Y-3.3441
X4.7248Y-3.4441
X4.7248Y-3.5441
X4.7248Y-3.6441
X4.7248Y-3.7441
X4.7248Y-3.8453
X4.7248Y-3.9453
X4.7248Y-4.0453
X4.7248Y-4.1453
X4.7248Y-4.2453
X4.7248Y-4.3453
X4.7248Y-4.4453
X4.7248Y-4.5453
X4.7248Y-4.6453
X4.9091Y-2.7583
X5.022Y-1.6657
X5.022Y-1.7657
X5.022Y-1.8657
X5.022Y-1.9657
X5.022Y-2.0657
X5.022Y-2.1657
X5.022Y-2.2657
X5.022Y-2.3657
X5.022Y-2.4657
X5.022Y-2.5657
X5.048Y-3.4945
X5.048Y-3.7945
X5.054Y-3.878
X5.054Y-4.378
X5.2488Y-3.7957
X5.2488Y-3.8957
X5.2488Y-3.9957
X5.2488Y-4.0957
X5.2488Y-4.1957
X5.2488Y-4.2957
X5.2488Y-4.3957
X5.2488Y-4.4957
X5.2571Y-4.6323
X5.2744Y-2.7571
X5.2744Y-2.8571
X5.2744Y-2.9571
X5.2744Y-3.0571
X5.2744Y-3.1571
X5.2744Y-3.2571
X5.2744Y-3.3571
X5.2764Y-2.4614
X5.2787Y-3.539
X5.285Y-1.6657
X5.285Y-1.7657
X5.285Y-1.8657
X5.285Y-1.9657
X5.285Y-2.0657
X5.285Y-2.1657
X5.285Y-2.2657
X5.34Y-5.12
X5.34Y-5.42
X5.44Y-5.12
X5.44Y-5.42
X5.4539Y-4.6323
X5.4732Y-2.4614
X5.4756Y-3.539
X5.5488Y-3.7957
X5.5488Y-3.8957
X5.5488Y-3.9957
X5.5488Y-4.0957
X5.5488Y-4.1957
X5.5488Y-4.2957
X5.5488Y-4.3957
X5.5488Y-4.4957
X5.5744Y-2.7571
X5.5744Y-2.8571
X5.5744Y-2.9571
X5.5744Y-3.0571
X5.5744Y-3.1571
X5.5744Y-3.2571
X5.5744Y-3.3571
X5.585Y-1.6657
X5.585Y-1.7657
X5.585Y-1.8657
X5.585Y-1.9657
X5.585Y-2.0657
X5.585Y-2.1657
X5.585Y-2.2657
X5.928Y-4.5496
X5.9441Y-3.8378
X5.9441Y-3.9378
X5.9441Y-4.0378
X5.9441Y-4.1378
X5.9441Y-4.2378
X5.9441Y-4.3378
X5.9441Y-4.4378
X5.9492Y-2.7504
X5.9492Y-2.8504
X5.9492Y-2.9504
X5.9492Y-3.0504
X5.9492Y-3.1504
X5.9492Y-3.2504
X5.9492Y-3.3504
X5.9516Y-1.6614
X5.9516Y-1.7614
X5.9516Y-1.8614
X5.9516Y-1.9614
X5.9516Y-2.0614
X5.9516Y-2.1614
X5.9516Y-2.2614
X5.9531Y-3.5378
X5.9606Y-2.4571
X6.0331Y-4.6988
X6.0331Y-5.1988
X6.1248Y-4.5496
X6.15Y-3.5378
X6.1575Y-2.4571
X6.1858Y-4.6976
X6.1858Y-5.1976
X6.2441Y-3.8378
X6.2441Y-3.9378
X6.2441Y-4.0378
X6.2441Y-4.1378
X6.2441Y-4.2378
X6.2441Y-4.3378
X6.2441Y-4.4378
X6.2492Y-2.7504
X6.2492Y-2.8504
X6.2492Y-2.9504
X6.2492Y-3.0504
X6.2492Y-3.1504
X6.2492Y-3.2504
X6.2492Y-3.3504
X6.2516Y-1.6614
X6.2516Y-1.7614
X6.2516Y-1.8614
X6.2516Y-1.9614
X6.2516Y-2.0614
X6.2516Y-2.1614
X6.2516Y-2.2614
X6.3315Y-4.6972
X6.3315Y-5.1972
X6.4795Y-4.6972
X6.4795Y-5.1972
X6.5488Y-1.9535
X6.5488Y-2.0535
X6.5488Y-2.1535
X6.5488Y-2.2535
X6.5488Y-2.3535
X6.5488Y-2.4535
X6.5488Y-2.5535
X6.5488Y-2.6535
X6.5488Y-2.7535
X6.5488Y-2.8535
X6.5488Y-2.9535
X6.5488Y-3.0535
X6.5488Y-3.1535
X6.5488Y-3.2535
X6.5559Y-1.8114
X6.6063Y-3.7197
X6.7173Y-5.3815
X6.7193Y-3.9169
X6.7193Y-4.0169
X6.7193Y-4.1169
X6.7193Y-4.2169
X6.7193Y-4.3169
X6.7193Y-4.4169
X6.7193Y-4.5169
X6.7193Y-4.6169
X6.7193Y-4.7169
X6.7193Y-4.8169
X6.7193Y-4.9169
X6.7193Y-5.0169
X6.7193Y-5.1169
X6.7193Y-5.2169
X6.7528Y-1.8114
X6.9142Y-5.3815
X7.1063Y-3.7197
X7.1488Y-1.9535
X7.1488Y-2.0535
X7.1488Y-2.1535
X7.1488Y-2.2535
X7.1488Y-2.3535
X7.1488Y-2.4535
X7.1488Y-2.5535
X7.1488Y-2.6535
X7.1488Y-2.7535
X7.1488Y-2.8535
X7.1488Y-2.9535
X7.1488Y-3.0535
X7.1488Y-3.1535
X7.1488Y-3.2535
X7.3193Y-3.9169
X7.3193Y-4.0169
X7.3193Y-4.1169
X7.3193Y-4.2169
X7.3193Y-4.3169
X7.3193Y-4.4169
X7.3193Y-4.5169
X7.3193Y-4.6169
X7.3193Y-4.7169
X7.3193Y-4.8169
X7.3193Y-4.9169
X7.3193Y-5.0169
X7.3193Y-5.1169
X7.3193Y-5.2169
X7.4169Y-1.6547
X7.4169Y-1.7547
X7.4169Y-1.8547
X7.4169Y-1.9547
X7.4169Y-2.0547
X7.4169Y-2.1547
X7.4169Y-2.2547
X7.4169Y-2.3547
X7.4169Y-2.4547
X7.4169Y-2.5547
X7.4169Y-2.6547
X7.4169Y-2.7547
X7.4169Y-2.8547
X7.4169Y-2.9547
X7.4169Y-3.0547
X7.4169Y-3.1547
X7.4169Y-3.2547
X7.4169Y-3.3547
X7.4169Y-3.4547
X7.4169Y-3.5547
X7.6902Y-3.9177
X7.6902Y-4.0177
X7.6902Y-4.1177
X7.6902Y-4.2177
X7.6902Y-4.3177
X7.6902Y-4.4177
X7.6902Y-4.5177
X7.6902Y-4.6177
X7.6902Y-4.7177
X7.6902Y-4.8177
X7.6902Y-4.9177
X7.6902Y-5.0177
X7.6902Y-5.1177
X7.6902Y-5.2177
X7.6902Y-5.3705
X7.8213Y-3.6665
X7.887Y-5.3705
X7.9902Y-3.9177
X7.9902Y-4.0177
X7.9902Y-4.1177
X7.9902Y-4.2177
X7.9902Y-4.3177
X7.9902Y-4.4177
X7.9902Y-4.5177
X7.9902Y-4.6177
X7.9902Y-4.7177
X7.9902Y-4.8177
X7.9902Y-4.9177
X7.9902Y-5.0177
X7.9902Y-5.1177
X7.9902Y-5.2177
X8.0169Y-1.6547
X8.0169Y-1.7547
X8.0169Y-1.8547
X8.0169Y-1.9547
X8.0169Y-2.0547
X8.0169Y-2.1547
X8.0169Y-2.2547
X8.0169Y-2.3547
X8.0169Y-2.4547
X8.0169Y-2.5547
X8.0169Y-2.6547
X8.0169Y-2.7547
X8.0169Y-2.8547
X8.0169Y-2.9547
X8.0169Y-3.0547
X8.0169Y-3.1547
X8.0169Y-3.2547
X8.0169Y-3.3547
X8.0169Y-3.4547
X8.0169Y-3.5547
X8.0181Y-3.6665
X8.1728Y-1.7555
X8.1831Y-3.3146
X8.276Y-1.9567
X8.276Y-2.4567
X8.2768Y-2.5476
X8.2768Y-3.0476
X8.2811Y-3.5169
X8.2811Y-3.6169
X8.2811Y-3.7169
X8.2811Y-3.8169
X8.2811Y-3.9169
X8.2811Y-4.0169
X8.2811Y-4.1169
X8.2811Y-4.2169
X8.2811Y-4.3169
X8.2811Y-4.4169
X8.2811Y-4.5169
X8.2811Y-4.6169
X8.2811Y-4.7169
X8.2811Y-4.8169
X8.2811Y-4.9169
X8.2811Y-5.0169
X8.2811Y-5.1169
X8.2811Y-5.2169
X8.2811Y-5.3169
X8.2811Y-5.4169
X8.3799Y-3.3146
X8.4201Y-2.5465
X8.4201Y-3.0465
X8.422Y-1.9591
X8.422Y-2.4591
X8.5287Y-3.1402
X8.5319Y-3.2961
X8.5752Y-1.9591
X8.5752Y-2.4591
X8.6602Y-2.6921
X8.6602Y-2.9921
X8.6728Y-1.7555
X8.7457Y-1.9531
X8.7457Y-2.4531
X8.7602Y-2.6921
X8.7602Y-2.9921
X8.7709Y-2.5701
X8.798Y-1.6807
X8.798Y-1.7898
X8.8602Y-2.6921
X8.8602Y-2.9921
X8.8811Y-3.5169
X8.8811Y-3.6169
X8.8811Y-3.7169
X8.8811Y-3.8169
X8.8811Y-3.9169
X8.8811Y-4.0169
X8.8811Y-4.1169
X8.8811Y-4.2169
X8.8811Y-4.3169
X8.8811Y-4.4169
X8.8811Y-4.5169
X8.8811Y-4.6169
X8.8811Y-4.7169
X8.8811Y-4.8169
X8.8811Y-4.9169
X8.8811Y-5.0169
X8.8811Y-5.1169
X8.8811Y-5.2169
X8.8811Y-5.3169
X8.8811Y-5.4169
X8.9472Y-1.9807
X8.9472Y-2.2807
X8.9602Y-2.6921
X8.9602Y-2.9921
X8.9949Y-1.6807
X8.9949Y-1.7898
X9.0287Y-3.1402
X9.0319Y-3.2961
X9.0457Y-4.1157
X9.0457Y-4.6157
X9.0602Y-2.6921
X9.0602Y-2.9921
X9.0654Y-2.4272
X9.1602Y-2.6921
X9.1602Y-2.9921
X9.1642Y-3.2937
X9.1642Y-3.3937
X9.1642Y-3.4937
X9.1642Y-3.5937
X9.1642Y-3.6937
X9.1642Y-3.7937
X9.1642Y-3.8937
X9.1642Y-3.9937
X9.1929Y-4.1165
X9.1929Y-4.6165
X9.2472Y-1.9807
X9.2472Y-2.2807
X9.2602Y-2.6921
X9.2602Y-2.9921
X9.2622Y-2.4272
X9.2709Y-2.5701
T3
X3.7904Y-4.79
X3.7904Y-4.89
X3.7904Y-4.99
X3.7904Y-5.09
X4.016Y-4.79
X4.016Y-4.89
X4.016Y-4.99
X4.016Y-5.09
X4.0183Y-1.9046
X4.0183Y-2.0046
X4.0183Y-2.1046
X4.0183Y-2.2046
X4.0183Y-2.3046
X4.0183Y-2.4046
X4.1508Y-2.8701
X4.1508Y-2.9701
X4.1508Y-3.0701
X4.1508Y-3.1701
X4.1508Y-3.2701
X4.1508Y-3.3701
X4.1508Y-3.4701
X4.1508Y-3.5701
X4.1508Y-3.6701
X4.1508Y-3.7701
X4.1508Y-3.8701
X4.1508Y-3.9701
X4.1508Y-4.0701
X4.1508Y-4.1701
X4.1508Y-4.2701
X4.1508Y-4.3701
X4.1508Y-4.4701
X4.2508Y-2.8701
X4.2508Y-2.9701
X4.2508Y-3.0701
X4.2508Y-3.1701
X4.2508Y-3.2701
X4.2508Y-3.3701
X4.2508Y-3.4701
X4.2508Y-3.5701
X4.2508Y-3.6701
X4.2508Y-3.7701
X4.2508Y-3.8701
X4.2508Y-3.9701
X4.2508Y-4.0701
X4.2508Y-4.1701
X4.2508Y-4.2701
X4.2508Y-4.3701
X4.2508Y-4.4701
X4.445Y-1.613
X4.4713Y-2.8701
X4.4713Y-2.9701
X4.4713Y-3.0701
X4.4744Y-3.9683
X4.4744Y-4.0683
X4.4744Y-4.1683
X4.4803Y-4.4626
X4.4803Y-4.5626
X4.4803Y-4.6626
X4.545Y-1.613
X5.7906Y-5.387
X5.8906Y-5.387
X5.9906Y-5.387
X6.3406Y-5.3728
X6.4406Y-5.3728
X8.2024Y-1.6059
X8.3024Y-1.6059
T4
X4.1484Y-5.2862
X4.1484Y-5.4862
X4.29Y-4.89
X4.29Y-4.99
X4.29Y-5.09
X4.3933Y-5.2846
X4.3933Y-5.4846
X5.0583Y-2.7878
X5.0583Y-2.9878
T3
G00X4.9356Y-5.0219
M15
G01X5.0143Y-5.0219
M16
G05
G00X4.9356Y-5.2581
M15
G01X5.0143Y-5.2581
M16
G05
G00X5.16Y-5.1794
M15
G01X5.16Y-5.1006
M16
G05
M30
