%TF.GenerationSoftware,KiCad,Pcbnew,9.0.4*%
%TF.CreationDate,2025-09-17T13:48:34-04:00*%
%TF.ProjectId,C1581i,43313538-3169-42e6-9b69-6361645f7063,PROTO 2*%
%TF.SameCoordinates,Original*%
%TF.FileFunction,Soldermask,Bot*%
%TF.FilePolarity,Negative*%
%FSLAX46Y46*%
G04 Gerber Fmt 4.6, Leading zero omitted, Abs format (unit mm)*
G04 Created by KiCad (PCBNEW 9.0.4) date 2025-09-17 13:48:34*
%MOMM*%
%LPD*%
G01*
G04 APERTURE LIST*
G04 Aperture macros list*
%AMRoundRect*
0 Rectangle with rounded corners*
0 $1 Rounding radius*
0 $2 $3 $4 $5 $6 $7 $8 $9 X,Y pos of 4 corners*
0 Add a 4 corners polygon primitive as box body*
4,1,4,$2,$3,$4,$5,$6,$7,$8,$9,$2,$3,0*
0 Add four circle primitives for the rounded corners*
1,1,$1+$1,$2,$3*
1,1,$1+$1,$4,$5*
1,1,$1+$1,$6,$7*
1,1,$1+$1,$8,$9*
0 Add four rect primitives between the rounded corners*
20,1,$1+$1,$2,$3,$4,$5,0*
20,1,$1+$1,$4,$5,$6,$7,0*
20,1,$1+$1,$6,$7,$8,$9,0*
20,1,$1+$1,$8,$9,$2,$3,0*%
G04 Aperture macros list end*
%ADD10C,1.600000*%
%ADD11R,2.400000X1.600000*%
%ADD12O,2.400000X1.600000*%
%ADD13O,1.600000X1.600000*%
%ADD14R,1.600000X1.600000*%
%ADD15R,2.300000X2.300000*%
%ADD16C,2.300000*%
%ADD17R,1.700000X1.700000*%
%ADD18O,1.700000X1.700000*%
%ADD19R,2.000000X1.905000*%
%ADD20O,2.000000X1.905000*%
%ADD21R,1.600000X2.400000*%
%ADD22O,1.600000X2.400000*%
%ADD23R,3.500000X3.500000*%
%ADD24RoundRect,0.750000X1.000000X-0.750000X1.000000X0.750000X-1.000000X0.750000X-1.000000X-0.750000X0*%
%ADD25RoundRect,0.875000X0.875000X-0.875000X0.875000X0.875000X-0.875000X0.875000X-0.875000X-0.875000X0*%
G04 APERTURE END LIST*
D10*
%TO.C,EM2*%
X106725000Y-48370000D03*
X109265000Y-48878000D03*
X111805000Y-48370000D03*
%TD*%
D11*
%TO.C,U12*%
X158790000Y-57440000D03*
D12*
X158790000Y-54900000D03*
X158790000Y-52360000D03*
X158790000Y-49820000D03*
X158790000Y-47280000D03*
X158790000Y-44740000D03*
X158790000Y-42200000D03*
X151170000Y-42200000D03*
X151170000Y-44740000D03*
X151170000Y-47280000D03*
X151170000Y-49820000D03*
X151170000Y-52360000D03*
X151170000Y-54900000D03*
X151170000Y-57440000D03*
%TD*%
D10*
%TO.C,C14*%
X223470000Y-42690000D03*
X228470000Y-42690000D03*
%TD*%
%TO.C,C5*%
X198660000Y-93130000D03*
X203660000Y-93130000D03*
%TD*%
%TO.C,FB3*%
X217810000Y-62460000D03*
D13*
X217810000Y-49760000D03*
%TD*%
D14*
%TO.C,RP1*%
X120010000Y-74780000D03*
D13*
X120010000Y-77320000D03*
X120010000Y-79860000D03*
X120010000Y-82400000D03*
X120010000Y-84940000D03*
X120010000Y-87480000D03*
X120010000Y-90020000D03*
X120010000Y-92560000D03*
X120010000Y-95100000D03*
%TD*%
D15*
%TO.C,C91*%
X111590000Y-134230000D03*
D16*
X111590000Y-139310000D03*
%TD*%
D17*
%TO.C,J2*%
X113800000Y-113350000D03*
D18*
X113800000Y-115890000D03*
X113800000Y-118430000D03*
%TD*%
D14*
%TO.C,D1*%
X128220000Y-96380000D03*
D13*
X128220000Y-88760000D03*
%TD*%
D10*
%TO.C,EM3*%
X111835000Y-61692000D03*
X109295000Y-62200000D03*
X106755000Y-61692000D03*
%TD*%
%TO.C,C10*%
X230260000Y-61650000D03*
X235260000Y-61650000D03*
%TD*%
%TO.C,C1*%
X212850000Y-84190000D03*
X207850000Y-84190000D03*
%TD*%
%TO.C,R2*%
X128371600Y-98501200D03*
D13*
X128371600Y-111201200D03*
%TD*%
D10*
%TO.C,R5*%
X207590000Y-44590000D03*
D13*
X220290000Y-44590000D03*
%TD*%
D10*
%TO.C,EM4*%
X111834999Y-57230000D03*
X109294999Y-57738000D03*
X106754999Y-57230000D03*
%TD*%
%TO.C,R1*%
X233500000Y-117260000D03*
D13*
X233500000Y-104560000D03*
%TD*%
D17*
%TO.C,J3*%
X113650000Y-105875000D03*
D18*
X113650000Y-103335000D03*
X113650000Y-100795000D03*
%TD*%
D10*
%TO.C,C3*%
X195330000Y-136410000D03*
X200330000Y-136410000D03*
%TD*%
D17*
%TO.C,J1*%
X113570000Y-72900000D03*
D18*
X113570000Y-75440000D03*
X113570000Y-77980000D03*
%TD*%
D17*
%TO.C,J5*%
X163590000Y-136470000D03*
D18*
X161050000Y-136470000D03*
%TD*%
D10*
%TO.C,R10*%
X229410000Y-83720000D03*
D13*
X216710000Y-83720000D03*
%TD*%
D15*
%TO.C,C20*%
X128480000Y-75890000D03*
D16*
X128480000Y-70810000D03*
%TD*%
D10*
%TO.C,C15*%
X223470000Y-45460000D03*
X228470000Y-45460000D03*
%TD*%
D15*
%TO.C,C90*%
X105370000Y-134270000D03*
D16*
X105370000Y-139350000D03*
%TD*%
D10*
%TO.C,FB1*%
X229760000Y-117240000D03*
D13*
X229760000Y-104540000D03*
%TD*%
D11*
%TO.C,U3*%
X202950000Y-132530000D03*
D12*
X202950000Y-129990000D03*
X202950000Y-127450000D03*
X202950000Y-124910000D03*
X202950000Y-122370000D03*
X202950000Y-119830000D03*
X202950000Y-117290000D03*
X202950000Y-114750000D03*
X202950000Y-112210000D03*
X202950000Y-109670000D03*
X202950000Y-107130000D03*
X202950000Y-104590000D03*
X202950000Y-102050000D03*
X202950000Y-99510000D03*
X195330000Y-99510000D03*
X195330000Y-102050000D03*
X195330000Y-104590000D03*
X195330000Y-107130000D03*
X195330000Y-109670000D03*
X195330000Y-112210000D03*
X195330000Y-114750000D03*
X195330000Y-117290000D03*
X195330000Y-119830000D03*
X195330000Y-122370000D03*
X195330000Y-124910000D03*
X195330000Y-127450000D03*
X195330000Y-129990000D03*
X195330000Y-132530000D03*
%TD*%
D10*
%TO.C,R14*%
X164580000Y-132010000D03*
D13*
X164580000Y-119310000D03*
%TD*%
D14*
%TO.C,SW1*%
X135636000Y-137668000D03*
D13*
X138176000Y-137668000D03*
X138176000Y-130048000D03*
X135636000Y-130048000D03*
%TD*%
D10*
%TO.C,FB2*%
X213870000Y-64680000D03*
D13*
X213870000Y-77380000D03*
%TD*%
D10*
%TO.C,C11*%
X150570000Y-115560000D03*
X155570000Y-115560000D03*
%TD*%
%TO.C,R12*%
X160820000Y-132010000D03*
D13*
X160820000Y-119310000D03*
%TD*%
D11*
%TO.C,U13*%
X127560000Y-65170000D03*
D12*
X127560000Y-62630000D03*
X127560000Y-60090000D03*
X127560000Y-57550000D03*
X127560000Y-55010000D03*
X127560000Y-52470000D03*
X127560000Y-49930000D03*
X127560000Y-47390000D03*
X127560000Y-44850000D03*
X127560000Y-42310000D03*
X119940000Y-42310000D03*
X119940000Y-44850000D03*
X119940000Y-47390000D03*
X119940000Y-49930000D03*
X119940000Y-52470000D03*
X119940000Y-55010000D03*
X119940000Y-57550000D03*
X119940000Y-60090000D03*
X119940000Y-62630000D03*
X119940000Y-65170000D03*
%TD*%
D19*
%TO.C,U90*%
X108966000Y-129286000D03*
D20*
X108966000Y-126746000D03*
X108966000Y-124206000D03*
%TD*%
D17*
%TO.C,J6*%
X112903000Y-40970200D03*
D18*
X115443000Y-40970200D03*
%TD*%
D10*
%TO.C,C8*%
X151210000Y-89860000D03*
X156210000Y-89860000D03*
%TD*%
D17*
%TO.C,CN2*%
X107970000Y-113540000D03*
D18*
X105430000Y-113540000D03*
X107970000Y-111000000D03*
X105430000Y-111000000D03*
X107970000Y-108460000D03*
X105430000Y-108460000D03*
X107970000Y-105920000D03*
X105430000Y-105920000D03*
X107970000Y-103380000D03*
X105430000Y-103380000D03*
X107970000Y-100840000D03*
X105430000Y-100840000D03*
X107970000Y-98300000D03*
X105430000Y-98300000D03*
X107970000Y-95760000D03*
X105430000Y-95760000D03*
X107970000Y-93220000D03*
X105430000Y-93220000D03*
X107970000Y-90680000D03*
X105430000Y-90680000D03*
X107970000Y-88140000D03*
X105430000Y-88140000D03*
X107970000Y-85600000D03*
X105430000Y-85600000D03*
X107970000Y-83060000D03*
X105430000Y-83060000D03*
X107970000Y-80520000D03*
X105430000Y-80520000D03*
X107970000Y-77980000D03*
X105430000Y-77980000D03*
X107970000Y-75440000D03*
X105430000Y-75440000D03*
X107970000Y-72900000D03*
X105430000Y-72900000D03*
%TD*%
D21*
%TO.C,U10*%
X235210000Y-68380000D03*
D22*
X232670000Y-68380000D03*
X230130000Y-68380000D03*
X227590000Y-68380000D03*
X225050000Y-68380000D03*
X222510000Y-68380000D03*
X219970000Y-68380000D03*
X219970000Y-76000000D03*
X222510000Y-76000000D03*
X225050000Y-76000000D03*
X227590000Y-76000000D03*
X230130000Y-76000000D03*
X232670000Y-76000000D03*
X235210000Y-76000000D03*
%TD*%
D17*
%TO.C,CN1*%
X102006400Y-129286000D03*
D18*
X102006400Y-126746000D03*
X102006400Y-124206000D03*
X102006400Y-121666000D03*
%TD*%
D17*
%TO.C,JP1*%
X208340000Y-40790000D03*
D18*
X210880000Y-40790000D03*
%TD*%
D10*
%TO.C,FB5*%
X216630000Y-79760000D03*
D13*
X229330000Y-79760000D03*
%TD*%
D10*
%TO.C,R4*%
X167800000Y-94480000D03*
D13*
X180500000Y-94480000D03*
%TD*%
D10*
%TO.C,R13*%
X157120000Y-119320000D03*
D13*
X157120000Y-132020000D03*
%TD*%
D10*
%TO.C,C4*%
X166520000Y-46010000D03*
X171520000Y-46010000D03*
%TD*%
%TO.C,FB6*%
X210210000Y-49700000D03*
D13*
X210210000Y-62400000D03*
%TD*%
D10*
%TO.C,C9*%
X134020000Y-62520000D03*
X139020000Y-62520000D03*
%TD*%
D11*
%TO.C,U4*%
X181580000Y-82640000D03*
D12*
X181580000Y-80100000D03*
X181580000Y-77560000D03*
X181580000Y-75020000D03*
X181580000Y-72480000D03*
X181580000Y-69940000D03*
X181580000Y-67400000D03*
X181580000Y-64860000D03*
X181580000Y-62320000D03*
X181580000Y-59780000D03*
X181580000Y-57240000D03*
X181580000Y-54700000D03*
X181580000Y-52160000D03*
X181580000Y-49620000D03*
X166340000Y-49620000D03*
X166340000Y-52160000D03*
X166340000Y-54700000D03*
X166340000Y-57240000D03*
X166340000Y-59780000D03*
X166340000Y-62320000D03*
X166340000Y-64860000D03*
X166340000Y-67400000D03*
X166340000Y-69940000D03*
X166340000Y-72480000D03*
X166340000Y-75020000D03*
X166340000Y-77560000D03*
X166340000Y-80100000D03*
X166340000Y-82640000D03*
%TD*%
D10*
%TO.C,EM1*%
X111825000Y-52730000D03*
X109285000Y-53238000D03*
X106745000Y-52730000D03*
%TD*%
%TO.C,C12*%
X151400000Y-62410000D03*
X156400000Y-62410000D03*
%TD*%
%TO.C,C13*%
X119690000Y-70060000D03*
X124690000Y-70060000D03*
%TD*%
%TO.C,C7*%
X134080000Y-89890000D03*
X139080000Y-89890000D03*
%TD*%
%TO.C,C2*%
X170620000Y-136690000D03*
X175620000Y-136690000D03*
%TD*%
%TO.C,R3*%
X210230000Y-64710000D03*
D13*
X210230000Y-77410000D03*
%TD*%
D17*
%TO.C,CN8*%
X96276400Y-129286000D03*
D18*
X96276400Y-126746000D03*
X96276400Y-124206000D03*
X96276400Y-121666000D03*
%TD*%
D11*
%TO.C,U1*%
X210340000Y-89330000D03*
D12*
X210340000Y-91870000D03*
X210340000Y-94410000D03*
X210340000Y-96950000D03*
X210340000Y-99490000D03*
X210340000Y-102030000D03*
X210340000Y-104570000D03*
X210340000Y-107110000D03*
X210340000Y-109650000D03*
X210340000Y-112190000D03*
X210340000Y-114730000D03*
X210340000Y-117270000D03*
X210340000Y-119810000D03*
X210340000Y-122350000D03*
X210340000Y-124890000D03*
X210340000Y-127430000D03*
X210340000Y-129970000D03*
X210340000Y-132510000D03*
X210340000Y-135050000D03*
X210340000Y-137590000D03*
X225580000Y-137590000D03*
X225580000Y-135050000D03*
X225580000Y-132510000D03*
X225580000Y-129970000D03*
X225580000Y-127430000D03*
X225580000Y-124890000D03*
X225580000Y-122350000D03*
X225580000Y-119810000D03*
X225580000Y-117270000D03*
X225580000Y-114730000D03*
X225580000Y-112190000D03*
X225580000Y-109650000D03*
X225580000Y-107110000D03*
X225580000Y-104570000D03*
X225580000Y-102030000D03*
X225580000Y-99490000D03*
X225580000Y-96950000D03*
X225580000Y-94410000D03*
X225580000Y-91870000D03*
X225580000Y-89330000D03*
%TD*%
D11*
%TO.C,U7*%
X141590000Y-85270000D03*
D12*
X141590000Y-82730000D03*
X141590000Y-80190000D03*
X141590000Y-77650000D03*
X141590000Y-75110000D03*
X141590000Y-72570000D03*
X141590000Y-70030000D03*
X133970000Y-70030000D03*
X133970000Y-72570000D03*
X133970000Y-75110000D03*
X133970000Y-77650000D03*
X133970000Y-80190000D03*
X133970000Y-82730000D03*
X133970000Y-85270000D03*
%TD*%
D10*
%TO.C,R11*%
X213920000Y-49760000D03*
D13*
X213920000Y-62460000D03*
%TD*%
D17*
%TO.C,CN5*%
X147080000Y-136830000D03*
D18*
X149620000Y-136830000D03*
X152160000Y-136830000D03*
%TD*%
D14*
%TO.C,X1*%
X227260000Y-57930000D03*
D10*
X234880000Y-57930000D03*
X234880000Y-50310000D03*
X227260000Y-50310000D03*
%TD*%
D11*
%TO.C,U5*%
X203630000Y-90290000D03*
D12*
X203630000Y-87750000D03*
X203630000Y-85210000D03*
X203630000Y-82670000D03*
X203630000Y-80130000D03*
X203630000Y-77590000D03*
X203630000Y-75050000D03*
X203630000Y-72510000D03*
X203630000Y-69970000D03*
X203630000Y-67430000D03*
X203630000Y-64890000D03*
X203630000Y-62350000D03*
X203630000Y-59810000D03*
X203630000Y-57270000D03*
X203630000Y-54730000D03*
X203630000Y-52190000D03*
X203630000Y-49650000D03*
X203630000Y-47110000D03*
X203630000Y-44570000D03*
X203630000Y-42030000D03*
X188390000Y-42030000D03*
X188390000Y-44570000D03*
X188390000Y-47110000D03*
X188390000Y-49650000D03*
X188390000Y-52190000D03*
X188390000Y-54730000D03*
X188390000Y-57270000D03*
X188390000Y-59810000D03*
X188390000Y-62350000D03*
X188390000Y-64890000D03*
X188390000Y-67430000D03*
X188390000Y-69970000D03*
X188390000Y-72510000D03*
X188390000Y-75050000D03*
X188390000Y-77590000D03*
X188390000Y-80130000D03*
X188390000Y-82670000D03*
X188390000Y-85210000D03*
X188390000Y-87750000D03*
X188390000Y-90290000D03*
%TD*%
D10*
%TO.C,C6*%
X133530000Y-117660000D03*
X138530000Y-117660000D03*
%TD*%
D14*
%TO.C,RP2*%
X232770000Y-83660000D03*
D13*
X232770000Y-86200000D03*
X232770000Y-88740000D03*
X232770000Y-91280000D03*
X232770000Y-93820000D03*
X232770000Y-96360000D03*
X232770000Y-98900000D03*
X232770000Y-101440000D03*
%TD*%
D17*
%TO.C,CN7*%
X102065000Y-61078000D03*
D18*
X102065000Y-58538000D03*
X102065000Y-55998000D03*
X102065000Y-53458000D03*
X102065000Y-50918000D03*
X102065000Y-48378000D03*
%TD*%
D11*
%TO.C,U6*%
X140940000Y-114190000D03*
D12*
X140940000Y-111650000D03*
X140940000Y-109110000D03*
X140940000Y-106570000D03*
X140940000Y-104030000D03*
X140940000Y-101490000D03*
X140940000Y-98950000D03*
X140940000Y-96410000D03*
X133320000Y-96410000D03*
X133320000Y-98950000D03*
X133320000Y-101490000D03*
X133320000Y-104030000D03*
X133320000Y-106570000D03*
X133320000Y-109110000D03*
X133320000Y-111650000D03*
X133320000Y-114190000D03*
%TD*%
D11*
%TO.C,U8*%
X158730000Y-85100000D03*
D12*
X158730000Y-82560000D03*
X158730000Y-80020000D03*
X158730000Y-77480000D03*
X158730000Y-74940000D03*
X158730000Y-72400000D03*
X158730000Y-69860000D03*
X151110000Y-69860000D03*
X151110000Y-72400000D03*
X151110000Y-74940000D03*
X151110000Y-77480000D03*
X151110000Y-80020000D03*
X151110000Y-82560000D03*
X151110000Y-85100000D03*
%TD*%
D11*
%TO.C,U2*%
X185910000Y-132510000D03*
D12*
X185910000Y-129970000D03*
X185910000Y-127430000D03*
X185910000Y-124890000D03*
X185910000Y-122350000D03*
X185910000Y-119810000D03*
X185910000Y-117270000D03*
X185910000Y-114730000D03*
X185910000Y-112190000D03*
X185910000Y-109650000D03*
X185910000Y-107110000D03*
X185910000Y-104570000D03*
X185910000Y-102030000D03*
X185910000Y-99490000D03*
X170670000Y-99490000D03*
X170670000Y-102030000D03*
X170670000Y-104570000D03*
X170670000Y-107110000D03*
X170670000Y-109650000D03*
X170670000Y-112190000D03*
X170670000Y-114730000D03*
X170670000Y-117270000D03*
X170670000Y-119810000D03*
X170670000Y-122350000D03*
X170670000Y-124890000D03*
X170670000Y-127430000D03*
X170670000Y-129970000D03*
X170670000Y-132510000D03*
%TD*%
D23*
%TO.C,J90*%
X126364000Y-127556000D03*
D24*
X126364000Y-133556000D03*
D25*
X131064000Y-130556000D03*
%TD*%
D14*
%TO.C,RP11*%
X120010000Y-117990000D03*
D13*
X120010000Y-115450000D03*
X120010000Y-112910000D03*
X120010000Y-110370000D03*
X120010000Y-107830000D03*
X120010000Y-105290000D03*
X120010000Y-102750000D03*
X120010000Y-100210000D03*
X120010000Y-97670000D03*
%TD*%
D10*
%TO.C,R6*%
X153240000Y-132050000D03*
D13*
X153240000Y-119350000D03*
%TD*%
D11*
%TO.C,U11*%
X158600000Y-112720000D03*
D12*
X158600000Y-110180000D03*
X158600000Y-107640000D03*
X158600000Y-105100000D03*
X158600000Y-102560000D03*
X158600000Y-100020000D03*
X158600000Y-97480000D03*
X150980000Y-97480000D03*
X150980000Y-100020000D03*
X150980000Y-102560000D03*
X150980000Y-105100000D03*
X150980000Y-107640000D03*
X150980000Y-110180000D03*
X150980000Y-112720000D03*
%TD*%
D11*
%TO.C,U9*%
X141860000Y-57550000D03*
D12*
X141860000Y-55010000D03*
X141860000Y-52470000D03*
X141860000Y-49930000D03*
X141860000Y-47390000D03*
X141860000Y-44850000D03*
X141860000Y-42310000D03*
X134240000Y-42310000D03*
X134240000Y-44850000D03*
X134240000Y-47390000D03*
X134240000Y-49930000D03*
X134240000Y-52470000D03*
X134240000Y-55010000D03*
X134240000Y-57550000D03*
%TD*%
D10*
%TO.C,R9*%
X235480000Y-65280000D03*
D13*
X222780000Y-65280000D03*
%TD*%
D10*
%TO.C,FB4*%
X222140000Y-49610000D03*
D13*
X222140000Y-62310000D03*
%TD*%
M02*
