%TF.GenerationSoftware,KiCad,Pcbnew,9.0.4*%
%TF.CreationDate,2025-12-02T10:36:04-05:00*%
%TF.ProjectId,C1581i,43313538-3169-42e6-9b69-6361645f7063,PROTO 2*%
%TF.SameCoordinates,Original*%
%TF.FileFunction,Copper,L2,Bot*%
%TF.FilePolarity,Positive*%
%FSLAX46Y46*%
G04 Gerber Fmt 4.6, Leading zero omitted, Abs format (unit mm)*
G04 Created by KiCad (PCBNEW 9.0.4) date 2025-12-02 10:36:04*
%MOMM*%
%LPD*%
G01*
G04 APERTURE LIST*
G04 Aperture macros list*
%AMRoundRect*
0 Rectangle with rounded corners*
0 $1 Rounding radius*
0 $2 $3 $4 $5 $6 $7 $8 $9 X,Y pos of 4 corners*
0 Add a 4 corners polygon primitive as box body*
4,1,4,$2,$3,$4,$5,$6,$7,$8,$9,$2,$3,0*
0 Add four circle primitives for the rounded corners*
1,1,$1+$1,$2,$3*
1,1,$1+$1,$4,$5*
1,1,$1+$1,$6,$7*
1,1,$1+$1,$8,$9*
0 Add four rect primitives between the rounded corners*
20,1,$1+$1,$2,$3,$4,$5,0*
20,1,$1+$1,$4,$5,$6,$7,0*
20,1,$1+$1,$6,$7,$8,$9,0*
20,1,$1+$1,$8,$9,$2,$3,0*%
G04 Aperture macros list end*
%TA.AperFunction,ComponentPad*%
%ADD10R,2.400000X1.600000*%
%TD*%
%TA.AperFunction,ComponentPad*%
%ADD11O,2.400000X1.600000*%
%TD*%
%TA.AperFunction,ComponentPad*%
%ADD12C,1.600000*%
%TD*%
%TA.AperFunction,ComponentPad*%
%ADD13O,1.600000X1.600000*%
%TD*%
%TA.AperFunction,ComponentPad*%
%ADD14R,1.600000X1.600000*%
%TD*%
%TA.AperFunction,ComponentPad*%
%ADD15R,2.300000X2.300000*%
%TD*%
%TA.AperFunction,ComponentPad*%
%ADD16C,2.300000*%
%TD*%
%TA.AperFunction,ComponentPad*%
%ADD17R,1.700000X1.700000*%
%TD*%
%TA.AperFunction,ComponentPad*%
%ADD18O,1.700000X1.700000*%
%TD*%
%TA.AperFunction,ComponentPad*%
%ADD19R,2.000000X1.905000*%
%TD*%
%TA.AperFunction,ComponentPad*%
%ADD20O,2.000000X1.905000*%
%TD*%
%TA.AperFunction,ComponentPad*%
%ADD21R,1.600000X2.400000*%
%TD*%
%TA.AperFunction,ComponentPad*%
%ADD22O,1.600000X2.400000*%
%TD*%
%TA.AperFunction,ComponentPad*%
%ADD23R,3.500000X3.500000*%
%TD*%
%TA.AperFunction,ComponentPad*%
%ADD24RoundRect,0.750000X1.000000X-0.750000X1.000000X0.750000X-1.000000X0.750000X-1.000000X-0.750000X0*%
%TD*%
%TA.AperFunction,ComponentPad*%
%ADD25RoundRect,0.875000X0.875000X-0.875000X0.875000X0.875000X-0.875000X0.875000X-0.875000X-0.875000X0*%
%TD*%
%TA.AperFunction,ViaPad*%
%ADD26C,0.800000*%
%TD*%
%TA.AperFunction,Conductor*%
%ADD27C,0.250000*%
%TD*%
%TA.AperFunction,Conductor*%
%ADD28C,1.000000*%
%TD*%
G04 APERTURE END LIST*
D10*
%TO.P,U12,1*%
%TO.N,ACTLED*%
X158790000Y-57440000D03*
D11*
%TO.P,U12,2*%
%TO.N,Net-(R13-Pad1)*%
X158790000Y-54900000D03*
%TO.P,U12,3*%
%TO.N,DATA_OUT*%
X158790000Y-52360000D03*
%TO.P,U12,4*%
%TO.N,DATA*%
X158790000Y-49820000D03*
%TO.P,U12,5*%
%TO.N,CLK_OUT*%
X158790000Y-47280000D03*
%TO.P,U12,6*%
%TO.N,SLOW_CLK*%
X158790000Y-44740000D03*
%TO.P,U12,7,GND*%
%TO.N,GND*%
X158790000Y-42200000D03*
%TO.P,U12,8*%
%TO.N,Net-(R12-Pad2)*%
X151170000Y-42200000D03*
%TO.P,U12,9*%
%TO.N,POWERLED*%
X151170000Y-44740000D03*
%TO.P,U12,10*%
%TO.N,Net-(D1-A)*%
X151170000Y-47280000D03*
%TO.P,U12,11*%
%TO.N,Net-(U12-Pad11)*%
X151170000Y-49820000D03*
%TO.P,U12,12*%
%TO.N,~{RESET}*%
X151170000Y-52360000D03*
%TO.P,U12,13*%
%TO.N,Net-(U12-Pad13)*%
X151170000Y-54900000D03*
%TO.P,U12,14,VCC*%
%TO.N,5V*%
X151170000Y-57440000D03*
%TD*%
D12*
%TO.P,FB4,1*%
%TO.N,Net-(X1-OUT)*%
X222140000Y-49610000D03*
D13*
%TO.P,FB4,2*%
%TO.N,Net-(FB4-Pad2)*%
X222140000Y-62310000D03*
%TD*%
D12*
%TO.P,C14,1*%
%TO.N,Net-(X1-Vcc)*%
X223470000Y-42690000D03*
%TO.P,C14,2*%
%TO.N,GND*%
X228470000Y-42690000D03*
%TD*%
%TO.P,C5,1*%
%TO.N,5V*%
X198660000Y-93130000D03*
%TO.P,C5,2*%
%TO.N,GND*%
X203660000Y-93130000D03*
%TD*%
%TO.P,FB3,1*%
%TO.N,Net-(U10-Q1)*%
X217810000Y-62460000D03*
D13*
%TO.P,FB3,2*%
%TO.N,Net-(FB3-Pad2)*%
X217810000Y-49760000D03*
%TD*%
D14*
%TO.P,RP1,1,R1*%
%TO.N,5V*%
X123075000Y-75485000D03*
D13*
%TO.P,RP1,2,R1.2*%
%TO.N,~{RDY}*%
X123075000Y-78025000D03*
%TO.P,RP1,3,R2.2*%
%TO.N,READDATA*%
X123075000Y-80565000D03*
%TO.P,RP1,4,R3.2*%
%TO.N,WRITEPROTECT*%
X123075000Y-83105000D03*
%TO.P,RP1,5,R4.2*%
%TO.N,TRACK00*%
X123075000Y-85645000D03*
%TO.P,RP1,6,R5.2*%
%TO.N,CNT*%
X123075000Y-88185000D03*
%TO.P,RP1,7,R6.2*%
%TO.N,SP*%
X123075000Y-90725000D03*
%TO.P,RP1,8,R7.2*%
%TO.N,SLOW_CLK*%
X123075000Y-93265000D03*
%TO.P,RP1,9,R8.2*%
%TO.N,~{DRV_RESET}*%
X123075000Y-95805000D03*
%TD*%
D15*
%TO.P,C91,1*%
%TO.N,5V*%
X111590000Y-134230000D03*
D16*
%TO.P,C91,2*%
%TO.N,GND*%
X111590000Y-139310000D03*
%TD*%
D17*
%TO.P,J2,1,Pin_1*%
%TO.N,~{DISKCHANGE}*%
X118850000Y-120000000D03*
D18*
%TO.P,J2,2,Pin_2*%
%TO.N,FD_PIN2*%
X116310000Y-120000000D03*
%TO.P,J2,3,Pin_3*%
%TO.N,unconnected-(J2-Pin_3-Pad3)*%
X113770001Y-120000000D03*
%TD*%
D14*
%TO.P,D1,1,K*%
%TO.N,5V*%
X128220000Y-96380000D03*
D13*
%TO.P,D1,2,A*%
%TO.N,Net-(D1-A)*%
X128220000Y-88760000D03*
%TD*%
D12*
%TO.P,EM3,1,1*%
%TO.N,DATA*%
X111835000Y-61692000D03*
%TO.P,EM3,2,2*%
%TO.N,GND*%
X109295000Y-62200000D03*
%TO.P,EM3,3,3*%
%TO.N,Net-(CN7-Pin_5)*%
X106755000Y-61692000D03*
%TD*%
%TO.P,C10,1*%
%TO.N,5V*%
X230260000Y-61650000D03*
%TO.P,C10,2*%
%TO.N,GND*%
X235260000Y-61650000D03*
%TD*%
%TO.P,C1,1*%
%TO.N,5V*%
X212850000Y-84190000D03*
%TO.P,C1,2*%
%TO.N,GND*%
X207850000Y-84190000D03*
%TD*%
%TO.P,R2,1*%
%TO.N,5V*%
X128371600Y-98501200D03*
D13*
%TO.P,R2,2*%
%TO.N,~{DISKCHANGE}*%
X128371600Y-111201200D03*
%TD*%
D12*
%TO.P,R5,1*%
%TO.N,Net-(JP1-A)*%
X207590000Y-44590000D03*
D13*
%TO.P,R5,2*%
%TO.N,5V*%
X220290000Y-44590000D03*
%TD*%
D12*
%TO.P,EM4,1,1*%
%TO.N,SLOW_CLK*%
X111834999Y-57230000D03*
%TO.P,EM4,2,2*%
%TO.N,GND*%
X109294999Y-57738000D03*
%TO.P,EM4,3,3*%
%TO.N,Net-(CN7-Pin_4)*%
X106754999Y-57230000D03*
%TD*%
%TO.P,R1,1*%
%TO.N,Net-(FB1-Pad1)*%
X233500000Y-117260000D03*
D13*
%TO.P,R1,2*%
%TO.N,R{slash}~{W}*%
X233500000Y-104560000D03*
%TD*%
D17*
%TO.P,J3,1,Pin_1*%
%TO.N,SELECT0*%
X105875000Y-114750000D03*
D18*
%TO.P,J3,2,Pin_2*%
%TO.N,GND*%
X105875000Y-112210000D03*
%TO.P,J3,3,Pin_3*%
%TO.N,SELECT1*%
X105875000Y-109670000D03*
%TD*%
D12*
%TO.P,C3,1*%
%TO.N,5V*%
X195330000Y-136410000D03*
%TO.P,C3,2*%
%TO.N,GND*%
X200330000Y-136410000D03*
%TD*%
D17*
%TO.P,J1,1,Pin_1*%
%TO.N,~{RDY}*%
X109370001Y-67750000D03*
D18*
%TO.P,J1,2,Pin_2*%
%TO.N,FD_PIN34*%
X111910001Y-67750000D03*
%TO.P,J1,3,Pin_3*%
%TO.N,~{DISKCHANGE}*%
X114450000Y-67750000D03*
%TD*%
D17*
%TO.P,J5,1,Pin_1*%
%TO.N,Net-(J5-Pin_1)*%
X163590000Y-136470000D03*
D18*
%TO.P,J5,2,Pin_2*%
%TO.N,GND*%
X161050000Y-136470000D03*
%TD*%
D12*
%TO.P,R10,1*%
%TO.N,PHI0*%
X229410000Y-83720000D03*
D13*
%TO.P,R10,2*%
%TO.N,Net-(FB5-Pad1)*%
X216710000Y-83720000D03*
%TD*%
D15*
%TO.P,C20,1*%
%TO.N,Net-(D1-A)*%
X128480000Y-75890000D03*
D16*
%TO.P,C20,2*%
%TO.N,GND*%
X128480000Y-70810000D03*
%TD*%
D12*
%TO.P,C15,1*%
%TO.N,Net-(X1-Vcc)*%
X223470000Y-45460000D03*
%TO.P,C15,2*%
%TO.N,GND*%
X228470000Y-45460000D03*
%TD*%
D15*
%TO.P,C90,1*%
%TO.N,12V*%
X105370000Y-134270000D03*
D16*
%TO.P,C90,2*%
%TO.N,GND*%
X105370000Y-139350000D03*
%TD*%
D12*
%TO.P,EM2,1,1*%
%TO.N,Net-(J6-Pin_1)*%
X111805000Y-48370000D03*
%TO.P,EM2,2,2*%
%TO.N,GND*%
X109265000Y-48878000D03*
%TO.P,EM2,3,3*%
%TO.N,Net-(CN7-Pin_3)*%
X106725000Y-48370000D03*
%TD*%
%TO.P,FB1,1*%
%TO.N,Net-(FB1-Pad1)*%
X229760000Y-117240000D03*
D13*
%TO.P,FB1,2*%
%TO.N,Net-(U1-R{slash}~{W})*%
X229760000Y-104540000D03*
%TD*%
D10*
%TO.P,U3,1,A14*%
%TO.N,A14*%
X202950000Y-132530000D03*
D11*
%TO.P,U3,2,A12*%
%TO.N,A12*%
X202950000Y-129990000D03*
%TO.P,U3,3,A7*%
%TO.N,A7*%
X202950000Y-127450000D03*
%TO.P,U3,4,A6*%
%TO.N,A6*%
X202950000Y-124910000D03*
%TO.P,U3,5,A5*%
%TO.N,A5*%
X202950000Y-122370000D03*
%TO.P,U3,6,A4*%
%TO.N,A4*%
X202950000Y-119830000D03*
%TO.P,U3,7,A3*%
%TO.N,A3*%
X202950000Y-117290000D03*
%TO.P,U3,8,A2*%
%TO.N,A2*%
X202950000Y-114750000D03*
%TO.P,U3,9,A1*%
%TO.N,A1*%
X202950000Y-112210000D03*
%TO.P,U3,10,A0*%
%TO.N,A0*%
X202950000Y-109670000D03*
%TO.P,U3,11,D0*%
%TO.N,D0*%
X202950000Y-107130000D03*
%TO.P,U3,12,D1*%
%TO.N,D1*%
X202950000Y-104590000D03*
%TO.P,U3,13,D2*%
%TO.N,D2*%
X202950000Y-102050000D03*
%TO.P,U3,14,GND*%
%TO.N,GND*%
X202950000Y-99510000D03*
%TO.P,U3,15,D3*%
%TO.N,D3*%
X195330000Y-99510000D03*
%TO.P,U3,16,D4*%
%TO.N,D4*%
X195330000Y-102050000D03*
%TO.P,U3,17,D5*%
%TO.N,D5*%
X195330000Y-104590000D03*
%TO.P,U3,18,D6*%
%TO.N,D6*%
X195330000Y-107130000D03*
%TO.P,U3,19,D7*%
%TO.N,D7*%
X195330000Y-109670000D03*
%TO.P,U3,20,~{CE}*%
%TO.N,~{RAM_OE}*%
X195330000Y-112210000D03*
%TO.P,U3,21,A10*%
%TO.N,A10*%
X195330000Y-114750000D03*
%TO.P,U3,22,~{OE}*%
%TO.N,~{RAM_OE}*%
X195330000Y-117290000D03*
%TO.P,U3,23,A11*%
%TO.N,A11*%
X195330000Y-119830000D03*
%TO.P,U3,24,A9*%
%TO.N,A9*%
X195330000Y-122370000D03*
%TO.P,U3,25,A8*%
%TO.N,A8*%
X195330000Y-124910000D03*
%TO.P,U3,26,A13*%
%TO.N,A13*%
X195330000Y-127450000D03*
%TO.P,U3,27,~{WE}*%
%TO.N,~{RAMWE}*%
X195330000Y-129990000D03*
%TO.P,U3,28,VCC*%
%TO.N,5V*%
X195330000Y-132530000D03*
%TD*%
D12*
%TO.P,R14,1*%
%TO.N,RED_LED*%
X164580000Y-132010000D03*
D13*
%TO.P,R14,2*%
%TO.N,GND*%
X164580000Y-119310000D03*
%TD*%
D14*
%TO.P,SW1,1*%
%TO.N,GND*%
X135636000Y-137668000D03*
D13*
%TO.P,SW1,2*%
X138176000Y-137668000D03*
%TO.P,SW1,3*%
%TO.N,Net-(U5-PA4)*%
X138176000Y-130048000D03*
%TO.P,SW1,4*%
%TO.N,Net-(U5-PA3)*%
X135636000Y-130048000D03*
%TD*%
D12*
%TO.P,FB2,1*%
%TO.N,Net-(FB2-Pad1)*%
X213870000Y-64680000D03*
D13*
%TO.P,FB2,2*%
%TO.N,Net-(U1-02)*%
X213870000Y-77380000D03*
%TD*%
D12*
%TO.P,C11,1*%
%TO.N,5V*%
X150570000Y-115560000D03*
%TO.P,C11,2*%
%TO.N,GND*%
X155570000Y-115560000D03*
%TD*%
%TO.P,R12,1*%
%TO.N,RED_LED*%
X160820000Y-132010000D03*
D13*
%TO.P,R12,2*%
%TO.N,Net-(R12-Pad2)*%
X160820000Y-119310000D03*
%TD*%
D10*
%TO.P,U13,1,OEa*%
%TO.N,FAST_SER_DIR*%
X127560000Y-65170000D03*
D11*
%TO.P,U13,2,I0a*%
%TO.N,GND*%
X127560000Y-62630000D03*
%TO.P,U13,3,O3b*%
%TO.N,Net-(RP11F-R6.2)*%
X127560000Y-60090000D03*
%TO.P,U13,4,I1a*%
%TO.N,GND*%
X127560000Y-57550000D03*
%TO.P,U13,5,O2b*%
%TO.N,unconnected-(U13-O2b-Pad5)*%
X127560000Y-55010000D03*
%TO.P,U13,6,I2a*%
%TO.N,DATA*%
X127560000Y-52470000D03*
%TO.P,U13,7,O1b*%
%TO.N,unconnected-(U13-O1b-Pad7)*%
X127560000Y-49930000D03*
%TO.P,U13,8,I3a*%
%TO.N,FAST_CLK*%
X127560000Y-47390000D03*
%TO.P,U13,9,O0b*%
%TO.N,Net-(RP11C-R3.2)*%
X127560000Y-44850000D03*
%TO.P,U13,10,GND*%
%TO.N,GND*%
X127560000Y-42310000D03*
%TO.P,U13,11,I0b*%
%TO.N,CNT*%
X119940000Y-42310000D03*
%TO.P,U13,12,O3a*%
X119940000Y-44850000D03*
%TO.P,U13,13,I1b*%
%TO.N,GND*%
X119940000Y-47390000D03*
%TO.P,U13,14,O2a*%
%TO.N,SP*%
X119940000Y-49930000D03*
%TO.P,U13,15,I2b*%
%TO.N,GND*%
X119940000Y-52470000D03*
%TO.P,U13,16,O1a*%
%TO.N,unconnected-(U13-O1a-Pad16)*%
X119940000Y-55010000D03*
%TO.P,U13,17,I3b*%
%TO.N,SP*%
X119940000Y-57550000D03*
%TO.P,U13,18,O0a*%
%TO.N,unconnected-(U13-O0a-Pad18)*%
X119940000Y-60090000D03*
%TO.P,U13,19,OEb*%
%TO.N,FAST_SER_DIR*%
X119940000Y-62630000D03*
%TO.P,U13,20,VCC*%
%TO.N,5V*%
X119940000Y-65170000D03*
%TD*%
D19*
%TO.P,U90,1,IN*%
%TO.N,12V*%
X108966000Y-129286000D03*
D20*
%TO.P,U90,2,GND*%
%TO.N,GND*%
X108966000Y-126746000D03*
%TO.P,U90,3,OUT*%
%TO.N,5V*%
X108966000Y-124206000D03*
%TD*%
D17*
%TO.P,J6,1,Pin_1*%
%TO.N,Net-(J6-Pin_1)*%
X112903000Y-40970200D03*
D18*
%TO.P,J6,2,Pin_2*%
%TO.N,~{ATN}*%
X115443000Y-40970200D03*
%TD*%
D12*
%TO.P,C8,1*%
%TO.N,5V*%
X151210000Y-89860000D03*
%TO.P,C8,2*%
%TO.N,GND*%
X156210000Y-89860000D03*
%TD*%
D17*
%TO.P,CN2,1,Pin_1*%
%TO.N,GND*%
X114370000Y-113570800D03*
D18*
%TO.P,CN2,2,Pin_2*%
%TO.N,FD_PIN2*%
X111830000Y-113570800D03*
%TO.P,CN2,3,Pin_3*%
%TO.N,GND*%
X114370000Y-111030800D03*
%TO.P,CN2,4,Pin_4*%
%TO.N,unconnected-(CN2-Pin_4-Pad4)*%
X111830000Y-111030800D03*
%TO.P,CN2,5,Pin_5*%
%TO.N,GND*%
X114370000Y-108490800D03*
%TO.P,CN2,6,Pin_6*%
%TO.N,unconnected-(CN2-Pin_6-Pad6)*%
X111830000Y-108490800D03*
%TO.P,CN2,7,Pin_7*%
%TO.N,GND*%
X114370000Y-105950800D03*
%TO.P,CN2,8,Pin_8*%
%TO.N,INDEX*%
X111830000Y-105950800D03*
%TO.P,CN2,9,Pin_9*%
%TO.N,GND*%
X114370000Y-103410800D03*
%TO.P,CN2,10,Pin_10*%
%TO.N,SELECT0*%
X111830000Y-103410800D03*
%TO.P,CN2,11,Pin_11*%
%TO.N,GND*%
X114370000Y-100870800D03*
%TO.P,CN2,12,Pin_12*%
%TO.N,SELECT1*%
X111830000Y-100870800D03*
%TO.P,CN2,13,Pin_13*%
%TO.N,GND*%
X114370000Y-98330800D03*
%TO.P,CN2,14,Pin_14*%
%TO.N,unconnected-(CN2-Pin_14-Pad14)*%
X111830000Y-98330800D03*
%TO.P,CN2,15,Pin_15*%
%TO.N,GND*%
X114370000Y-95790800D03*
%TO.P,CN2,16,Pin_16*%
%TO.N,MOTOREN*%
X111830000Y-95790800D03*
%TO.P,CN2,17,Pin_17*%
%TO.N,GND*%
X114370000Y-93250800D03*
%TO.P,CN2,18,Pin_18*%
%TO.N,DIRECTION*%
X111830000Y-93250800D03*
%TO.P,CN2,19,Pin_19*%
%TO.N,GND*%
X114370000Y-90710800D03*
%TO.P,CN2,20,Pin_20*%
%TO.N,STEP*%
X111830000Y-90710800D03*
%TO.P,CN2,21,Pin_21*%
%TO.N,GND*%
X114370000Y-88170800D03*
%TO.P,CN2,22,Pin_22*%
%TO.N,WRITEDATA*%
X111830000Y-88170800D03*
%TO.P,CN2,23,Pin_23*%
%TO.N,GND*%
X114370000Y-85630800D03*
%TO.P,CN2,24,Pin_24*%
%TO.N,WRITEGATE*%
X111830000Y-85630800D03*
%TO.P,CN2,25,Pin_25*%
%TO.N,GND*%
X114370000Y-83090800D03*
%TO.P,CN2,26,Pin_26*%
%TO.N,TRACK00*%
X111830000Y-83090800D03*
%TO.P,CN2,27,Pin_27*%
%TO.N,GND*%
X114370000Y-80550800D03*
%TO.P,CN2,28,Pin_28*%
%TO.N,WRITEPROTECT*%
X111830000Y-80550800D03*
%TO.P,CN2,29,Pin_29*%
%TO.N,GND*%
X114370000Y-78010800D03*
%TO.P,CN2,30,Pin_30*%
%TO.N,READDATA*%
X111830000Y-78010800D03*
%TO.P,CN2,31,Pin_31*%
%TO.N,GND*%
X114370000Y-75470800D03*
%TO.P,CN2,32,Pin_32*%
%TO.N,SIDESELECT*%
X111830000Y-75470800D03*
%TO.P,CN2,33,Pin_33*%
%TO.N,GND*%
X114370000Y-72930800D03*
%TO.P,CN2,34,Pin_34*%
%TO.N,FD_PIN34*%
X111830000Y-72930800D03*
%TD*%
D21*
%TO.P,U10,1,CP1..3*%
%TO.N,Net-(U10-CP1..3)*%
X235210000Y-68380000D03*
D22*
%TO.P,U10,2,R0(1)*%
%TO.N,GND*%
X232670000Y-68380000D03*
%TO.P,U10,3,R0(2)*%
X230130000Y-68380000D03*
%TO.P,U10,4*%
%TO.N,N/C*%
X227590000Y-68380000D03*
%TO.P,U10,5,VCC*%
%TO.N,5V*%
X225050000Y-68380000D03*
%TO.P,U10,6*%
%TO.N,N/C*%
X222510000Y-68380000D03*
%TO.P,U10,7*%
X219970000Y-68380000D03*
%TO.P,U10,8,Q2*%
%TO.N,unconnected-(U10-Q2-Pad8)*%
X219970000Y-76000000D03*
%TO.P,U10,9,Q1*%
%TO.N,Net-(U10-Q1)*%
X222510000Y-76000000D03*
%TO.P,U10,10,GND*%
%TO.N,GND*%
X225050000Y-76000000D03*
%TO.P,U10,11,Q3*%
%TO.N,Net-(U10-Q3)*%
X227590000Y-76000000D03*
%TO.P,U10,12,Q0*%
%TO.N,unconnected-(U10-Q0-Pad12)*%
X230130000Y-76000000D03*
%TO.P,U10,13*%
%TO.N,N/C*%
X232670000Y-76000000D03*
%TO.P,U10,14,CP0*%
%TO.N,GND*%
X235210000Y-76000000D03*
%TD*%
D17*
%TO.P,CN1,1,Pin_1*%
%TO.N,12V*%
X102006400Y-129286000D03*
D18*
%TO.P,CN1,2,Pin_2*%
%TO.N,GND*%
X102006400Y-126746000D03*
%TO.P,CN1,3,Pin_3*%
X102006400Y-124206000D03*
%TO.P,CN1,4,Pin_4*%
%TO.N,5V*%
X102006400Y-121666000D03*
%TD*%
D17*
%TO.P,JP1,1,A*%
%TO.N,Net-(JP1-A)*%
X208340000Y-40790000D03*
D18*
%TO.P,JP1,2,B*%
%TO.N,PHI2*%
X210880000Y-40790000D03*
%TD*%
D12*
%TO.P,FB5,1*%
%TO.N,Net-(FB5-Pad1)*%
X216630000Y-79760000D03*
D13*
%TO.P,FB5,2*%
%TO.N,Net-(U10-Q3)*%
X229330000Y-79760000D03*
%TD*%
D12*
%TO.P,R4,1*%
%TO.N,Net-(U6B-E)*%
X167800000Y-94480000D03*
D13*
%TO.P,R4,2*%
%TO.N,5V*%
X180500000Y-94480000D03*
%TD*%
D12*
%TO.P,R13,1*%
%TO.N,Net-(R13-Pad1)*%
X157120000Y-119320000D03*
D13*
%TO.P,R13,2*%
%TO.N,GREEN_LED*%
X157120000Y-132020000D03*
%TD*%
D12*
%TO.P,C4,1*%
%TO.N,5V*%
X166520000Y-46010000D03*
%TO.P,C4,2*%
%TO.N,GND*%
X171520000Y-46010000D03*
%TD*%
%TO.P,FB6,1*%
%TO.N,5V*%
X210210000Y-49700000D03*
D13*
%TO.P,FB6,2*%
%TO.N,Net-(X1-Vcc)*%
X210210000Y-62400000D03*
%TD*%
D12*
%TO.P,C9,1*%
%TO.N,5V*%
X134020000Y-62520000D03*
%TO.P,C9,2*%
%TO.N,GND*%
X139020000Y-62520000D03*
%TD*%
D10*
%TO.P,U4,1,~{CS}*%
%TO.N,~{WD_CS}*%
X181580000Y-82640000D03*
D11*
%TO.P,U4,2,R/~{W}*%
%TO.N,R{slash}~{W}*%
X181580000Y-80100000D03*
%TO.P,U4,3,A0*%
%TO.N,A0*%
X181580000Y-77560000D03*
%TO.P,U4,4,A1*%
%TO.N,A1*%
X181580000Y-75020000D03*
%TO.P,U4,5,D0*%
%TO.N,D0*%
X181580000Y-72480000D03*
%TO.P,U4,6,D1*%
%TO.N,D1*%
X181580000Y-69940000D03*
%TO.P,U4,7,D2*%
%TO.N,D2*%
X181580000Y-67400000D03*
%TO.P,U4,8,D3*%
%TO.N,D3*%
X181580000Y-64860000D03*
%TO.P,U4,9,D4*%
%TO.N,D4*%
X181580000Y-62320000D03*
%TO.P,U4,10,D5*%
%TO.N,D5*%
X181580000Y-59780000D03*
%TO.P,U4,11,D6*%
%TO.N,D6*%
X181580000Y-57240000D03*
%TO.P,U4,12,D7*%
%TO.N,D7*%
X181580000Y-54700000D03*
%TO.P,U4,13,~{RES}*%
%TO.N,~{RESET}*%
X181580000Y-52160000D03*
%TO.P,U4,14,GND*%
%TO.N,GND*%
X181580000Y-49620000D03*
%TO.P,U4,15,VCC*%
%TO.N,5V*%
X166340000Y-49620000D03*
%TO.P,U4,16,STEP*%
%TO.N,Net-(U4-STEP)*%
X166340000Y-52160000D03*
%TO.P,U4,17,DIRC*%
%TO.N,Net-(U4-DIRC)*%
X166340000Y-54700000D03*
%TO.P,U4,18,CLK*%
%TO.N,FDC_CLOCK*%
X166340000Y-57240000D03*
%TO.P,U4,19,~{RD}*%
%TO.N,READDATA*%
X166340000Y-59780000D03*
%TO.P,U4,20,MO*%
%TO.N,unconnected-(U4-MO-Pad20)*%
X166340000Y-62320000D03*
%TO.P,U4,21,WG*%
%TO.N,Net-(U4-WG)*%
X166340000Y-64860000D03*
%TO.P,U4,22,WD*%
%TO.N,Net-(U4-WD)*%
X166340000Y-67400000D03*
%TO.P,U4,23,~{TR00}*%
%TO.N,TRACK00*%
X166340000Y-69940000D03*
%TO.P,U4,24,~{IP}*%
%TO.N,INDEX*%
X166340000Y-72480000D03*
%TO.P,U4,25,~{WPRT}*%
%TO.N,WRITEPROTECT*%
X166340000Y-75020000D03*
%TO.P,U4,26,~{DDEN}*%
%TO.N,unconnected-(U4-~{DDEN}-Pad26)*%
X166340000Y-77560000D03*
%TO.P,U4,27,DRQ*%
%TO.N,unconnected-(U4-DRQ-Pad27)*%
X166340000Y-80100000D03*
%TO.P,U4,28,INTRQ*%
%TO.N,unconnected-(U4-INTRQ-Pad28)*%
X166340000Y-82640000D03*
%TD*%
D12*
%TO.P,EM1,1,1*%
%TO.N,FAST_CLK*%
X111825000Y-52730000D03*
%TO.P,EM1,2,2*%
%TO.N,GND*%
X109285000Y-53238000D03*
%TO.P,EM1,3,3*%
%TO.N,Net-(CN7-Pin_1)*%
X106745000Y-52730000D03*
%TD*%
%TO.P,C12,1*%
%TO.N,5V*%
X151400000Y-62410000D03*
%TO.P,C12,2*%
%TO.N,GND*%
X156400000Y-62410000D03*
%TD*%
%TO.P,C13,1*%
%TO.N,5V*%
X119690000Y-70060000D03*
%TO.P,C13,2*%
%TO.N,GND*%
X124690000Y-70060000D03*
%TD*%
%TO.P,C7,1*%
%TO.N,5V*%
X134080000Y-89890000D03*
%TO.P,C7,2*%
%TO.N,GND*%
X139080000Y-89890000D03*
%TD*%
%TO.P,C2,1*%
%TO.N,5V*%
X170620000Y-136690000D03*
%TO.P,C2,2*%
%TO.N,GND*%
X175620000Y-136690000D03*
%TD*%
%TO.P,R3,1*%
%TO.N,Net-(FB2-Pad1)*%
X210230000Y-64710000D03*
D13*
%TO.P,R3,2*%
%TO.N,PHI2*%
X210230000Y-77410000D03*
%TD*%
D17*
%TO.P,CN8,1,Pin_1*%
%TO.N,12V*%
X96276400Y-129286000D03*
D18*
%TO.P,CN8,2,Pin_2*%
%TO.N,GND*%
X96276400Y-126746000D03*
%TO.P,CN8,3,Pin_3*%
X96276400Y-124206000D03*
%TO.P,CN8,4,Pin_4*%
%TO.N,5V*%
X96276400Y-121666000D03*
%TD*%
D10*
%TO.P,U1,1,VSS*%
%TO.N,GND*%
X210340000Y-89330000D03*
D11*
%TO.P,U1,2,RDY*%
%TO.N,RDY*%
X210340000Y-91870000D03*
%TO.P,U1,3,01*%
%TO.N,unconnected-(U1-01-Pad3)*%
X210340000Y-94410000D03*
%TO.P,U1,4,~{IRQ}*%
%TO.N,~{IRQ}*%
X210340000Y-96950000D03*
%TO.P,U1,5,NC*%
%TO.N,unconnected-(U1-NC-Pad5)*%
X210340000Y-99490000D03*
%TO.P,U1,6,~{NMI}*%
%TO.N,~{NMI}*%
X210340000Y-102030000D03*
%TO.P,U1,7,SYNC*%
%TO.N,unconnected-(U1-SYNC-Pad7)*%
X210340000Y-104570000D03*
%TO.P,U1,8,Vcc*%
%TO.N,5V*%
X210340000Y-107110000D03*
%TO.P,U1,9,A0*%
%TO.N,A0*%
X210340000Y-109650000D03*
%TO.P,U1,10,A1*%
%TO.N,A1*%
X210340000Y-112190000D03*
%TO.P,U1,11,A2*%
%TO.N,A2*%
X210340000Y-114730000D03*
%TO.P,U1,12,A3*%
%TO.N,A3*%
X210340000Y-117270000D03*
%TO.P,U1,13,A4*%
%TO.N,A4*%
X210340000Y-119810000D03*
%TO.P,U1,14,A5*%
%TO.N,A5*%
X210340000Y-122350000D03*
%TO.P,U1,15,A6*%
%TO.N,A6*%
X210340000Y-124890000D03*
%TO.P,U1,16,A7*%
%TO.N,A7*%
X210340000Y-127430000D03*
%TO.P,U1,17,A8*%
%TO.N,A8*%
X210340000Y-129970000D03*
%TO.P,U1,18,A9*%
%TO.N,A9*%
X210340000Y-132510000D03*
%TO.P,U1,19,A10*%
%TO.N,A10*%
X210340000Y-135050000D03*
%TO.P,U1,20,A11*%
%TO.N,A11*%
X210340000Y-137590000D03*
%TO.P,U1,21,GND*%
%TO.N,GND*%
X225580000Y-137590000D03*
%TO.P,U1,22,A12*%
%TO.N,A12*%
X225580000Y-135050000D03*
%TO.P,U1,23,A13*%
%TO.N,A13*%
X225580000Y-132510000D03*
%TO.P,U1,24,A14*%
%TO.N,A14*%
X225580000Y-129970000D03*
%TO.P,U1,25,A15*%
%TO.N,A15*%
X225580000Y-127430000D03*
%TO.P,U1,26,D7*%
%TO.N,D7*%
X225580000Y-124890000D03*
%TO.P,U1,27,D6*%
%TO.N,D6*%
X225580000Y-122350000D03*
%TO.P,U1,28,D5*%
%TO.N,D5*%
X225580000Y-119810000D03*
%TO.P,U1,29,D4*%
%TO.N,D4*%
X225580000Y-117270000D03*
%TO.P,U1,30,D3*%
%TO.N,D3*%
X225580000Y-114730000D03*
%TO.P,U1,31,D2*%
%TO.N,D2*%
X225580000Y-112190000D03*
%TO.P,U1,32,D1*%
%TO.N,D1*%
X225580000Y-109650000D03*
%TO.P,U1,33,D0*%
%TO.N,D0*%
X225580000Y-107110000D03*
%TO.P,U1,34,R/~{W}*%
%TO.N,Net-(U1-R{slash}~{W})*%
X225580000Y-104570000D03*
%TO.P,U1,35,NC*%
%TO.N,unconnected-(U1-NC-Pad35)*%
X225580000Y-102030000D03*
%TO.P,U1,36,NC*%
%TO.N,unconnected-(U1-NC-Pad36)*%
X225580000Y-99490000D03*
%TO.P,U1,37,00*%
%TO.N,PHI0*%
X225580000Y-96950000D03*
%TO.P,U1,38,SO*%
%TO.N,S0*%
X225580000Y-94410000D03*
%TO.P,U1,39,02*%
%TO.N,Net-(U1-02)*%
X225580000Y-91870000D03*
%TO.P,U1,40,~{RESET}*%
%TO.N,~{RESET}*%
X225580000Y-89330000D03*
%TD*%
D10*
%TO.P,U7,1*%
%TO.N,R{slash}~{W}*%
X141590000Y-85270000D03*
D11*
%TO.P,U7,2*%
%TO.N,A15*%
X141590000Y-82730000D03*
%TO.P,U7,3*%
%TO.N,~{ROM_OE}*%
X141590000Y-80190000D03*
%TO.P,U7,4*%
%TO.N,Net-(U7-Pad4)*%
X141590000Y-77650000D03*
%TO.P,U7,5*%
%TO.N,PHI2*%
X141590000Y-75110000D03*
%TO.P,U7,6*%
%TO.N,~{WD_CS}*%
X141590000Y-72570000D03*
%TO.P,U7,7,GND*%
%TO.N,GND*%
X141590000Y-70030000D03*
%TO.P,U7,8*%
%TO.N,Net-(U11-Pad13)*%
X133970000Y-70030000D03*
%TO.P,U7,9*%
%TO.N,ATN_IN*%
X133970000Y-72570000D03*
%TO.P,U7,10*%
%TO.N,ATN_ACK*%
X133970000Y-75110000D03*
%TO.P,U7,11*%
%TO.N,~{FLAG}*%
X133970000Y-77650000D03*
%TO.P,U7,12*%
%TO.N,ATN_IN*%
X133970000Y-80190000D03*
%TO.P,U7,13*%
X133970000Y-82730000D03*
%TO.P,U7,14,VCC*%
%TO.N,5V*%
X133970000Y-85270000D03*
%TD*%
D12*
%TO.P,R11,1*%
%TO.N,Net-(FB3-Pad2)*%
X213920000Y-49760000D03*
D13*
%TO.P,R11,2*%
%TO.N,FDC_CLOCK*%
X213920000Y-62460000D03*
%TD*%
D17*
%TO.P,CN5,1,Pin_1*%
%TO.N,GREEN_LED*%
X147080000Y-136830000D03*
D18*
%TO.P,CN5,2,Pin_2*%
%TO.N,5V*%
X149620000Y-136830000D03*
%TO.P,CN5,3,Pin_3*%
%TO.N,RED_LED*%
X152160000Y-136830000D03*
%TD*%
D14*
%TO.P,X1,1,EN*%
%TO.N,5V*%
X227260000Y-57930000D03*
D12*
%TO.P,X1,4,GND*%
%TO.N,GND*%
X234880000Y-57930000D03*
%TO.P,X1,5,OUT*%
%TO.N,Net-(X1-OUT)*%
X234880000Y-50310000D03*
%TO.P,X1,8,Vcc*%
%TO.N,Net-(X1-Vcc)*%
X227260000Y-50310000D03*
%TD*%
D10*
%TO.P,U5,1,VSS*%
%TO.N,GND*%
X203630000Y-90290000D03*
D11*
%TO.P,U5,2,PA0*%
%TO.N,SIDE0*%
X203630000Y-87750000D03*
%TO.P,U5,3,PA1*%
%TO.N,~{RDY}*%
X203630000Y-85210000D03*
%TO.P,U5,4,PA2*%
%TO.N,~{MOTOR}*%
X203630000Y-82670000D03*
%TO.P,U5,5,PA3*%
%TO.N,Net-(U5-PA3)*%
X203630000Y-80130000D03*
%TO.P,U5,6,PA4*%
%TO.N,Net-(U5-PA4)*%
X203630000Y-77590000D03*
%TO.P,U5,7,PA5*%
%TO.N,POWERLED*%
X203630000Y-75050000D03*
%TO.P,U5,8,PA6*%
%TO.N,ACTLED*%
X203630000Y-72510000D03*
%TO.P,U5,9,PA7*%
%TO.N,~{DISKCHANGE}*%
X203630000Y-69970000D03*
%TO.P,U5,10,PB0*%
%TO.N,DATA_IN*%
X203630000Y-67430000D03*
%TO.P,U5,11,PB1*%
%TO.N,DATA_OUT*%
X203630000Y-64890000D03*
%TO.P,U5,12,PB2*%
%TO.N,CLK_IN*%
X203630000Y-62350000D03*
%TO.P,U5,13,PB3*%
%TO.N,CLK_OUT*%
X203630000Y-59810000D03*
%TO.P,U5,14,PB4*%
%TO.N,ATN_ACK*%
X203630000Y-57270000D03*
%TO.P,U5,15,PB5*%
%TO.N,FAST_SER_DIR*%
X203630000Y-54730000D03*
%TO.P,U5,16,PB6*%
%TO.N,WRITEPROTECT*%
X203630000Y-52190000D03*
%TO.P,U5,17,PB7*%
%TO.N,ATN_IN*%
X203630000Y-49650000D03*
%TO.P,U5,18,~{PC}*%
%TO.N,unconnected-(U5-~{PC}-Pad18)*%
X203630000Y-47110000D03*
%TO.P,U5,19,TOD*%
%TO.N,Net-(JP1-A)*%
X203630000Y-44570000D03*
%TO.P,U5,20,VCC*%
%TO.N,5V*%
X203630000Y-42030000D03*
%TO.P,U5,21,~{IRQ}*%
%TO.N,~{IRQ}*%
X188390000Y-42030000D03*
%TO.P,U5,22,R/~{W}*%
%TO.N,R{slash}~{W}*%
X188390000Y-44570000D03*
%TO.P,U5,23,~{CS}*%
%TO.N,~{CIA_SEL}*%
X188390000Y-47110000D03*
%TO.P,U5,24,~{FLAG}*%
%TO.N,~{FLAG}*%
X188390000Y-49650000D03*
%TO.P,U5,25,\u03D52*%
%TO.N,PHI2*%
X188390000Y-52190000D03*
%TO.P,U5,26,D7*%
%TO.N,D7*%
X188390000Y-54730000D03*
%TO.P,U5,27,D6*%
%TO.N,D6*%
X188390000Y-57270000D03*
%TO.P,U5,28,D5*%
%TO.N,D5*%
X188390000Y-59810000D03*
%TO.P,U5,29,D4*%
%TO.N,D4*%
X188390000Y-62350000D03*
%TO.P,U5,30,D3*%
%TO.N,D3*%
X188390000Y-64890000D03*
%TO.P,U5,31,D2*%
%TO.N,D2*%
X188390000Y-67430000D03*
%TO.P,U5,32,D1*%
%TO.N,D1*%
X188390000Y-69970000D03*
%TO.P,U5,33,D0*%
%TO.N,D0*%
X188390000Y-72510000D03*
%TO.P,U5,34,~{RES}*%
%TO.N,~{RESET}*%
X188390000Y-75050000D03*
%TO.P,U5,35,RS3*%
%TO.N,A3*%
X188390000Y-77590000D03*
%TO.P,U5,36,RS2*%
%TO.N,A2*%
X188390000Y-80130000D03*
%TO.P,U5,37,RS1*%
%TO.N,A1*%
X188390000Y-82670000D03*
%TO.P,U5,38,RS0*%
%TO.N,A0*%
X188390000Y-85210000D03*
%TO.P,U5,39,SP*%
%TO.N,SP*%
X188390000Y-87750000D03*
%TO.P,U5,40,CNT*%
%TO.N,CNT*%
X188390000Y-90290000D03*
%TD*%
D12*
%TO.P,C6,1*%
%TO.N,5V*%
X133530000Y-117660000D03*
%TO.P,C6,2*%
%TO.N,GND*%
X138530000Y-117660000D03*
%TD*%
D14*
%TO.P,RP2,1,R1*%
%TO.N,5V*%
X232770000Y-83660000D03*
D13*
%TO.P,RP2,2,R1.2*%
%TO.N,Net-(D1-A)*%
X232770000Y-86200000D03*
%TO.P,RP2,3,R2.2*%
%TO.N,~{RESET}*%
X232770000Y-88740000D03*
%TO.P,RP2,4,R3.2*%
%TO.N,RDY*%
X232770000Y-91280000D03*
%TO.P,RP2,5,R4.2*%
%TO.N,S0*%
X232770000Y-93820000D03*
%TO.P,RP2,6,R5.2*%
%TO.N,~{IRQ}*%
X232770000Y-96360000D03*
%TO.P,RP2,7,R6.2*%
%TO.N,~{NMI}*%
X232770000Y-98900000D03*
%TO.P,RP2,8*%
%TO.N,N/C*%
X232770000Y-101440000D03*
%TD*%
D17*
%TO.P,CN7,1,Pin_1*%
%TO.N,Net-(CN7-Pin_1)*%
X102065000Y-61078000D03*
D18*
%TO.P,CN7,2,Pin_2*%
%TO.N,GND*%
X102065000Y-58538000D03*
%TO.P,CN7,3,Pin_3*%
%TO.N,Net-(CN7-Pin_3)*%
X102065000Y-55998000D03*
%TO.P,CN7,4,Pin_4*%
%TO.N,Net-(CN7-Pin_4)*%
X102065000Y-53458000D03*
%TO.P,CN7,5,Pin_5*%
%TO.N,Net-(CN7-Pin_5)*%
X102065000Y-50918000D03*
%TO.P,CN7,6,Pin_6*%
%TO.N,~{DRV_RESET}*%
X102065000Y-48378000D03*
%TD*%
D10*
%TO.P,U6,1,E*%
%TO.N,A15*%
X140940000Y-114190000D03*
D11*
%TO.P,U6,2,A0*%
%TO.N,A13*%
X140940000Y-111650000D03*
%TO.P,U6,3,A1*%
%TO.N,A14*%
X140940000Y-109110000D03*
%TO.P,U6,4,O0*%
%TO.N,~{RAM_OE}*%
X140940000Y-106570000D03*
%TO.P,U6,5,O1*%
%TO.N,unconnected-(U6A-O1-Pad5)*%
X140940000Y-104030000D03*
%TO.P,U6,6,O2*%
%TO.N,~{CIA_SEL}*%
X140940000Y-101490000D03*
%TO.P,U6,7,O3*%
%TO.N,~{WDSEL}*%
X140940000Y-98950000D03*
%TO.P,U6,8,GND*%
%TO.N,GND*%
X140940000Y-96410000D03*
%TO.P,U6,9,O3*%
%TO.N,unconnected-(U6B-O3-Pad9)*%
X133320000Y-96410000D03*
%TO.P,U6,10,O2*%
%TO.N,unconnected-(U6B-O2-Pad10)*%
X133320000Y-98950000D03*
%TO.P,U6,11,O1*%
%TO.N,unconnected-(U6B-O1-Pad11)*%
X133320000Y-101490000D03*
%TO.P,U6,12,O0*%
%TO.N,~{RAMWE}*%
X133320000Y-104030000D03*
%TO.P,U6,13,A1*%
%TO.N,GND*%
X133320000Y-106570000D03*
%TO.P,U6,14,A0*%
%TO.N,R{slash}~{W}*%
X133320000Y-109110000D03*
%TO.P,U6,15,E*%
%TO.N,Net-(U6B-E)*%
X133320000Y-111650000D03*
%TO.P,U6,16,VCC*%
%TO.N,5V*%
X133320000Y-114190000D03*
%TD*%
D10*
%TO.P,U8,1*%
%TO.N,PHI0*%
X158730000Y-85100000D03*
D11*
%TO.P,U8,2*%
%TO.N,Net-(U6B-E)*%
X158730000Y-82560000D03*
%TO.P,U8,3*%
%TO.N,Net-(U4-WD)*%
X158730000Y-80020000D03*
%TO.P,U8,4*%
%TO.N,WRITEDATA*%
X158730000Y-77480000D03*
%TO.P,U8,5*%
%TO.N,Net-(U4-WG)*%
X158730000Y-74940000D03*
%TO.P,U8,6*%
%TO.N,WRITEGATE*%
X158730000Y-72400000D03*
%TO.P,U8,7,GND*%
%TO.N,GND*%
X158730000Y-69860000D03*
%TO.P,U8,8*%
%TO.N,DIRECTION*%
X151110000Y-69860000D03*
%TO.P,U8,9*%
%TO.N,Net-(U4-DIRC)*%
X151110000Y-72400000D03*
%TO.P,U8,10*%
%TO.N,STEP*%
X151110000Y-74940000D03*
%TO.P,U8,11*%
%TO.N,Net-(U4-STEP)*%
X151110000Y-77480000D03*
%TO.P,U8,12*%
%TO.N,unconnected-(U8-Pad12)*%
X151110000Y-80020000D03*
%TO.P,U8,13*%
%TO.N,unconnected-(U8-Pad13)*%
X151110000Y-82560000D03*
%TO.P,U8,14,VCC*%
%TO.N,5V*%
X151110000Y-85100000D03*
%TD*%
D10*
%TO.P,U2,1,A15*%
%TO.N,Net-(J5-Pin_1)*%
X185910000Y-132510000D03*
D11*
%TO.P,U2,2,A12*%
%TO.N,A12*%
X185910000Y-129970000D03*
%TO.P,U2,3,A7*%
%TO.N,A7*%
X185910000Y-127430000D03*
%TO.P,U2,4,A6*%
%TO.N,A6*%
X185910000Y-124890000D03*
%TO.P,U2,5,A5*%
%TO.N,A5*%
X185910000Y-122350000D03*
%TO.P,U2,6,A4*%
%TO.N,A4*%
X185910000Y-119810000D03*
%TO.P,U2,7,A3*%
%TO.N,A3*%
X185910000Y-117270000D03*
%TO.P,U2,8,A2*%
%TO.N,A2*%
X185910000Y-114730000D03*
%TO.P,U2,9,A1*%
%TO.N,A1*%
X185910000Y-112190000D03*
%TO.P,U2,10,A0*%
%TO.N,A0*%
X185910000Y-109650000D03*
%TO.P,U2,11,D0*%
%TO.N,D0*%
X185910000Y-107110000D03*
%TO.P,U2,12,D1*%
%TO.N,D1*%
X185910000Y-104570000D03*
%TO.P,U2,13,D2*%
%TO.N,D2*%
X185910000Y-102030000D03*
%TO.P,U2,14,GND*%
%TO.N,GND*%
X185910000Y-99490000D03*
%TO.P,U2,15,D3*%
%TO.N,D3*%
X170670000Y-99490000D03*
%TO.P,U2,16,D4*%
%TO.N,D4*%
X170670000Y-102030000D03*
%TO.P,U2,17,D5*%
%TO.N,D5*%
X170670000Y-104570000D03*
%TO.P,U2,18,D6*%
%TO.N,D6*%
X170670000Y-107110000D03*
%TO.P,U2,19,D7*%
%TO.N,D7*%
X170670000Y-109650000D03*
%TO.P,U2,20,~{CE}*%
%TO.N,GND*%
X170670000Y-112190000D03*
%TO.P,U2,21,A10*%
%TO.N,A10*%
X170670000Y-114730000D03*
%TO.P,U2,22,~{OE}*%
%TO.N,~{ROM_OE}*%
X170670000Y-117270000D03*
%TO.P,U2,23,A11*%
%TO.N,A11*%
X170670000Y-119810000D03*
%TO.P,U2,24,A9*%
%TO.N,A9*%
X170670000Y-122350000D03*
%TO.P,U2,25,A8*%
%TO.N,A8*%
X170670000Y-124890000D03*
%TO.P,U2,26,A13*%
%TO.N,A13*%
X170670000Y-127430000D03*
%TO.P,U2,27,A14*%
%TO.N,A14*%
X170670000Y-129970000D03*
%TO.P,U2,28,VCC*%
%TO.N,5V*%
X170670000Y-132510000D03*
%TD*%
D23*
%TO.P,J90,1*%
%TO.N,12V*%
X126364000Y-127556000D03*
D24*
%TO.P,J90,2*%
%TO.N,GND*%
X126364000Y-133556000D03*
D25*
%TO.P,J90,3*%
%TO.N,N/C*%
X131064000Y-130556000D03*
%TD*%
D14*
%TO.P,RP11,1,R1*%
%TO.N,5V*%
X123075000Y-118705000D03*
D13*
%TO.P,RP11,2,R1.2*%
%TO.N,unconnected-(RP11A-R1.2-Pad2)*%
X123075000Y-116165000D03*
%TO.P,RP11,3,R2.2*%
%TO.N,unconnected-(RP11B-R2.2-Pad3)*%
X123075000Y-113625000D03*
%TO.P,RP11,4,R3.2*%
%TO.N,Net-(RP11C-R3.2)*%
X123075000Y-111085000D03*
%TO.P,RP11,5,R4.2*%
%TO.N,~{ATN}*%
X123075000Y-108545000D03*
%TO.P,RP11,6,R5.2*%
%TO.N,FAST_CLK*%
X123075000Y-106005000D03*
%TO.P,RP11,7,R6.2*%
%TO.N,Net-(RP11F-R6.2)*%
X123075000Y-103465000D03*
%TO.P,RP11,8,R7.2*%
%TO.N,DATA*%
X123075000Y-100925000D03*
%TO.P,RP11,9,R8.2*%
%TO.N,INDEX*%
X123075000Y-98385000D03*
%TD*%
D12*
%TO.P,R6,1*%
%TO.N,5V*%
X153240000Y-132050000D03*
D13*
%TO.P,R6,2*%
%TO.N,Net-(J5-Pin_1)*%
X153240000Y-119350000D03*
%TD*%
D10*
%TO.P,U11,1*%
%TO.N,~{MOTOR}*%
X158600000Y-112720000D03*
D11*
%TO.P,U11,2*%
%TO.N,MOTOREN*%
X158600000Y-110180000D03*
%TO.P,U11,3*%
%TO.N,SIDE0*%
X158600000Y-107640000D03*
%TO.P,U11,4*%
%TO.N,SIDESELECT*%
X158600000Y-105100000D03*
%TO.P,U11,5*%
%TO.N,Net-(RP11C-R3.2)*%
X158600000Y-102560000D03*
%TO.P,U11,6*%
%TO.N,FAST_CLK*%
X158600000Y-100020000D03*
%TO.P,U11,7,GND*%
%TO.N,GND*%
X158600000Y-97480000D03*
%TO.P,U11,8*%
%TO.N,DATA*%
X150980000Y-97480000D03*
%TO.P,U11,9*%
%TO.N,Net-(RP11F-R6.2)*%
X150980000Y-100020000D03*
%TO.P,U11,10*%
%TO.N,unconnected-(U11-Pad10)*%
X150980000Y-102560000D03*
%TO.P,U11,11*%
%TO.N,5V*%
X150980000Y-105100000D03*
%TO.P,U11,12*%
%TO.N,DATA*%
X150980000Y-107640000D03*
%TO.P,U11,13*%
%TO.N,Net-(U11-Pad13)*%
X150980000Y-110180000D03*
%TO.P,U11,14,VCC*%
%TO.N,5V*%
X150980000Y-112720000D03*
%TD*%
D10*
%TO.P,U9,1*%
%TO.N,~{WDSEL}*%
X141860000Y-57550000D03*
D11*
%TO.P,U9,2*%
%TO.N,Net-(U7-Pad4)*%
X141860000Y-55010000D03*
%TO.P,U9,3*%
%TO.N,DATA*%
X141860000Y-52470000D03*
%TO.P,U9,4*%
%TO.N,DATA_IN*%
X141860000Y-49930000D03*
%TO.P,U9,5*%
%TO.N,SLOW_CLK*%
X141860000Y-47390000D03*
%TO.P,U9,6*%
%TO.N,CLK_IN*%
X141860000Y-44850000D03*
%TO.P,U9,7,GND*%
%TO.N,GND*%
X141860000Y-42310000D03*
%TO.P,U9,8*%
%TO.N,ATN_IN*%
X134240000Y-42310000D03*
%TO.P,U9,9*%
%TO.N,~{ATN}*%
X134240000Y-44850000D03*
%TO.P,U9,10*%
%TO.N,Net-(U12-Pad11)*%
X134240000Y-47390000D03*
%TO.P,U9,11*%
%TO.N,~{DRV_RESET}*%
X134240000Y-49930000D03*
%TO.P,U9,12*%
%TO.N,Net-(U12-Pad13)*%
X134240000Y-52470000D03*
%TO.P,U9,13*%
%TO.N,Net-(D1-A)*%
X134240000Y-55010000D03*
%TO.P,U9,14,VCC*%
%TO.N,5V*%
X134240000Y-57550000D03*
%TD*%
D12*
%TO.P,R9,1*%
%TO.N,Net-(U10-CP1..3)*%
X235480000Y-65280000D03*
D13*
%TO.P,R9,2*%
%TO.N,Net-(FB4-Pad2)*%
X222780000Y-65280000D03*
%TD*%
D26*
%TO.N,Net-(U6B-E)*%
X156770000Y-92350000D03*
%TO.N,DIRECTION*%
X108225000Y-71675000D03*
X107974000Y-91374000D03*
%TO.N,5V*%
X101950000Y-64975000D03*
%TO.N,~{DISKCHANGE}*%
X120725000Y-112325000D03*
%TO.N,STEP*%
X130012500Y-78337500D03*
X129275000Y-91125000D03*
%TO.N,~{RDY}*%
X118350000Y-79725000D03*
X117618200Y-99506800D03*
%TO.N,~{DISKCHANGE}*%
X119195000Y-99625000D03*
%TO.N,DATA*%
X121025000Y-97050000D03*
%TO.N,SELECT0*%
X108325000Y-103410800D03*
%TO.N,SIDESELECT*%
X125255000Y-91900000D03*
X125212347Y-78384387D03*
%TO.N,5V*%
X102006400Y-100400000D03*
X137040000Y-62520000D03*
X166510000Y-40125000D03*
X172220000Y-49660000D03*
X137150000Y-40120000D03*
X136600000Y-113100000D03*
X173610000Y-94620000D03*
X136800000Y-89920000D03*
X101975000Y-98375000D03*
X102006400Y-102350000D03*
X155065000Y-40595000D03*
%TO.N,GND*%
X138160000Y-96800000D03*
X124910000Y-45960000D03*
X139080000Y-70210000D03*
X161030000Y-139675000D03*
X103900000Y-88550000D03*
X155160000Y-97510000D03*
X103950000Y-78225000D03*
X103950000Y-80350000D03*
X175920000Y-112190000D03*
X124910000Y-52460000D03*
X137970000Y-106720000D03*
X175700000Y-139675000D03*
X196360000Y-90290000D03*
X104000000Y-86400000D03*
X175750000Y-99540000D03*
%TO.N,Net-(D1-A)*%
X228560000Y-86010000D03*
X152857200Y-55930800D03*
X131255500Y-57090000D03*
X216610000Y-77110000D03*
%TO.N,INDEX*%
X170205400Y-73075800D03*
X170790000Y-94170000D03*
%TO.N,MOTOREN*%
X161544000Y-94950000D03*
%TO.N,WRITEDATA*%
X159250000Y-88765000D03*
%TO.N,WRITEGATE*%
X161280000Y-86750000D03*
%TO.N,TRACK00*%
X166892500Y-86017500D03*
%TO.N,WRITEPROTECT*%
X199998212Y-72390000D03*
X199998212Y-52310402D03*
%TO.N,READDATA*%
X144678400Y-64668400D03*
X144424400Y-77054400D03*
%TO.N,SIDESELECT*%
X157875000Y-93275000D03*
%TO.N,~{RESET}*%
X176995500Y-75050000D03*
X192260000Y-88730000D03*
X176680000Y-48050000D03*
%TO.N,~{RDY}*%
X194715000Y-83325000D03*
X192300200Y-52200200D03*
X122478800Y-57251600D03*
X106199000Y-95374000D03*
X148386800Y-57200800D03*
X148515500Y-48530000D03*
%TO.N,~{DISKCHANGE}*%
X160660000Y-111590000D03*
X161270000Y-42600500D03*
X200863200Y-46482000D03*
%TO.N,PHI2*%
X207320000Y-51960000D03*
X193878350Y-74802850D03*
X146507200Y-53949600D03*
X146425000Y-73400000D03*
%TO.N,R{slash}~{W}*%
X148150000Y-107110000D03*
X147980000Y-80213200D03*
X221700000Y-80080000D03*
X147980000Y-85100000D03*
%TO.N,Net-(U6B-E)*%
X156565600Y-117120000D03*
%TO.N,Net-(R12-Pad2)*%
X161070000Y-41430000D03*
%TO.N,Net-(R13-Pad1)*%
X150870400Y-60299600D03*
X159664400Y-59994800D03*
%TO.N,CNT*%
X125937347Y-86962347D03*
%TO.N,SP*%
X175700000Y-59640000D03*
X179700000Y-87750000D03*
%TO.N,SLOW_CLK*%
X116789200Y-52273200D03*
%TO.N,~{IRQ}*%
X196240000Y-97129000D03*
%TO.N,DATA*%
X149733000Y-94361000D03*
X115976400Y-61692000D03*
%TO.N,~{ATN}*%
X129946400Y-103886000D03*
%TO.N,Net-(U5-PA3)*%
X200890000Y-96404500D03*
X182230000Y-97520000D03*
%TO.N,A0*%
X177605500Y-77710000D03*
X179320000Y-85210000D03*
%TO.N,A1*%
X179310000Y-81470000D03*
%TO.N,A2*%
X185505500Y-81945500D03*
%TO.N,A9*%
X207899000Y-124155200D03*
%TO.N,A10*%
X190398400Y-115970000D03*
X193294000Y-133350000D03*
%TO.N,A11*%
X205140000Y-121150000D03*
%TO.N,A12*%
X191998600Y-131318000D03*
%TO.N,A13*%
X200025000Y-127889000D03*
X198769000Y-138289000D03*
X166573200Y-114300000D03*
%TO.N,A14*%
X205810000Y-128740000D03*
X163576000Y-112522000D03*
%TO.N,A15*%
X143825000Y-96150000D03*
X215087200Y-95680000D03*
%TO.N,D7*%
X190246000Y-110871000D03*
%TO.N,D6*%
X190195200Y-108380000D03*
%TO.N,D5*%
X190189000Y-105695000D03*
%TO.N,D4*%
X220800000Y-114330000D03*
X207570000Y-104960000D03*
%TO.N,D3*%
X192770000Y-99510000D03*
%TO.N,D2*%
X215290400Y-93190000D03*
X207390000Y-94570000D03*
X190924500Y-100800000D03*
%TO.N,D1*%
X183057800Y-104099500D03*
X207370000Y-98400000D03*
%TO.N,D0*%
X208670000Y-100770000D03*
%TO.N,~{ROM_OE}*%
X145955000Y-89400000D03*
X171940000Y-91790000D03*
%TO.N,~{RAMWE}*%
X160020000Y-128422400D03*
X143865600Y-103733600D03*
%TO.N,~{WD_CS}*%
X145955500Y-80070000D03*
%TO.N,Net-(U4-STEP)*%
X153380000Y-65633600D03*
X161860000Y-52715500D03*
X159867600Y-65633600D03*
%TO.N,Net-(U4-DIRC)*%
X151434800Y-66903600D03*
X162310000Y-55290000D03*
X159867600Y-66903600D03*
%TO.N,Net-(U4-WG)*%
X163024500Y-73480000D03*
%TO.N,Net-(U4-WD)*%
X163024500Y-80020000D03*
%TO.N,SIDE0*%
X161285000Y-90335000D03*
%TO.N,~{MOTOR}*%
X168377701Y-133882299D03*
X198628000Y-134836500D03*
%TO.N,POWERLED*%
X148185500Y-72260000D03*
%TO.N,ACTLED*%
X161671000Y-82550000D03*
X200430000Y-79680000D03*
%TO.N,DATA_IN*%
X147636600Y-67005200D03*
%TO.N,DATA_OUT*%
X178960000Y-58050000D03*
X177860000Y-51360000D03*
%TO.N,CLK_IN*%
X200253600Y-47396400D03*
%TO.N,CLK_OUT*%
X201339500Y-51363548D03*
%TO.N,ATN_ACK*%
X132460000Y-68730000D03*
%TO.N,FAST_SER_DIR*%
X205670000Y-63230000D03*
%TO.N,ATN_IN*%
X131160000Y-72570000D03*
%TO.N,~{CIA_SEL}*%
X169714500Y-79110000D03*
X166979600Y-97485200D03*
X185675500Y-47180000D03*
X183685500Y-77810000D03*
X146505500Y-98861519D03*
%TO.N,~{FLAG}*%
X159715200Y-64325000D03*
X135890000Y-67280500D03*
X161080000Y-47345600D03*
%TO.N,Net-(U11-Pad13)*%
X147864600Y-109894600D03*
X146710000Y-71270000D03*
%TO.N,~{DRV_RESET}*%
X115773200Y-47461000D03*
X132144600Y-45618400D03*
%TO.N,Net-(RP11C-R3.2)*%
X117930000Y-43630000D03*
%TO.N,Net-(J5-Pin_1)*%
X163110000Y-126737200D03*
%TD*%
D27*
%TO.N,Net-(U6B-E)*%
X156770000Y-92350000D02*
X156770000Y-92150000D01*
%TO.N,SIDE0*%
X160126800Y-107640000D02*
X158600000Y-107640000D01*
X160825000Y-106941800D02*
X160126800Y-107640000D01*
X160625000Y-95250000D02*
X160825000Y-95450000D01*
X160625000Y-90995000D02*
X160625000Y-95250000D01*
X160825000Y-95450000D02*
X160825000Y-106941800D01*
X161285000Y-90335000D02*
X160625000Y-90995000D01*
%TO.N,MOTOREN*%
X160177600Y-110180000D02*
X158600000Y-110180000D01*
X161544000Y-94950000D02*
X161544000Y-108813600D01*
X161544000Y-108813600D02*
X160177600Y-110180000D01*
%TO.N,Net-(U6B-E)*%
X156770000Y-95000000D02*
X156770000Y-92350000D01*
%TO.N,SIDESELECT*%
X159430000Y-105100000D02*
X158600000Y-105100000D01*
X160275000Y-104255000D02*
X159430000Y-105100000D01*
X160275000Y-95750000D02*
X160275000Y-104255000D01*
X157875000Y-93350000D02*
X160275000Y-95750000D01*
X157875000Y-93275000D02*
X157875000Y-93350000D01*
%TO.N,Net-(U6B-E)*%
X157050000Y-83470000D02*
X157960000Y-82560000D01*
X157050000Y-87280000D02*
X157050000Y-83470000D01*
X157690000Y-90785000D02*
X157690000Y-87920000D01*
X157960000Y-82560000D02*
X158730000Y-82560000D01*
X156770000Y-91705000D02*
X157690000Y-90785000D01*
X157690000Y-87920000D02*
X157050000Y-87280000D01*
X156770000Y-92150000D02*
X156770000Y-91705000D01*
%TO.N,~{DISKCHANGE}*%
X161994000Y-110256000D02*
X160660000Y-111590000D01*
X161994000Y-98606000D02*
X161994000Y-110256000D01*
X162396000Y-98204000D02*
X161994000Y-98606000D01*
X162450000Y-65891797D02*
X161810000Y-66531797D01*
X163110000Y-55950000D02*
X162450000Y-56610000D01*
X162450000Y-56610000D02*
X162450000Y-65891797D01*
X161810000Y-80806396D02*
X162396000Y-81392396D01*
X163110000Y-47895600D02*
X163110000Y-55950000D01*
X161270000Y-46055600D02*
X163110000Y-47895600D01*
X161270000Y-42600500D02*
X161270000Y-46055600D01*
X162396000Y-81392396D02*
X162396000Y-98204000D01*
X161810000Y-66531797D02*
X161810000Y-80806396D01*
%TO.N,Net-(R12-Pad2)*%
X162444000Y-117686000D02*
X160820000Y-119310000D01*
X162444000Y-99031000D02*
X162444000Y-117686000D01*
X162850000Y-98625000D02*
X162444000Y-99031000D01*
X162850000Y-94053600D02*
X162850000Y-98625000D01*
X162300000Y-66678193D02*
X162300000Y-80660000D01*
X162846000Y-94049600D02*
X162850000Y-94053600D01*
X162300000Y-80660000D02*
X162846000Y-81206000D01*
X162900000Y-56990000D02*
X162900000Y-66078193D01*
X163560000Y-43865195D02*
X163560000Y-56330000D01*
X161124805Y-41430000D02*
X163560000Y-43865195D01*
X162900000Y-66078193D02*
X162300000Y-66678193D01*
X161070000Y-41430000D02*
X161124805Y-41430000D01*
X162846000Y-81206000D02*
X162846000Y-94049600D01*
X163560000Y-56330000D02*
X162900000Y-56990000D01*
%TO.N,SIDESELECT*%
X125212347Y-91857347D02*
X125255000Y-91900000D01*
X125212347Y-78384387D02*
X125212347Y-91857347D01*
%TO.N,STEP*%
X129975000Y-78575000D02*
X129975000Y-90425000D01*
X130012500Y-78537500D02*
X129975000Y-78575000D01*
X129975000Y-90425000D02*
X129275000Y-91125000D01*
X130012500Y-78337500D02*
X130012500Y-78537500D01*
%TO.N,CNT*%
X125255000Y-72555000D02*
X123332800Y-70632800D01*
X123332800Y-70632800D02*
X123332800Y-47742400D01*
X125255000Y-77130000D02*
X125255000Y-72555000D01*
X123332800Y-47742400D02*
X120440400Y-44850000D01*
X126575000Y-86324694D02*
X126575000Y-78450000D01*
X120440400Y-44850000D02*
X119940000Y-44850000D01*
X125937347Y-86962347D02*
X126575000Y-86324694D01*
X126575000Y-78450000D02*
X125255000Y-77130000D01*
%TO.N,~{RDY}*%
X118350000Y-98775000D02*
X117618200Y-99506800D01*
X118350000Y-79725000D02*
X118350000Y-98775000D01*
%TO.N,Net-(RP11C-R3.2)*%
X119975000Y-107910000D02*
X123075000Y-111010000D01*
X119975000Y-96000000D02*
X119975000Y-107910000D01*
X119925847Y-95950847D02*
X119975000Y-96000000D01*
X119925847Y-95949433D02*
X119925847Y-95950847D01*
X119646000Y-74921000D02*
X119646000Y-95669586D01*
X116306000Y-71581000D02*
X119646000Y-74921000D01*
X119646000Y-95669586D02*
X119925847Y-95949433D01*
X116306000Y-63369600D02*
X116306000Y-71581000D01*
X114858800Y-61922400D02*
X116306000Y-63369600D01*
X117930000Y-43630000D02*
X114858800Y-46701200D01*
X114858800Y-46701200D02*
X114858800Y-61922400D01*
%TO.N,~{DISKCHANGE}*%
X118850000Y-114200000D02*
X118850000Y-120000000D01*
X120725000Y-112325000D02*
X118850000Y-114200000D01*
X119075000Y-99745000D02*
X119195000Y-99625000D01*
X120725000Y-112325000D02*
X119075000Y-110675000D01*
X119075000Y-110675000D02*
X119075000Y-99745000D01*
%TO.N,Net-(U4-STEP)*%
X161550000Y-53025500D02*
X161860000Y-52715500D01*
X161550000Y-63951200D02*
X161550000Y-53025500D01*
X159867600Y-65633600D02*
X161550000Y-63951200D01*
%TO.N,Net-(U4-DIRC)*%
X162000000Y-64771200D02*
X162000000Y-55600000D01*
X159867600Y-66903600D02*
X162000000Y-64771200D01*
X162000000Y-55600000D02*
X162310000Y-55290000D01*
%TO.N,~{ROM_OE}*%
X143588400Y-80190000D02*
X141590000Y-80190000D01*
X145955500Y-82557100D02*
X143588400Y-80190000D01*
X145955500Y-89399500D02*
X145955500Y-82557100D01*
X145955000Y-89400000D02*
X145955500Y-89399500D01*
%TO.N,WRITEGATE*%
X160740000Y-73180000D02*
X159960000Y-72400000D01*
X160740000Y-83017002D02*
X160740000Y-73180000D01*
X161280000Y-83557002D02*
X160740000Y-83017002D01*
X161280000Y-86750000D02*
X161280000Y-83557002D01*
X159960000Y-72400000D02*
X158730000Y-72400000D01*
%TO.N,TRACK00*%
X167950000Y-69940000D02*
X166340000Y-69940000D01*
X168351200Y-70341200D02*
X167950000Y-69940000D01*
X168351200Y-84558800D02*
X168351200Y-70341200D01*
X166892500Y-86017500D02*
X168351200Y-84558800D01*
%TO.N,WRITEDATA*%
X159430000Y-77480000D02*
X158730000Y-77480000D01*
X160255000Y-78305000D02*
X159430000Y-77480000D01*
X160255000Y-83557307D02*
X160255000Y-78305000D01*
X160450000Y-83752307D02*
X160255000Y-83557307D01*
X160450000Y-87565000D02*
X160450000Y-83752307D01*
X159250000Y-88765000D02*
X160450000Y-87565000D01*
%TO.N,~{RDY}*%
X194760000Y-54660000D02*
X192300200Y-52200200D01*
X194760000Y-83280000D02*
X194760000Y-54660000D01*
X194715000Y-83325000D02*
X194760000Y-83280000D01*
D28*
%TO.N,GND*%
X108325000Y-114500000D02*
X110200000Y-116375000D01*
X108325000Y-113100000D02*
X108325000Y-114500000D01*
X114370000Y-114905000D02*
X114370000Y-113570800D01*
X112900000Y-116375000D02*
X114370000Y-114905000D01*
X110200000Y-116375000D02*
X112900000Y-116375000D01*
X108325000Y-118250000D02*
X110200000Y-116375000D01*
D27*
%TO.N,~{DISKCHANGE}*%
X114450000Y-68800000D02*
X114450000Y-67750000D01*
X119195000Y-75170000D02*
X115855000Y-71830000D01*
X115855000Y-70205000D02*
X114450000Y-68800000D01*
X119195000Y-87200000D02*
X119195000Y-75170000D01*
X115855000Y-71830000D02*
X115855000Y-70205000D01*
%TO.N,DATA*%
X120097000Y-74722000D02*
X116757000Y-71382000D01*
X116757000Y-62616900D02*
X115976400Y-61836300D01*
X115976400Y-61836300D02*
X115976400Y-61692000D01*
X120097000Y-94322000D02*
X120097000Y-74722000D01*
X116757000Y-71382000D02*
X116757000Y-62616900D01*
X121025000Y-95250000D02*
X120097000Y-94322000D01*
X121025000Y-97050000D02*
X121025000Y-95250000D01*
%TO.N,SP*%
X118110000Y-70725000D02*
X121450000Y-74065000D01*
X118110000Y-57740000D02*
X118110000Y-70725000D01*
X121450000Y-74065000D02*
X121450000Y-89100000D01*
X121450000Y-89100000D02*
X123075000Y-90725000D01*
X118300000Y-57550000D02*
X118110000Y-57740000D01*
%TO.N,SLOW_CLK*%
X120999000Y-91189000D02*
X123075000Y-93265000D01*
X117659000Y-59747000D02*
X117659000Y-70911810D01*
X117659000Y-70911810D02*
X120999000Y-74251810D01*
X116795500Y-58883500D02*
X117659000Y-59747000D01*
X120999000Y-74251810D02*
X120999000Y-91189000D01*
X116795500Y-57210500D02*
X116795500Y-58883500D01*
X116810000Y-52294000D02*
X116810000Y-57196000D01*
X116789200Y-52273200D02*
X116810000Y-52294000D01*
X116810000Y-57196000D02*
X116795500Y-57210500D01*
%TO.N,~{DRV_RESET}*%
X117208000Y-71158000D02*
X120548000Y-74498000D01*
X117208000Y-60108000D02*
X117208000Y-71158000D01*
X120548000Y-93278000D02*
X123075000Y-95805000D01*
X115773200Y-58673200D02*
X117208000Y-60108000D01*
X115773200Y-47461000D02*
X115773200Y-58673200D01*
X120548000Y-74498000D02*
X120548000Y-93278000D01*
%TO.N,DIRECTION*%
X108225000Y-91123000D02*
X107974000Y-91374000D01*
X108225000Y-71675000D02*
X108225000Y-91123000D01*
D28*
%TO.N,5V*%
X101975000Y-97235800D02*
X101975000Y-98375000D01*
X101950000Y-64975000D02*
X101950000Y-97210800D01*
X101950000Y-97210800D02*
X101975000Y-97235800D01*
D27*
%TO.N,~{RDY}*%
X109425000Y-67725000D02*
X109495001Y-67654999D01*
X109425000Y-92148000D02*
X109425000Y-67725000D01*
X106199000Y-95374000D02*
X109425000Y-92148000D01*
%TO.N,GND*%
X103900000Y-63730000D02*
X104250000Y-63380000D01*
X103900000Y-78175000D02*
X103900000Y-63730000D01*
X103950000Y-78225000D02*
X103900000Y-78175000D01*
%TO.N,FD_PIN34*%
X111910001Y-72850799D02*
X111830000Y-72930800D01*
X111910001Y-67750000D02*
X111910001Y-72850799D01*
D28*
%TO.N,5V*%
X102006400Y-102350000D02*
X102006400Y-100400000D01*
X102006400Y-121666000D02*
X102006400Y-102350000D01*
X102006400Y-99633600D02*
X101975000Y-99602200D01*
X101975000Y-99602200D02*
X101975000Y-98375000D01*
X102006400Y-100400000D02*
X102006400Y-99633600D01*
D27*
%TO.N,SELECT0*%
X104025000Y-107710800D02*
X108325000Y-103410800D01*
X104025000Y-112900000D02*
X104025000Y-107710800D01*
X105875000Y-114750000D02*
X104025000Y-112900000D01*
%TO.N,SELECT1*%
X110579200Y-100870800D02*
X111830000Y-100870800D01*
X109700000Y-101750000D02*
X110579200Y-100870800D01*
X109700000Y-105845000D02*
X109700000Y-101750000D01*
X105875000Y-109670000D02*
X109700000Y-105845000D01*
D28*
%TO.N,GND*%
X104250000Y-63380000D02*
X108115000Y-63380000D01*
D27*
X103950000Y-78225000D02*
X103950000Y-80350000D01*
X103925000Y-86325000D02*
X104000000Y-86400000D01*
X103925000Y-80375000D02*
X103925000Y-86325000D01*
X103950000Y-80350000D02*
X103925000Y-80375000D01*
X103900000Y-86500000D02*
X103900000Y-88550000D01*
X104000000Y-86400000D02*
X103900000Y-86500000D01*
%TO.N,~{RDY}*%
X122100000Y-70750000D02*
X124600000Y-73250000D01*
X122100000Y-68850000D02*
X122100000Y-67025000D01*
X122100000Y-68850000D02*
X122100000Y-70750000D01*
X124600000Y-73250000D02*
X124600000Y-76500000D01*
X124600000Y-76500000D02*
X123075000Y-78025000D01*
X122120000Y-57610400D02*
X122478800Y-57251600D01*
X122120000Y-67005000D02*
X122120000Y-57610400D01*
X122100000Y-67025000D02*
X122120000Y-67005000D01*
%TO.N,Net-(RP11F-R6.2)*%
X124410000Y-103465000D02*
X123075000Y-103465000D01*
X125980000Y-101895000D02*
X124410000Y-103465000D01*
X125980000Y-87945000D02*
X125980000Y-101895000D01*
X127224000Y-78411810D02*
X127224000Y-86701000D01*
X125980000Y-69680000D02*
X125980000Y-77167810D01*
X129430000Y-66230000D02*
X125980000Y-69680000D01*
X127224000Y-86701000D02*
X125980000Y-87945000D01*
X129430000Y-60810000D02*
X129430000Y-66230000D01*
X125980000Y-77167810D02*
X127224000Y-78411810D01*
X128710000Y-60090000D02*
X129430000Y-60810000D01*
X127560000Y-60090000D02*
X128710000Y-60090000D01*
%TO.N,FAST_CLK*%
X130220000Y-66640000D02*
X130220000Y-50050000D01*
X126590000Y-77140000D02*
X126590000Y-70270000D01*
X127675000Y-78225000D02*
X126590000Y-77140000D01*
X126590000Y-88035000D02*
X127675000Y-86950000D01*
X127675000Y-86950000D02*
X127675000Y-78225000D01*
X130220000Y-50050000D02*
X127560000Y-47390000D01*
X126590000Y-97993200D02*
X126590000Y-88035000D01*
X126590000Y-70270000D02*
X130220000Y-66640000D01*
X125120000Y-106005000D02*
X123075000Y-106005000D01*
X126590000Y-104535000D02*
X125120000Y-106005000D01*
X126590000Y-97993200D02*
X126590000Y-104535000D01*
%TO.N,PHI2*%
X145960000Y-54496800D02*
X146507200Y-53949600D01*
X145960000Y-72935000D02*
X145960000Y-54496800D01*
X146425000Y-73400000D02*
X145960000Y-72935000D01*
%TO.N,Net-(U6B-E)*%
X156990000Y-116695600D02*
X156565600Y-117120000D01*
X156990000Y-115140000D02*
X156990000Y-116695600D01*
X156770000Y-95000000D02*
X156770000Y-114920000D01*
X156770000Y-114920000D02*
X156990000Y-115140000D01*
%TO.N,A15*%
X143029600Y-82730000D02*
X141590000Y-82730000D01*
X143764000Y-83464400D02*
X143029600Y-82730000D01*
X143764000Y-96089000D02*
X143764000Y-83464400D01*
X143825000Y-96150000D02*
X143764000Y-96089000D01*
X140263800Y-97625000D02*
X142350000Y-97625000D01*
X138988800Y-98900000D02*
X140263800Y-97625000D01*
X138988800Y-112238800D02*
X138988800Y-98900000D01*
X142350000Y-97625000D02*
X143825000Y-96150000D01*
X140940000Y-114190000D02*
X138988800Y-112238800D01*
%TO.N,DATA*%
X121025000Y-98875000D02*
X121025000Y-97050000D01*
X123075000Y-100925000D02*
X121025000Y-98875000D01*
%TO.N,FD_PIN34*%
X112035001Y-72725799D02*
X111830000Y-72930800D01*
D28*
%TO.N,GND*%
X100939600Y-63380000D02*
X102600000Y-63380000D01*
X107435000Y-112210000D02*
X105875000Y-112210000D01*
X108325000Y-113100000D02*
X107435000Y-112210000D01*
X106578400Y-119996600D02*
X108325000Y-118250000D01*
X106578400Y-126746000D02*
X106578400Y-119996600D01*
%TO.N,5V*%
X119690000Y-70365000D02*
X123075000Y-73750000D01*
X119690000Y-70060000D02*
X119690000Y-70365000D01*
X123075000Y-73750000D02*
X123075000Y-75485000D01*
D27*
%TO.N,Net-(D1-A)*%
X128480000Y-88500000D02*
X128480000Y-75890000D01*
X128220000Y-88760000D02*
X128480000Y-88500000D01*
D28*
%TO.N,GND*%
X114370000Y-72930800D02*
X114375000Y-72925800D01*
%TO.N,5V*%
X154216000Y-85100000D02*
X151110000Y-85100000D01*
X153770000Y-112700000D02*
X153770000Y-105100000D01*
X154480000Y-84836000D02*
X154480000Y-63520000D01*
X198640000Y-93110000D02*
X198660000Y-93130000D01*
X153770000Y-114110000D02*
X152320000Y-115560000D01*
X166340000Y-49620000D02*
X166340000Y-46190000D01*
X119940000Y-67060000D02*
X119690000Y-67310000D01*
X213680000Y-105080000D02*
X213680000Y-85020000D01*
X153770000Y-90000000D02*
X154480000Y-89290000D01*
X153416000Y-57404000D02*
X153380000Y-57440000D01*
X153770000Y-105100000D02*
X150980000Y-105100000D01*
X166520000Y-46010000D02*
X166520000Y-40135000D01*
X201911600Y-42030000D02*
X198640000Y-45301600D01*
X173610000Y-94620000D02*
X173610000Y-130770000D01*
X153770000Y-113490000D02*
X153770000Y-114110000D01*
X154330400Y-57404000D02*
X153416000Y-57404000D01*
X154985000Y-40595000D02*
X154330400Y-41249600D01*
X173610000Y-130770000D02*
X171870000Y-132510000D01*
X154480000Y-63520000D02*
X153370000Y-62410000D01*
X153770000Y-113490000D02*
X153770000Y-112700000D01*
X137150000Y-40120000D02*
X137040000Y-40230000D01*
X172220000Y-84890000D02*
X173610000Y-86280000D01*
X152320000Y-115560000D02*
X150570000Y-115560000D01*
X198640000Y-45301600D02*
X198640000Y-93110000D01*
X136600000Y-113100000D02*
X136600000Y-90120000D01*
X137040000Y-63590000D02*
X137040000Y-62520000D01*
X119690000Y-67310000D02*
X119690000Y-70060000D01*
X153750000Y-112720000D02*
X153770000Y-112700000D01*
X155065000Y-40595000D02*
X154985000Y-40595000D01*
X128220000Y-98260000D02*
X128360000Y-98400000D01*
X150980000Y-112720000D02*
X153750000Y-112720000D01*
X137490200Y-64040200D02*
X137040000Y-63590000D01*
X212230000Y-107110000D02*
X210340000Y-107110000D01*
X198361800Y-130108200D02*
X198361800Y-93428200D01*
X137040000Y-40230000D02*
X137040000Y-62520000D01*
X154480000Y-84836000D02*
X154216000Y-85100000D01*
X213680000Y-105080000D02*
X213680000Y-105660000D01*
X134020000Y-62520000D02*
X134020000Y-57770000D01*
X203630000Y-42030000D02*
X201911600Y-42030000D01*
X133970000Y-85270000D02*
X133970000Y-89780000D01*
X154330400Y-41249600D02*
X154330400Y-57404000D01*
X170670000Y-132510000D02*
X170670000Y-136640000D01*
X154330400Y-61449600D02*
X153370000Y-62410000D01*
X195330000Y-132530000D02*
X195940000Y-132530000D01*
X153370000Y-62410000D02*
X151400000Y-62410000D01*
X154480000Y-89290000D02*
X154480000Y-84836000D01*
X128220000Y-96380000D02*
X128220000Y-98260000D01*
X154330400Y-57404000D02*
X154330400Y-61449600D01*
X151210000Y-89860000D02*
X153630000Y-89860000D01*
X213680000Y-105660000D02*
X212230000Y-107110000D01*
X172220000Y-49660000D02*
X172220000Y-84890000D01*
X166510000Y-40125000D02*
X166520000Y-40135000D01*
X195330000Y-132530000D02*
X195330000Y-136410000D01*
X166340000Y-46190000D02*
X166520000Y-46010000D01*
X173610000Y-86280000D02*
X173610000Y-94620000D01*
X132614000Y-89890000D02*
X128220000Y-94284000D01*
X153630000Y-89860000D02*
X153770000Y-90000000D01*
X133970000Y-89780000D02*
X134080000Y-89890000D01*
X195940000Y-132530000D02*
X198361800Y-130108200D01*
X153770000Y-105100000D02*
X153770000Y-90000000D01*
X128220000Y-94284000D02*
X128220000Y-96380000D01*
X171870000Y-132510000D02*
X170670000Y-132510000D01*
X134020000Y-57770000D02*
X134240000Y-57550000D01*
X153380000Y-57440000D02*
X151170000Y-57440000D01*
X213680000Y-85020000D02*
X212850000Y-84190000D01*
X119940000Y-67060000D02*
X119940000Y-65170000D01*
X136600000Y-90120000D02*
X136800000Y-89920000D01*
X136800000Y-89920000D02*
X137490200Y-89229800D01*
X170670000Y-136640000D02*
X170620000Y-136690000D01*
X198361800Y-93428200D02*
X198660000Y-93130000D01*
X134080000Y-89890000D02*
X132614000Y-89890000D01*
X137490200Y-89229800D02*
X137490200Y-64040200D01*
X102006400Y-121666000D02*
X96276400Y-121666000D01*
%TO.N,GND*%
X231270000Y-48260000D02*
X235508800Y-48260000D01*
X226660000Y-141210000D02*
X200240000Y-141210000D01*
X160990000Y-140114900D02*
X160990000Y-141210000D01*
X173195000Y-46010000D02*
X171520000Y-46010000D01*
X225050000Y-73640000D02*
X225050000Y-73184000D01*
X237120000Y-119546800D02*
X237120000Y-76040000D01*
X137970000Y-106720000D02*
X137980000Y-106710000D01*
X139090400Y-89900400D02*
X139080000Y-89890000D01*
X124920000Y-43320000D02*
X124920000Y-38930000D01*
X114370000Y-93250800D02*
X114370000Y-90710800D01*
X124940000Y-61512000D02*
X126058000Y-62630000D01*
X94030800Y-125323600D02*
X95148400Y-124206000D01*
X120180000Y-38860000D02*
X112600000Y-38860000D01*
X175700000Y-141210000D02*
X175700000Y-139675000D01*
X236980000Y-57930000D02*
X234880000Y-57930000D01*
X114370000Y-90710800D02*
X114370000Y-88170800D01*
X111196000Y-126746000D02*
X114754400Y-130304400D01*
X225050000Y-73640000D02*
X225050000Y-76000000D01*
X156120000Y-65280000D02*
X156400000Y-65000000D01*
X155160000Y-115150000D02*
X155570000Y-115560000D01*
X124920000Y-38930000D02*
X124850000Y-38860000D01*
X228501200Y-137590000D02*
X225580000Y-137590000D01*
X138529000Y-92001400D02*
X138529000Y-91982860D01*
X114370000Y-105950800D02*
X114370000Y-103410800D01*
X156400000Y-43550000D02*
X156400000Y-42164000D01*
X137980000Y-96980000D02*
X138160000Y-96800000D01*
X124910000Y-56830000D02*
X124940000Y-56860000D01*
X175700000Y-141210000D02*
X160990000Y-141210000D01*
X172230000Y-38900000D02*
X172270000Y-38860000D01*
X200330000Y-141120000D02*
X200330000Y-136410000D01*
X108966000Y-139344400D02*
X111435600Y-139344400D01*
X132588000Y-137668000D02*
X135636000Y-137668000D01*
X109265000Y-53218000D02*
X109285000Y-53238000D01*
X99556200Y-47747600D02*
X102313800Y-44990000D01*
X109295000Y-62200000D02*
X108683700Y-62811300D01*
X237120000Y-76040000D02*
X237120000Y-66360000D01*
X137970000Y-106720000D02*
X137970000Y-117100000D01*
X196400000Y-86742944D02*
X196400000Y-40840000D01*
X196360000Y-90290000D02*
X196360000Y-86782944D01*
X106578400Y-126746000D02*
X111090000Y-126746000D01*
X114370000Y-88170800D02*
X114370000Y-85630800D01*
X139020000Y-62520000D02*
X139020000Y-42890000D01*
X114370000Y-113570800D02*
X114370000Y-111030800D01*
X99556200Y-58467600D02*
X99626600Y-58538000D01*
X196360000Y-86782944D02*
X196400000Y-86742944D01*
X160990000Y-141210000D02*
X137654000Y-141210000D01*
X114754400Y-130304400D02*
X114754400Y-133556000D01*
X175920000Y-112190000D02*
X175620000Y-112490000D01*
X98150800Y-132130800D02*
X95360800Y-132130800D01*
X156364000Y-69860000D02*
X158730000Y-69860000D01*
X237170000Y-57740000D02*
X236980000Y-57930000D01*
X175750000Y-112020000D02*
X175750000Y-99540000D01*
X156400000Y-38860000D02*
X172190000Y-38860000D01*
X114370000Y-75470800D02*
X114370000Y-72930800D01*
X222960000Y-38860000D02*
X223570000Y-38860000D01*
X139020000Y-42890000D02*
X139600000Y-42310000D01*
X125180000Y-68170000D02*
X124690000Y-68660000D01*
X94030800Y-130800800D02*
X94030800Y-125323600D01*
X181580000Y-49620000D02*
X181580000Y-38910000D01*
X156210000Y-89860000D02*
X155160000Y-90910000D01*
X111435600Y-139344400D02*
X114754400Y-136025600D01*
X227184800Y-71049200D02*
X232670000Y-71049200D01*
X139080000Y-70210000D02*
X139080000Y-89890000D01*
X99560000Y-58471400D02*
X99560000Y-62000400D01*
X139600000Y-42310000D02*
X141860000Y-42310000D01*
X155160000Y-90910000D02*
X155160000Y-115150000D01*
X124910000Y-52460000D02*
X124910000Y-56830000D01*
X174142400Y-46812200D02*
X173500000Y-46169800D01*
X203660000Y-97090000D02*
X202950000Y-97800000D01*
X237170000Y-61510000D02*
X237170000Y-66310000D01*
X109285000Y-57728001D02*
X109294999Y-57738000D01*
X237170000Y-49921200D02*
X237170000Y-57740000D01*
X99556200Y-58467600D02*
X99560000Y-58471400D01*
X95360800Y-132130800D02*
X94030800Y-130800800D01*
X124940000Y-61512000D02*
X125180000Y-61752000D01*
X222960000Y-38860000D02*
X224640000Y-38860000D01*
X203660000Y-93130000D02*
X203660000Y-97090000D01*
X114370000Y-98330800D02*
X114370000Y-97030800D01*
X122550000Y-133556000D02*
X126364000Y-133556000D01*
X125930000Y-42310000D02*
X127560000Y-42310000D01*
X124910000Y-43330000D02*
X124920000Y-43320000D01*
X175920000Y-112190000D02*
X175750000Y-112020000D01*
X203630000Y-93100000D02*
X203660000Y-93130000D01*
X106040000Y-44990000D02*
X109265000Y-41765000D01*
X232670000Y-68380000D02*
X230130000Y-68380000D01*
X224640000Y-38860000D02*
X228470000Y-42690000D01*
X237030000Y-61650000D02*
X235260000Y-61650000D01*
X126058000Y-62630000D02*
X127560000Y-62630000D01*
X138529000Y-91982860D02*
X139090400Y-91421460D01*
X112170000Y-38860000D02*
X112600000Y-38860000D01*
X124910000Y-43330000D02*
X125930000Y-42310000D01*
X196400000Y-40840000D02*
X196400000Y-38860000D01*
X138040000Y-92490400D02*
X138529000Y-92001400D01*
X228470000Y-45460000D02*
X231270000Y-48260000D01*
X228955600Y-127711200D02*
X237120000Y-119546800D01*
X228955600Y-138914400D02*
X226660000Y-141210000D01*
X114754400Y-133556000D02*
X122550000Y-133556000D01*
X99560000Y-62000400D02*
X100939600Y-63380000D01*
X109285000Y-53238000D02*
X109285000Y-57728001D01*
X237080000Y-76000000D02*
X237120000Y-76040000D01*
X228955600Y-137135600D02*
X228955600Y-135636000D01*
X124910000Y-56830000D02*
X125630000Y-57550000D01*
X128323600Y-133556000D02*
X132435600Y-137668000D01*
X225050000Y-73184000D02*
X227184800Y-71049200D01*
X95148400Y-124206000D02*
X96276400Y-124206000D01*
X156210000Y-89860000D02*
X156120000Y-89770000D01*
X135636000Y-137668000D02*
X138176000Y-137668000D01*
X237170000Y-57740000D02*
X237170000Y-61510000D01*
X203630000Y-90290000D02*
X203630000Y-93100000D01*
X200240000Y-141210000D02*
X175700000Y-141210000D01*
X181630000Y-38860000D02*
X216480000Y-38860000D01*
X181580000Y-38910000D02*
X181630000Y-38860000D01*
X228955600Y-135636000D02*
X228955600Y-138914400D01*
X114370000Y-83090800D02*
X114370000Y-80550800D01*
X161010000Y-140094900D02*
X161010000Y-139675000D01*
X99626600Y-58538000D02*
X102065000Y-58538000D01*
X109515000Y-41515000D02*
X112170000Y-38860000D01*
X232670000Y-68380000D02*
X232670000Y-70849200D01*
X99556200Y-58467600D02*
X99556200Y-47747600D01*
X102006400Y-126746000D02*
X96276400Y-126746000D01*
X228470000Y-45460000D02*
X228470000Y-42690000D01*
X235210000Y-76000000D02*
X237080000Y-76000000D01*
X232870000Y-71049200D02*
X236516800Y-71049200D01*
X138040000Y-96680000D02*
X138040000Y-92490400D01*
X108960400Y-139350000D02*
X105370000Y-139350000D01*
X156400000Y-62410000D02*
X156400000Y-43550000D01*
X114370000Y-97030800D02*
X114370000Y-95790800D01*
X175620000Y-112490000D02*
X175620000Y-136690000D01*
X114370000Y-100870800D02*
X114370000Y-98330800D01*
X108115000Y-63380000D02*
X108683700Y-62811300D01*
X135636000Y-139192000D02*
X135636000Y-137668000D01*
X137980000Y-106710000D02*
X137980000Y-96980000D01*
X216480000Y-38860000D02*
X222960000Y-38860000D01*
X114370000Y-80550800D02*
X114370000Y-78010800D01*
X156120000Y-89770000D02*
X156120000Y-70104000D01*
X156400000Y-42164000D02*
X156436000Y-42200000D01*
X156400000Y-38860000D02*
X139030000Y-38860000D01*
X114370000Y-85630800D02*
X114370000Y-83090800D01*
X124850000Y-38860000D02*
X120180000Y-38860000D01*
X161010000Y-139675000D02*
X161030000Y-139675000D01*
X102313800Y-44990000D02*
X106040000Y-44990000D01*
X139020000Y-42890000D02*
X139014400Y-42884400D01*
X108966000Y-139344400D02*
X108960400Y-139350000D01*
X109294999Y-57738000D02*
X109295000Y-62200000D01*
X99516400Y-124206000D02*
X96276400Y-124206000D01*
X172270000Y-38860000D02*
X181630000Y-38860000D01*
X200240000Y-141210000D02*
X200330000Y-141120000D01*
X228955600Y-137135600D02*
X228501200Y-137590000D01*
X232670000Y-71049200D02*
X232870000Y-71049200D01*
X138160000Y-96800000D02*
X138040000Y-96680000D01*
X102006400Y-124206000D02*
X99516400Y-124206000D01*
X156400000Y-65000000D02*
X156400000Y-62410000D01*
X125630000Y-57550000D02*
X127560000Y-57550000D01*
X173500000Y-45705000D02*
X173500000Y-39415000D01*
X235508800Y-48260000D02*
X237170000Y-49921200D01*
X139030000Y-38860000D02*
X124850000Y-38860000D01*
X114370000Y-108490800D02*
X114370000Y-105950800D01*
X114370000Y-111030800D02*
X114370000Y-108490800D01*
X109265000Y-41765000D02*
X109515000Y-41515000D01*
X224640000Y-38860000D02*
X223570000Y-38860000D01*
X161010000Y-140094900D02*
X160990000Y-140114900D01*
X139080000Y-62580000D02*
X139020000Y-62520000D01*
X114370000Y-103410800D02*
X114370000Y-100870800D01*
X139014400Y-42884400D02*
X139030000Y-42868800D01*
X124690000Y-68660000D02*
X124690000Y-70060000D01*
X156400000Y-42164000D02*
X156400000Y-38860000D01*
X175750000Y-99540000D02*
X175880000Y-99410000D01*
X228955600Y-135636000D02*
X228955600Y-127711200D01*
X175880000Y-99410000D02*
X175880000Y-85890000D01*
X111090000Y-126746000D02*
X111196000Y-126746000D01*
X237170000Y-61510000D02*
X237030000Y-61650000D01*
X137654000Y-141210000D02*
X135636000Y-139192000D01*
X114370000Y-78010800D02*
X114370000Y-75470800D01*
X124910000Y-52460000D02*
X124910000Y-43330000D01*
X139080000Y-70210000D02*
X139080000Y-62580000D01*
X132435600Y-137668000D02*
X132588000Y-137668000D01*
X105370000Y-139350000D02*
X98150800Y-132130800D01*
X172190000Y-38860000D02*
X172230000Y-38900000D01*
X174142400Y-84152400D02*
X174142400Y-46812200D01*
X109265000Y-48878000D02*
X109265000Y-53218000D01*
X232670000Y-70849200D02*
X232870000Y-71049200D01*
X175880000Y-85890000D02*
X174142400Y-84152400D01*
X124940000Y-56860000D02*
X124940000Y-61512000D01*
X237120000Y-66360000D02*
X237170000Y-66310000D01*
X114754400Y-136025600D02*
X114754400Y-133556000D01*
X196400000Y-40840000D02*
X196400000Y-39230000D01*
X139030000Y-42868800D02*
X139030000Y-38860000D01*
X156436000Y-42200000D02*
X158790000Y-42200000D01*
X139090400Y-91421460D02*
X139090400Y-89900400D01*
X156120000Y-70104000D02*
X156120000Y-65280000D01*
X126364000Y-133556000D02*
X128323600Y-133556000D01*
X202950000Y-97800000D02*
X202950000Y-99510000D01*
X173500000Y-46169800D02*
X173500000Y-45705000D01*
X114370000Y-95790800D02*
X114370000Y-93250800D01*
X102600000Y-63380000D02*
X104250000Y-63380000D01*
X102006400Y-126746000D02*
X106578400Y-126746000D01*
X210340000Y-89330000D02*
X210340000Y-86680000D01*
X125180000Y-61752000D02*
X125180000Y-68170000D01*
X109265000Y-48878000D02*
X109265000Y-41765000D01*
X210340000Y-86680000D02*
X207850000Y-84190000D01*
X156120000Y-70104000D02*
X156364000Y-69860000D01*
X137970000Y-117100000D02*
X138530000Y-117660000D01*
X173500000Y-45705000D02*
X173195000Y-46010000D01*
D27*
%TO.N,Net-(X1-Vcc)*%
X224570000Y-50310000D02*
X227260000Y-50310000D01*
X210210000Y-62400000D02*
X215857800Y-56752200D01*
X223470000Y-45460000D02*
X223470000Y-42670000D01*
X223800000Y-51080000D02*
X224570000Y-50310000D01*
X218127800Y-56752200D02*
X215857800Y-56752200D01*
X223800000Y-51080000D02*
X218127800Y-56752200D01*
%TO.N,Net-(D1-A)*%
X228560000Y-86010000D02*
X225460000Y-86010000D01*
X225460000Y-86010000D02*
X216610000Y-77160000D01*
X216610000Y-77160000D02*
X216610000Y-77110000D01*
X131255500Y-57090000D02*
X131270000Y-57104500D01*
X130300000Y-72404695D02*
X128480000Y-74224695D01*
X153100000Y-55688000D02*
X153100000Y-49210000D01*
X131270000Y-57104500D02*
X131270000Y-66900800D01*
X152857200Y-55930800D02*
X153100000Y-55688000D01*
X131270000Y-66900800D02*
X130300000Y-67870800D01*
X128480000Y-74224695D02*
X128480000Y-75890000D01*
X130300000Y-67870800D02*
X130300000Y-72404695D01*
X153100000Y-49210000D02*
X151170000Y-47280000D01*
%TO.N,INDEX*%
X170205400Y-73075800D02*
X170790000Y-73660400D01*
X170790000Y-73660400D02*
X170790000Y-94170000D01*
%TO.N,STEP*%
X111830000Y-90618000D02*
X111830000Y-90710800D01*
%TO.N,WRITEPROTECT*%
X199998212Y-72390000D02*
X199998212Y-52310402D01*
%TO.N,READDATA*%
X144678400Y-64668400D02*
X144475200Y-64871600D01*
X144475200Y-77003600D02*
X144424400Y-77054400D01*
X144475200Y-64871600D02*
X144475200Y-77003600D01*
%TO.N,Net-(CN7-Pin_5)*%
X105358000Y-54211000D02*
X105358000Y-60295000D01*
X102065000Y-50918000D02*
X105358000Y-54211000D01*
X105358000Y-60295000D02*
X106755000Y-61692000D01*
%TO.N,~{RESET}*%
X192090000Y-88560000D02*
X192090000Y-77332800D01*
X177020000Y-48390000D02*
X177020000Y-75025500D01*
X192260000Y-88730000D02*
X192090000Y-88560000D01*
X189807200Y-75050000D02*
X188390000Y-75050000D01*
X192090000Y-77332800D02*
X189807200Y-75050000D01*
X177020000Y-75025500D02*
X176995500Y-75050000D01*
X176680000Y-48050000D02*
X177020000Y-48390000D01*
%TO.N,GREEN_LED*%
X147080000Y-136830000D02*
X147080000Y-135672800D01*
X154977200Y-134162800D02*
X157120000Y-132020000D01*
X148590000Y-134162800D02*
X154977200Y-134162800D01*
X147080000Y-135672800D02*
X148590000Y-134162800D01*
%TO.N,RED_LED*%
X152160000Y-136830000D02*
X156000000Y-136830000D01*
X156000000Y-136830000D02*
X160820000Y-132010000D01*
%TO.N,Net-(U1-R{slash}~{W})*%
X229730000Y-104570000D02*
X229760000Y-104540000D01*
X225580000Y-104570000D02*
X229730000Y-104570000D01*
%TO.N,Net-(FB2-Pad1)*%
X213840000Y-64710000D02*
X213870000Y-64680000D01*
X210230000Y-64710000D02*
X213840000Y-64710000D01*
%TO.N,Net-(U1-02)*%
X213870000Y-80810000D02*
X213870000Y-77380000D01*
X225580000Y-91870000D02*
X222375200Y-91870000D01*
X215320000Y-82260000D02*
X213870000Y-80810000D01*
X215320000Y-84814800D02*
X215320000Y-82260000D01*
X222375200Y-91870000D02*
X215320000Y-84814800D01*
%TO.N,Net-(X1-OUT)*%
X223310000Y-48440000D02*
X228678400Y-48440000D01*
X230548400Y-50310000D02*
X234880000Y-50310000D01*
X228678400Y-48440000D02*
X230548400Y-50310000D01*
X222140000Y-49610000D02*
X223310000Y-48440000D01*
%TO.N,Net-(FB5-Pad1)*%
X216710000Y-79770000D02*
X216690000Y-79750000D01*
X216710000Y-83720000D02*
X216710000Y-79770000D01*
%TO.N,Net-(U10-Q3)*%
X227590000Y-78020000D02*
X229330000Y-79760000D01*
X227590000Y-76000000D02*
X227590000Y-78020000D01*
%TO.N,~{RDY}*%
X148386800Y-57200800D02*
X148386800Y-48658700D01*
X148386800Y-48658700D02*
X148515500Y-48530000D01*
%TO.N,~{DISKCHANGE}*%
X201150000Y-46768800D02*
X201150000Y-49780000D01*
X201150000Y-49780000D02*
X202340000Y-50970000D01*
X206430000Y-52570000D02*
X206430000Y-67170000D01*
X200863200Y-46482000D02*
X201150000Y-46768800D01*
X206430000Y-67170000D02*
X203630000Y-69970000D01*
X204830000Y-50970000D02*
X206430000Y-52570000D01*
X202340000Y-50970000D02*
X204830000Y-50970000D01*
%TO.N,Net-(JP1-A)*%
X207570000Y-44570000D02*
X207590000Y-44590000D01*
X203630000Y-44570000D02*
X207570000Y-44570000D01*
%TO.N,PHI2*%
X193395600Y-55465600D02*
X190120000Y-52190000D01*
X207320000Y-51960000D02*
X207320000Y-48050000D01*
X210880000Y-44490000D02*
X210880000Y-40790000D01*
X193878350Y-74802850D02*
X193395600Y-74320100D01*
X207320000Y-48050000D02*
X210880000Y-44490000D01*
X190120000Y-52190000D02*
X188390000Y-52190000D01*
X193395600Y-74320100D02*
X193395600Y-55465600D01*
%TO.N,R{slash}~{W}*%
X148150000Y-107110000D02*
X147980000Y-106940000D01*
X184640000Y-78700000D02*
X183240000Y-80100000D01*
X187560000Y-44570000D02*
X186400000Y-45730000D01*
X230960000Y-83290000D02*
X230960000Y-102020000D01*
X188390000Y-44570000D02*
X187560000Y-44570000D01*
X147980000Y-80213200D02*
X147980000Y-85100000D01*
X147980000Y-106940000D02*
X147980000Y-85100000D01*
X221700000Y-80080000D02*
X227750000Y-80080000D01*
X184640000Y-57700000D02*
X184640000Y-78700000D01*
X230960000Y-102020000D02*
X233500000Y-104560000D01*
X227750000Y-80080000D02*
X230960000Y-83290000D01*
X183240000Y-80100000D02*
X181580000Y-80100000D01*
X186400000Y-55940000D02*
X184640000Y-57700000D01*
X186400000Y-45730000D02*
X186400000Y-55940000D01*
%TO.N,Net-(U10-CP1..3)*%
X235210000Y-65550000D02*
X235480000Y-65280000D01*
X235210000Y-68380000D02*
X235210000Y-65550000D01*
%TO.N,PHI0*%
X227060000Y-96950000D02*
X225580000Y-96950000D01*
X229410000Y-94600000D02*
X227060000Y-96950000D01*
X229410000Y-83720000D02*
X229410000Y-94600000D01*
%TO.N,Net-(R13-Pad1)*%
X148930000Y-116301600D02*
X150281200Y-117652800D01*
X150281200Y-117652800D02*
X155397200Y-117652800D01*
X148910000Y-62260000D02*
X148910000Y-78250000D01*
X160650000Y-58958400D02*
X160650000Y-55320000D01*
X159664400Y-59944000D02*
X160650000Y-58958400D01*
X160650000Y-55320000D02*
X160230000Y-54900000D01*
X159664400Y-59994800D02*
X159664400Y-59944000D01*
X148930000Y-78270000D02*
X148930000Y-116301600D01*
X150870400Y-60299600D02*
X148910000Y-62260000D01*
X155397200Y-117652800D02*
X157064400Y-119320000D01*
X160230000Y-54900000D02*
X158790000Y-54900000D01*
X157064400Y-119320000D02*
X157120000Y-119320000D01*
X148910000Y-78250000D02*
X148930000Y-78270000D01*
%TO.N,CNT*%
X119940000Y-42310000D02*
X119940000Y-44850000D01*
%TO.N,SP*%
X175700000Y-59640000D02*
X175910000Y-59850000D01*
X175910000Y-83960000D02*
X179700000Y-87750000D01*
X175910000Y-59850000D02*
X175910000Y-83960000D01*
X119940000Y-49930000D02*
X118860000Y-49930000D01*
X118130000Y-57380000D02*
X118300000Y-57550000D01*
X118860000Y-49930000D02*
X118130000Y-50660000D01*
X118130000Y-50660000D02*
X118130000Y-57380000D01*
X119940000Y-57550000D02*
X118300000Y-57550000D01*
%TO.N,~{IRQ}*%
X196240000Y-97129000D02*
X195440000Y-96329000D01*
X190670000Y-42030000D02*
X188390000Y-42030000D01*
X195440000Y-96329000D02*
X195440000Y-46800000D01*
X195440000Y-46800000D02*
X190670000Y-42030000D01*
%TO.N,DATA*%
X150980000Y-107640000D02*
X150620000Y-107640000D01*
X150470000Y-97480000D02*
X150980000Y-97480000D01*
X149400000Y-106420000D02*
X149400000Y-98590000D01*
X149733000Y-94361000D02*
X150980000Y-95608000D01*
X150980000Y-95608000D02*
X150980000Y-97480000D01*
X149380000Y-98570000D02*
X150470000Y-97480000D01*
X150620000Y-107640000D02*
X149400000Y-106420000D01*
X149400000Y-98590000D02*
X149380000Y-98570000D01*
%TO.N,~{ATN}*%
X134557600Y-102780000D02*
X135540000Y-101797600D01*
X136615000Y-67580805D02*
X136615000Y-64655000D01*
X136601200Y-67594605D02*
X136615000Y-67580805D01*
X131888400Y-102780000D02*
X134557600Y-102780000D01*
X136215000Y-64255000D02*
X136215000Y-46825000D01*
X136615000Y-64655000D02*
X136215000Y-64255000D01*
X135540000Y-101797600D02*
X135540000Y-88300000D01*
X136601200Y-87238800D02*
X136601200Y-67594605D01*
X131064000Y-102768400D02*
X131876800Y-102768400D01*
X136215000Y-46825000D02*
X134240000Y-44850000D01*
X135540000Y-88300000D02*
X136601200Y-87238800D01*
X129946400Y-103886000D02*
X131064000Y-102768400D01*
X131876800Y-102768400D02*
X131888400Y-102780000D01*
%TO.N,Net-(U5-PA3)*%
X201130000Y-91940000D02*
X201120000Y-91950000D01*
X139750800Y-132588000D02*
X139750800Y-129438400D01*
X201130000Y-81730000D02*
X201130000Y-91940000D01*
X145562800Y-138400000D02*
X139750800Y-132588000D01*
X201120000Y-96174500D02*
X200890000Y-96404500D01*
X182230000Y-97520000D02*
X177596800Y-102153200D01*
X202730000Y-80130000D02*
X201130000Y-81730000D01*
X201120000Y-91950000D02*
X201120000Y-94610000D01*
X176102800Y-138400000D02*
X145562800Y-138400000D01*
X201120000Y-94610000D02*
X201120000Y-96174500D01*
X137109200Y-128574800D02*
X135636000Y-130048000D01*
X139750800Y-129438400D02*
X138887200Y-128574800D01*
X203630000Y-80130000D02*
X202730000Y-80130000D01*
X177596800Y-136906000D02*
X176102800Y-138400000D01*
X138887200Y-128574800D02*
X137109200Y-128574800D01*
X177596800Y-102153200D02*
X177596800Y-136906000D01*
%TO.N,Net-(U5-PA4)*%
X199186800Y-97383200D02*
X199950000Y-96620000D01*
X176593996Y-138850000D02*
X180823996Y-134620000D01*
X138176000Y-132943600D02*
X144082400Y-138850000D01*
X203630000Y-77600000D02*
X203630000Y-77590000D01*
X144082400Y-138850000D02*
X176593996Y-138850000D01*
X196070000Y-137750000D02*
X196951600Y-136868400D01*
X196951600Y-136868400D02*
X196951600Y-133451600D01*
X196951600Y-133451600D02*
X199186800Y-131216400D01*
X199950000Y-81280000D02*
X203630000Y-77600000D01*
X199186800Y-131216400D02*
X199186800Y-97383200D01*
X180823996Y-134620000D02*
X188468000Y-134620000D01*
X191598000Y-137750000D02*
X196070000Y-137750000D01*
X188468000Y-134620000D02*
X191598000Y-137750000D01*
X138176000Y-130048000D02*
X138176000Y-132943600D01*
X199950000Y-96620000D02*
X199950000Y-81280000D01*
%TO.N,A0*%
X177605500Y-77710000D02*
X177600000Y-77715500D01*
X177600000Y-77715500D02*
X177600000Y-83520000D01*
X183782800Y-89702800D02*
X183782800Y-107522800D01*
X183782800Y-107522800D02*
X185910000Y-109650000D01*
X177600000Y-83520000D02*
X183782800Y-89702800D01*
%TO.N,A1*%
X179309200Y-83419200D02*
X185330000Y-89440000D01*
X179310000Y-83057200D02*
X179309200Y-83058000D01*
X179309200Y-75410800D02*
X179309200Y-81469200D01*
X187840200Y-111469800D02*
X187120000Y-112190000D01*
X185330000Y-89440000D02*
X185330000Y-96530000D01*
X179309200Y-81469200D02*
X179310000Y-81470000D01*
X179309200Y-83058000D02*
X179309200Y-83419200D01*
X181580000Y-75020000D02*
X179700000Y-75020000D01*
X187120000Y-112190000D02*
X185910000Y-112190000D01*
X179700000Y-75020000D02*
X179309200Y-75410800D01*
X179310000Y-81470000D02*
X179310000Y-83057200D01*
X187840200Y-99040200D02*
X187840200Y-111469800D01*
X185330000Y-96530000D02*
X187840200Y-99040200D01*
%TO.N,A2*%
X188290200Y-98853804D02*
X188290200Y-113529800D01*
X185780000Y-96343604D02*
X188290200Y-98853804D01*
X185780000Y-82220000D02*
X185780000Y-96343604D01*
X185505500Y-81945500D02*
X185780000Y-82220000D01*
X188290200Y-113529800D02*
X187090000Y-114730000D01*
X187090000Y-114730000D02*
X185910000Y-114730000D01*
%TO.N,A3*%
X191510000Y-95100000D02*
X191510000Y-78550000D01*
X191510000Y-78550000D02*
X190550000Y-77590000D01*
X190550000Y-77590000D02*
X188390000Y-77590000D01*
X187598400Y-117270000D02*
X191940000Y-112928400D01*
X191940000Y-112928400D02*
X191940000Y-95530000D01*
X185910000Y-117270000D02*
X187598400Y-117270000D01*
X191940000Y-95530000D02*
X191510000Y-95100000D01*
%TO.N,A9*%
X209390000Y-132510000D02*
X210340000Y-132510000D01*
X207924400Y-131044400D02*
X209390000Y-132510000D01*
X207899000Y-124155200D02*
X207924400Y-124180600D01*
X207924400Y-124180600D02*
X207924400Y-131044400D01*
%TO.N,A10*%
X193040000Y-133096000D02*
X193294000Y-133350000D01*
X190493600Y-115970000D02*
X193040000Y-118516400D01*
X190398400Y-115970000D02*
X190493600Y-115970000D01*
X193040000Y-118516400D02*
X193040000Y-133096000D01*
%TO.N,A11*%
X205140000Y-121150000D02*
X206756000Y-122766000D01*
X206756000Y-134006000D02*
X210340000Y-137590000D01*
X206756000Y-122766000D02*
X206756000Y-134006000D01*
%TO.N,A12*%
X190614400Y-130010000D02*
X185950000Y-130010000D01*
X191998600Y-131318000D02*
X191922400Y-131318000D01*
X185950000Y-130010000D02*
X185910000Y-129970000D01*
X191922400Y-131318000D02*
X190614400Y-130010000D01*
%TO.N,A13*%
X197690000Y-133880000D02*
X199948800Y-131621200D01*
X166573200Y-114401600D02*
X167386000Y-115214400D01*
X166573200Y-114300000D02*
X166573200Y-114401600D01*
X199948800Y-131621200D02*
X199948800Y-127965200D01*
X197690000Y-137210000D02*
X197690000Y-133880000D01*
X167386000Y-124146000D02*
X170670000Y-127430000D01*
X199948800Y-127965200D02*
X200025000Y-127889000D01*
X167386000Y-115214400D02*
X167386000Y-124146000D01*
X198769000Y-138289000D02*
X197690000Y-137210000D01*
%TO.N,A14*%
X166522400Y-125822400D02*
X170670000Y-129970000D01*
X163576000Y-112522000D02*
X163677600Y-112623600D01*
X204600000Y-132530000D02*
X202950000Y-132530000D01*
X163677600Y-112623600D02*
X163677600Y-112776000D01*
X205810000Y-128740000D02*
X205810000Y-131320000D01*
X163677600Y-112776000D02*
X166522400Y-115620800D01*
X166522400Y-115620800D02*
X166522400Y-125822400D01*
X205810000Y-131320000D02*
X204600000Y-132530000D01*
%TO.N,A15*%
X221840000Y-102358400D02*
X221840000Y-125360000D01*
X221840000Y-125360000D02*
X223910000Y-127430000D01*
X223910000Y-127430000D02*
X225580000Y-127430000D01*
X215087200Y-95680000D02*
X215161600Y-95680000D01*
X215161600Y-95680000D02*
X221840000Y-102358400D01*
%TO.N,D7*%
X188740000Y-109365000D02*
X188740000Y-98667208D01*
X186230000Y-81552792D02*
X185090000Y-80412792D01*
X186230000Y-96157208D02*
X186230000Y-81552792D01*
X185090000Y-58030000D02*
X188390000Y-54730000D01*
X185090000Y-80412792D02*
X185090000Y-58030000D01*
X188740000Y-98667208D02*
X186230000Y-96157208D01*
X190246000Y-110871000D02*
X188740000Y-109365000D01*
%TO.N,D6*%
X185540000Y-60120000D02*
X188390000Y-57270000D01*
X186680000Y-81366396D02*
X185540000Y-80226396D01*
X190195200Y-108380000D02*
X189190000Y-107374800D01*
X186680000Y-95970812D02*
X186680000Y-81366396D01*
X189190000Y-107374800D02*
X189190000Y-98480812D01*
X185540000Y-80226396D02*
X185540000Y-60120000D01*
X189190000Y-98480812D02*
X186680000Y-95970812D01*
%TO.N,D5*%
X190610000Y-94540000D02*
X190610000Y-82280000D01*
X187350000Y-81400000D02*
X185990000Y-80040000D01*
X190610000Y-82280000D02*
X189730000Y-81400000D01*
X185990000Y-80040000D02*
X185990000Y-60650000D01*
X190189000Y-105695000D02*
X190200000Y-105684000D01*
X190200000Y-94950000D02*
X190610000Y-94540000D01*
X185990000Y-60650000D02*
X186830000Y-59810000D01*
X186830000Y-59810000D02*
X188390000Y-59810000D01*
X190200000Y-105684000D02*
X190200000Y-94950000D01*
X189730000Y-81400000D02*
X187350000Y-81400000D01*
%TO.N,D4*%
X193810000Y-76614400D02*
X193810000Y-96450000D01*
X193530000Y-100250000D02*
X195330000Y-102050000D01*
X193810000Y-96450000D02*
X193530000Y-96730000D01*
X207550000Y-106970000D02*
X208960000Y-108380000D01*
X207570000Y-104960000D02*
X207550000Y-104980000D01*
X192481200Y-75285600D02*
X193810000Y-76614400D01*
X207550000Y-104980000D02*
X207550000Y-106970000D01*
X214850000Y-108380000D02*
X220800000Y-114330000D01*
X208960000Y-108380000D02*
X214850000Y-108380000D01*
X192481200Y-64871200D02*
X192481200Y-75285600D01*
X189960000Y-62350000D02*
X192481200Y-64871200D01*
X193530000Y-96730000D02*
X193530000Y-100250000D01*
X188390000Y-62350000D02*
X189960000Y-62350000D01*
%TO.N,D3*%
X193040000Y-76962000D02*
X191668400Y-75590400D01*
X191668400Y-75590400D02*
X191668400Y-68168400D01*
X191668400Y-68168400D02*
X188390000Y-64890000D01*
X193040000Y-99240000D02*
X193040000Y-76962000D01*
X192770000Y-99510000D02*
X193040000Y-99240000D01*
%TO.N,D2*%
X204230000Y-102050000D02*
X205220000Y-101060000D01*
X191060000Y-79550000D02*
X191060000Y-95790000D01*
X190940000Y-100784500D02*
X190924500Y-100800000D01*
X202950000Y-102050000D02*
X204230000Y-102050000D01*
X205720000Y-100560000D02*
X205720000Y-99530000D01*
X222500000Y-100427600D02*
X222500000Y-110689200D01*
X188390000Y-67430000D02*
X186640000Y-69180000D01*
X215290400Y-93190000D02*
X215290400Y-93218000D01*
X215290400Y-93218000D02*
X222500000Y-100427600D01*
X187260000Y-78870000D02*
X190380000Y-78870000D01*
X224000800Y-112190000D02*
X225580000Y-112190000D01*
X205220000Y-101060000D02*
X205720000Y-100560000D01*
X186640000Y-78250000D02*
X187260000Y-78870000D01*
X222500000Y-110689200D02*
X224000800Y-112190000D01*
X190380000Y-78870000D02*
X191060000Y-79550000D01*
X205720000Y-99530000D02*
X205720000Y-96240000D01*
X190940000Y-95910000D02*
X190940000Y-100784500D01*
X191060000Y-95790000D02*
X190940000Y-95910000D01*
X186640000Y-69180000D02*
X186640000Y-78250000D01*
X205720000Y-96240000D02*
X207390000Y-94570000D01*
%TO.N,D1*%
X183057800Y-104099500D02*
X183057800Y-90007800D01*
X204320000Y-104590000D02*
X206620000Y-102290000D01*
X206620000Y-102290000D02*
X206620000Y-99150000D01*
X176850000Y-83800000D02*
X176850000Y-76740000D01*
X206620000Y-99150000D02*
X207370000Y-98400000D01*
X183057800Y-90007800D02*
X176850000Y-83800000D01*
X177720000Y-72260000D02*
X180040000Y-69940000D01*
X176850000Y-76740000D02*
X177720000Y-75870000D01*
X202950000Y-104590000D02*
X204320000Y-104590000D01*
X177720000Y-75870000D02*
X177720000Y-72260000D01*
X180040000Y-69940000D02*
X181580000Y-69940000D01*
%TO.N,D0*%
X204310000Y-107130000D02*
X202950000Y-107130000D01*
X184478400Y-107110000D02*
X185910000Y-107110000D01*
X184232800Y-88979196D02*
X184232800Y-106864400D01*
X181580000Y-72480000D02*
X180000000Y-72480000D01*
X208670000Y-100770000D02*
X208350000Y-101090000D01*
X180000000Y-72480000D02*
X178330000Y-74150000D01*
X208350000Y-103090000D02*
X204310000Y-107130000D01*
X208350000Y-101090000D02*
X208350000Y-103090000D01*
X178330000Y-79883604D02*
X178300000Y-79913604D01*
X178330000Y-74150000D02*
X178330000Y-79883604D01*
X184232800Y-106864400D02*
X184478400Y-107110000D01*
X178300000Y-83046396D02*
X184232800Y-88979196D01*
X178300000Y-79913604D02*
X178300000Y-83046396D01*
%TO.N,~{ROM_OE}*%
X172785000Y-111790000D02*
X172785000Y-92635000D01*
X172785000Y-92635000D02*
X171940000Y-91790000D01*
X170670000Y-117270000D02*
X172785000Y-115155000D01*
X172785000Y-115155000D02*
X172785000Y-111790000D01*
%TO.N,~{RAM_OE}*%
X193970000Y-112210000D02*
X193446400Y-112733600D01*
X193970000Y-117290000D02*
X195330000Y-117290000D01*
X193446400Y-116766400D02*
X193970000Y-117290000D01*
X193446400Y-112733600D02*
X193446400Y-116766400D01*
X195330000Y-112210000D02*
X193970000Y-112210000D01*
%TO.N,~{RAMWE}*%
X160020000Y-128422400D02*
X145490000Y-113892400D01*
X145490000Y-105358000D02*
X143865600Y-103733600D01*
X145490000Y-113892400D02*
X145490000Y-105358000D01*
%TO.N,~{WD_CS}*%
X145955500Y-80070000D02*
X143510000Y-77624500D01*
X143510000Y-72930000D02*
X143150000Y-72570000D01*
X143150000Y-72570000D02*
X141590000Y-72570000D01*
X143510000Y-77624500D02*
X143510000Y-72930000D01*
%TO.N,Net-(U4-STEP)*%
X152945000Y-66068600D02*
X152945000Y-75975000D01*
X153380000Y-65633600D02*
X152945000Y-66068600D01*
X151440000Y-77480000D02*
X151110000Y-77480000D01*
X152945000Y-75975000D02*
X151440000Y-77480000D01*
%TO.N,Net-(U4-DIRC)*%
X149410000Y-71390000D02*
X150420000Y-72400000D01*
X151340000Y-66998400D02*
X151340000Y-67090000D01*
X151434800Y-66903600D02*
X151340000Y-66998400D01*
X151340000Y-67090000D02*
X149410000Y-69020000D01*
X149410000Y-69020000D02*
X149410000Y-71390000D01*
X150420000Y-72400000D02*
X151110000Y-72400000D01*
%TO.N,Net-(U4-WG)*%
X166340000Y-64860000D02*
X164754589Y-64860000D01*
X163024500Y-73480000D02*
X162750000Y-73205500D01*
X162750000Y-73205500D02*
X162750000Y-66864589D01*
X164754589Y-64860000D02*
X162750000Y-66864589D01*
%TO.N,Net-(U4-WD)*%
X163749500Y-68490500D02*
X164840000Y-67400000D01*
X163024500Y-80020000D02*
X163749500Y-79295000D01*
X163749500Y-79295000D02*
X163749500Y-68490500D01*
X164840000Y-67400000D02*
X166340000Y-67400000D01*
%TO.N,~{MOTOR}*%
X200170000Y-98230000D02*
X201980000Y-96420000D01*
X200888600Y-132575900D02*
X200888600Y-100628600D01*
X158600000Y-112720000D02*
X158600000Y-114740000D01*
X167589200Y-133093798D02*
X168377701Y-133882299D01*
X201980000Y-96420000D02*
X201980000Y-92510000D01*
X202120000Y-82670000D02*
X203630000Y-82670000D01*
X201955000Y-84835000D02*
X201860000Y-84740000D01*
X159070000Y-121090000D02*
X167589200Y-129609200D01*
X201980000Y-92510000D02*
X201955000Y-92485000D01*
X167589200Y-129609200D02*
X167589200Y-133093798D01*
X158600000Y-114740000D02*
X159070000Y-115210000D01*
X201860000Y-84740000D02*
X201860000Y-82930000D01*
X200170000Y-99910000D02*
X200170000Y-98230000D01*
X159070000Y-115210000D02*
X159070000Y-121090000D01*
X201955000Y-92485000D02*
X201955000Y-84835000D01*
X198628000Y-134836500D02*
X200888600Y-132575900D01*
X200888600Y-100628600D02*
X200170000Y-99910000D01*
X201860000Y-82930000D02*
X202120000Y-82670000D01*
%TO.N,POWERLED*%
X148361600Y-72083900D02*
X148361600Y-61137600D01*
X149240000Y-46670000D02*
X151170000Y-44740000D01*
X148185500Y-72260000D02*
X148361600Y-72083900D01*
X149240000Y-60259200D02*
X149240000Y-46670000D01*
X148361600Y-61137600D02*
X149240000Y-60259200D01*
%TO.N,ACTLED*%
X161671000Y-82550000D02*
X161360000Y-82239000D01*
X200430000Y-79670000D02*
X201730000Y-78370000D01*
X201730000Y-78370000D02*
X201730000Y-73300000D01*
X161360000Y-82239000D02*
X161360000Y-69666000D01*
X158790000Y-67096000D02*
X158790000Y-57440000D01*
X200430000Y-79680000D02*
X200430000Y-79670000D01*
X161360000Y-69666000D02*
X158790000Y-67096000D01*
X201730000Y-73300000D02*
X202520000Y-72510000D01*
X202520000Y-72510000D02*
X203630000Y-72510000D01*
%TO.N,DATA_IN*%
X147523200Y-53594000D02*
X143859200Y-49930000D01*
X143859200Y-49930000D02*
X141860000Y-49930000D01*
X147636600Y-67005200D02*
X147523200Y-66891800D01*
X147523200Y-66891800D02*
X147523200Y-53594000D01*
%TO.N,DATA_OUT*%
X177860000Y-51360000D02*
X178598000Y-52098000D01*
X178598000Y-57688000D02*
X178960000Y-58050000D01*
X178598000Y-52098000D02*
X178598000Y-57688000D01*
%TO.N,CLK_IN*%
X200615000Y-47757800D02*
X200615000Y-51930305D01*
X201270000Y-52585305D02*
X201270000Y-61520000D01*
X200615000Y-51930305D02*
X201270000Y-52585305D01*
X201270000Y-61520000D02*
X202100000Y-62350000D01*
X200253600Y-47396400D02*
X200615000Y-47757800D01*
X202100000Y-62350000D02*
X203630000Y-62350000D01*
%TO.N,CLK_OUT*%
X202580000Y-59810000D02*
X203630000Y-59810000D01*
X201339500Y-51363548D02*
X201900000Y-51924048D01*
X201900000Y-51924048D02*
X201900000Y-59130000D01*
X201900000Y-59130000D02*
X202580000Y-59810000D01*
%TO.N,ATN_ACK*%
X132500000Y-75110000D02*
X133970000Y-75110000D01*
X131980000Y-74590000D02*
X132500000Y-75110000D01*
X131980000Y-69210000D02*
X131980000Y-74590000D01*
X132460000Y-68730000D02*
X131980000Y-69210000D01*
%TO.N,FAST_SER_DIR*%
X205670000Y-60230000D02*
X205670000Y-55110000D01*
X205670000Y-63230000D02*
X205670000Y-60230000D01*
X205670000Y-55110000D02*
X205290000Y-54730000D01*
X205290000Y-54730000D02*
X203630000Y-54730000D01*
%TO.N,ATN_IN*%
X131419600Y-45130400D02*
X134240000Y-42310000D01*
X131419600Y-50393600D02*
X131419600Y-45130400D01*
X133970000Y-80190000D02*
X133970000Y-82730000D01*
X131160000Y-77380000D02*
X133970000Y-80190000D01*
X131160000Y-68433200D02*
X131980000Y-67613200D01*
X131980000Y-67613200D02*
X131980000Y-50954000D01*
X131980000Y-50954000D02*
X131419600Y-50393600D01*
X131160000Y-72570000D02*
X131160000Y-68433200D01*
X131160000Y-72570000D02*
X131160000Y-77380000D01*
%TO.N,~{CIA_SEL}*%
X183685500Y-76034500D02*
X183685500Y-77810000D01*
X166979600Y-97485200D02*
X167233600Y-97485200D01*
X140940000Y-101490000D02*
X143877019Y-101490000D01*
X185675500Y-47180000D02*
X185675500Y-56028104D01*
X185675500Y-56028104D02*
X184190000Y-57513604D01*
X167233600Y-97485200D02*
X169062400Y-95656400D01*
X184190000Y-57513604D02*
X184190000Y-75530000D01*
X184190000Y-75530000D02*
X183685500Y-76034500D01*
X143877019Y-101490000D02*
X146505500Y-98861519D01*
X169062400Y-79762100D02*
X169714500Y-79110000D01*
X169062400Y-95656400D02*
X169062400Y-79762100D01*
%TO.N,~{FLAG}*%
X135890000Y-75730000D02*
X133970000Y-77650000D01*
X159715200Y-64312800D02*
X159715200Y-64325000D01*
X161100000Y-55133604D02*
X161100000Y-62928000D01*
X135890000Y-67280500D02*
X135890000Y-75730000D01*
X161080000Y-55113604D02*
X161100000Y-55133604D01*
X161100000Y-62928000D02*
X159715200Y-64312800D01*
X161080000Y-47345600D02*
X161080000Y-55113604D01*
%TO.N,~{WDSEL}*%
X146680000Y-96130000D02*
X146680000Y-77338000D01*
X145495000Y-74939695D02*
X145510000Y-74924695D01*
X146680000Y-77338000D02*
X145495000Y-76153000D01*
X145510000Y-63366400D02*
X141860000Y-59716400D01*
X143860000Y-98950000D02*
X146680000Y-96130000D01*
X145495000Y-76153000D02*
X145495000Y-74939695D01*
X141860000Y-59716400D02*
X141860000Y-57550000D01*
X145510000Y-74924695D02*
X145510000Y-63366400D01*
X140940000Y-98950000D02*
X143860000Y-98950000D01*
%TO.N,Net-(U7-Pad4)*%
X139905000Y-77165000D02*
X140390000Y-77650000D01*
X140055600Y-55764400D02*
X140055600Y-60989600D01*
X140810000Y-55010000D02*
X140055600Y-55764400D01*
X140614400Y-61548400D02*
X140614400Y-68175600D01*
X140614400Y-68175600D02*
X139905000Y-68885000D01*
X141860000Y-55010000D02*
X140810000Y-55010000D01*
X140055600Y-60989600D02*
X140614400Y-61548400D01*
X140390000Y-77650000D02*
X141590000Y-77650000D01*
X139905000Y-68885000D02*
X139905000Y-77165000D01*
%TO.N,Net-(U11-Pad13)*%
X147230000Y-109260000D02*
X147230000Y-71790000D01*
X147230000Y-71790000D02*
X146710000Y-71270000D01*
X147864600Y-109894600D02*
X147230000Y-109260000D01*
%TO.N,~{DRV_RESET}*%
X132144600Y-45618400D02*
X132144600Y-47867400D01*
X132144600Y-47867400D02*
X134207200Y-49930000D01*
X134207200Y-49930000D02*
X134240000Y-49930000D01*
D28*
%TO.N,12V*%
X102006400Y-129286000D02*
X96276400Y-129286000D01*
X108966000Y-132094000D02*
X106790000Y-134270000D01*
X106790000Y-134270000D02*
X105370000Y-134270000D01*
X108966000Y-129286000D02*
X108966000Y-132094000D01*
X108966000Y-129286000D02*
X102006400Y-129286000D01*
D27*
%TO.N,Net-(J5-Pin_1)*%
X163110000Y-134500000D02*
X163590000Y-134980000D01*
X153240000Y-119407200D02*
X153240000Y-119350000D01*
X163590000Y-134980000D02*
X163590000Y-136470000D01*
X163110000Y-126737200D02*
X163110000Y-134500000D01*
X163110000Y-126737200D02*
X158800800Y-122428000D01*
X156260800Y-122428000D02*
X153240000Y-119407200D01*
X158800800Y-122428000D02*
X156260800Y-122428000D01*
%TO.N,Net-(J6-Pin_1)*%
X112903000Y-43916600D02*
X111805000Y-45014600D01*
X111805000Y-45014600D02*
X111805000Y-48370000D01*
X112903000Y-40970200D02*
X112903000Y-43916600D01*
%TO.N,~{DISKCHANGE}*%
X119195000Y-96150000D02*
X119195000Y-86000000D01*
X119195000Y-96150000D02*
X119195000Y-99625000D01*
%TD*%
M02*
